<svg width="378" height="620" viewBox="0 0 378 620" fill="none" xmlns="http://www.w3.org/2000/svg">
<path d="M-242 474.176H378V474.486H-242V474.176Z" fill="#EBEBEB"/>
<path d="M259.394 484.704H312.95V485.014H259.394V484.704Z" fill="#EBEBEB"/>
<path d="M240.496 484.704H248.346V485.014H240.496V484.704Z" fill="#EBEBEB"/>
<path d="M98.814 489.936H214.977V490.246H98.814V489.936Z" fill="#EBEBEB"/>
<path d="M84.12 418.872H323.552C325.427 418.869 327.225 418.121 328.55 416.794C329.875 415.466 330.62 413.667 330.62 411.792V75.2184C330.603 73.3535 329.852 71.5703 328.528 70.2562C327.205 68.9421 325.417 68.2032 323.552 68.2H84.12C82.2421 68.2 80.4412 68.946 79.1134 70.2738C77.7856 71.6016 77.0396 73.4026 77.0396 75.2804V411.792C77.0396 413.669 77.7856 415.47 79.1134 416.798C80.4412 418.126 82.2421 418.872 84.12 418.872ZM323.552 68.448C325.345 68.4513 327.064 69.1661 328.331 70.4354C329.598 71.7047 330.31 73.4249 330.31 75.2184V411.792C330.31 413.585 329.598 415.305 328.331 416.575C327.064 417.844 325.345 418.559 323.552 418.562H84.12C82.3254 418.559 80.6052 417.844 79.3362 416.575C78.0672 415.306 77.3529 413.586 77.3496 411.792V75.2184C77.3529 73.4238 78.0672 71.7036 79.3362 70.4346C80.6052 69.1657 82.3254 68.4513 84.12 68.448H323.552Z" fill="#EBEBEB"/>
<path d="M-184.104 418.872H55.3396C57.2165 418.869 59.0155 418.122 60.3426 416.795C61.6697 415.467 62.4167 413.668 62.42 411.792V75.2184C62.4004 73.3524 61.6462 71.5692 60.3209 70.2554C58.9955 68.9417 57.2058 68.2032 55.3396 68.2H-184.104C-185.967 68.2065 -187.752 68.9468 -189.073 70.2606C-190.394 71.5743 -191.144 73.3556 -191.16 75.2184V411.792C-191.16 413.665 -190.417 415.462 -189.095 416.789C-187.772 418.117 -185.978 418.865 -184.104 418.872ZM55.3396 68.448C57.1342 68.4513 58.8544 69.1657 60.1234 70.4346C61.3924 71.7036 62.1067 73.4238 62.11 75.2184V411.792C62.1067 413.586 61.3924 415.306 60.1234 416.575C58.8544 417.844 57.1342 418.559 55.3396 418.562H-184.104C-185.899 418.559 -187.619 417.844 -188.888 416.575C-190.157 415.306 -190.871 413.586 -190.875 411.792V75.2184C-190.871 73.4238 -190.157 71.7036 -188.888 70.4346C-187.619 69.1657 -185.899 68.4513 -184.104 68.448H55.3396Z" fill="#EBEBEB"/>
<path d="M43.8448 474.176H-167.612L-182.616 103.143H28.8408L43.8448 474.176Z" fill="#E6E6E6"/>
<path d="M49.0156 474.176H-162.442L-177.446 103.143H34.0116L49.0156 474.176Z" fill="#F0F0F0"/>
<path d="M-152.311 463.624L-166.472 113.696H23.8808L38.0292 463.624H-152.311Z" fill="#FAFAFA"/>
<path d="M249.796 175.162L238.736 202.442C239.058 281.319 235.487 285.87 235.462 299.435H263.387C264.391 233.405 254.608 248.248 249.796 175.162Z" fill="#EBEBEB"/>
<path d="M234.16 255.713C256.691 193.812 308.448 212.982 306.08 235.6C303.712 258.218 221.276 291.313 234.16 255.713Z" fill="#EBEBEB"/>
<path d="M242.704 291.4C254.98 251.509 287.592 258.019 287.592 276.346C287.592 294.674 235.648 314.352 242.704 291.4Z" fill="#EBEBEB"/>
<path d="M243.584 219.406C262.841 166.086 310.804 173.414 306.936 195.92C303.067 218.426 232.511 250.071 243.584 219.406Z" fill="#EBEBEB"/>
<path d="M243.448 195.486C241.662 159.154 277.647 144.2 275.154 165.912C272.662 187.624 244.477 216.38 243.448 195.486Z" fill="#EBEBEB"/>
<path d="M246.138 232.686C238.537 187.922 192.434 170.884 197.58 196.23C202.726 221.576 250.503 258.428 246.138 232.686Z" fill="#EBEBEB"/>
<path d="M250.02 207.378C258.972 160.431 217.556 139.574 216.366 162.204C215.176 184.834 244.874 234.36 250.02 207.378Z" fill="#EBEBEB"/>
<path d="M253.616 260.4C235.313 215.165 196.129 226.387 200.085 246.971C204.04 267.555 264.143 286.44 253.616 260.4Z" fill="#EBEBEB"/>
<path d="M244.576 291.995C244.985 262.806 218.536 255.266 218.189 272.155C217.842 289.044 244.353 308.76 244.576 291.995Z" fill="#EBEBEB"/>
<path d="M252.673 327.36C259.626 327.381 266.377 325.023 271.806 320.679C277.235 316.335 281.015 310.266 282.52 303.478C283.243 299.839 284.285 296.27 285.632 292.814L285.868 292.256H219.503L219.739 292.814C221.087 296.27 222.128 299.839 222.851 303.478C224.353 310.263 228.129 316.33 233.553 320.674C238.978 325.018 245.724 327.377 252.673 327.36Z" fill="#E0E0E0"/>
<path d="M316.744 474.164H287.294V327.31H316.744V474.164Z" fill="#E6E6E6"/>
<path d="M307.903 474.176H316.732V456.481H298.652L307.903 474.176Z" fill="#F0F0F0"/>
<path d="M114.872 474.164H85.422L85.422 327.31H114.872L114.872 474.164Z" fill="#E6E6E6"/>
<path d="M316.744 468.274H107.184L107.184 327.31H316.744V468.274Z" fill="#F0F0F0"/>
<path d="M116 474.176H107.172V456.481H125.263L116 474.176Z" fill="#F0F0F0"/>
<path d="M309.887 393.638H114.029V337.23H309.887V393.638Z" fill="#E6E6E6"/>
<path d="M256.988 354.764H172.867C164.249 354.764 156.015 347.808 150.088 335.519H279.755C273.84 347.808 265.594 354.764 256.988 354.764Z" fill="#F0F0F0"/>
<path d="M309.887 459.172H114.029V402.764H309.887V459.172Z" fill="#E6E6E6"/>
<path d="M256.988 420.286H172.867C164.249 420.286 156.015 413.329 150.088 401.041H279.755C273.84 413.329 265.594 420.286 256.988 420.286Z" fill="#F0F0F0"/>
<path d="M68 530.174C-64.7823 530.174 -172.424 523.89 -172.424 516.138C-172.424 508.385 -64.7823 502.101 68 502.101C200.782 502.101 308.424 508.385 308.424 516.138C308.424 523.89 200.782 530.174 68 530.174Z" fill="#F5F5F5"/>
<path d="M-124.039 391.344H196.824C198.469 391.368 200.101 391.044 201.612 390.392C203.124 389.74 204.48 388.776 205.591 387.563C206.703 386.349 207.545 384.914 208.062 383.351C208.579 381.789 208.759 380.135 208.591 378.498L189.322 149.098C188.973 145.624 187.364 142.398 184.798 140.031C182.232 137.663 178.887 136.319 175.396 136.251H-145.466C-147.111 136.229 -148.743 136.555 -150.254 137.207C-151.765 137.859 -153.121 138.824 -154.233 140.036C-155.345 141.249 -156.188 142.683 -156.708 144.245C-157.227 145.807 -157.41 147.46 -157.246 149.098L-137.976 378.498C-137.623 381.971 -136.01 385.196 -133.442 387.562C-130.875 389.929 -127.53 391.274 -124.039 391.344Z" fill="#407BFF"/>
<path opacity="0.7" d="M-124.039 391.344H196.824C198.469 391.368 200.101 391.044 201.612 390.392C203.124 389.74 204.48 388.776 205.591 387.563C206.703 386.349 207.545 384.914 208.062 383.351C208.579 381.789 208.759 380.135 208.591 378.498L189.322 149.098C188.973 145.624 187.364 142.398 184.798 140.031C182.232 137.663 178.887 136.319 175.396 136.251H-145.466C-147.111 136.229 -148.743 136.555 -150.254 137.207C-151.765 137.859 -153.121 138.824 -154.233 140.036C-155.345 141.249 -156.188 142.683 -156.708 144.245C-157.227 145.807 -157.41 147.46 -157.246 149.098L-137.976 378.498C-137.623 381.971 -136.01 385.196 -133.442 387.562C-130.875 389.929 -127.53 391.274 -124.039 391.344Z" fill="white"/>
<path d="M196.402 386.384C197.413 386.402 198.417 386.205 199.346 385.806C200.275 385.406 201.109 384.815 201.793 384.069C202.476 383.323 202.994 382.441 203.31 381.481C203.627 380.52 203.737 379.503 203.631 378.498L184.362 149.098C184.149 146.963 183.161 144.981 181.583 143.527C180.006 142.073 177.95 141.249 175.806 141.211H-145.044C-146.056 141.194 -147.06 141.391 -147.99 141.79C-148.92 142.189 -149.755 142.78 -150.439 143.526C-151.123 144.271 -151.642 145.153 -151.96 146.114C-152.279 147.074 -152.39 148.091 -152.286 149.098L-133.016 378.498C-132.804 380.632 -131.816 382.614 -130.238 384.068C-128.661 385.522 -126.605 386.346 -124.46 386.384H196.402Z" fill="white"/>
<path d="M166.444 157.195H159.76L159.909 158.943H162.141L162.6 164.288H164.794L164.336 158.943H166.58L166.444 157.195Z" fill="#407BFF"/>
<path d="M155.581 163.122H158.061L158.508 164.288H160.752L157.478 157.195H155.085L153.014 164.288H155.321L155.581 163.122ZM155.916 161.584L156.486 159.03L157.466 161.584H155.916Z" fill="#407BFF"/>
<path d="M152.518 161.944L150.423 161.808C150.421 162.082 150.349 162.351 150.212 162.589C150.105 162.733 149.964 162.848 149.802 162.923C149.64 162.999 149.461 163.033 149.282 163.023C149.015 163.04 148.751 162.961 148.538 162.8C148.455 162.741 148.386 162.665 148.335 162.577C148.283 162.49 148.251 162.392 148.24 162.291C148.229 162.199 148.242 162.105 148.276 162.018C148.311 161.931 148.367 161.855 148.439 161.795C148.765 161.574 149.139 161.434 149.53 161.386C150.253 161.265 150.934 160.967 151.514 160.518C151.7 160.344 151.843 160.129 151.931 159.89C152.019 159.651 152.051 159.395 152.022 159.142C151.981 158.768 151.839 158.413 151.613 158.112C151.35 157.769 150.998 157.504 150.596 157.344C150.029 157.139 149.426 157.046 148.823 157.071C148.108 157.015 147.394 157.193 146.79 157.579C146.555 157.775 146.369 158.022 146.246 158.302C146.124 158.582 146.068 158.886 146.083 159.191L148.154 159.303C148.158 159.044 148.26 158.796 148.439 158.608C148.645 158.452 148.901 158.377 149.158 158.398C149.365 158.383 149.571 158.44 149.741 158.559C149.806 158.602 149.861 158.658 149.901 158.725C149.942 158.791 149.968 158.866 149.976 158.943C149.979 159.002 149.968 159.06 149.944 159.114C149.921 159.168 149.885 159.215 149.84 159.253C149.626 159.399 149.379 159.489 149.121 159.514C148.428 159.643 147.754 159.855 147.112 160.146C146.76 160.318 146.467 160.59 146.269 160.927C146.106 161.253 146.041 161.619 146.083 161.981C146.128 162.431 146.295 162.86 146.566 163.221C146.856 163.608 147.246 163.909 147.695 164.089C148.248 164.303 148.838 164.404 149.431 164.387C149.87 164.443 150.315 164.411 150.741 164.292C151.167 164.172 151.565 163.969 151.911 163.692C152.331 163.21 152.549 162.583 152.518 161.944Z" fill="#407BFF"/>
<path d="M144.558 157.195H142.4L142.623 159.873L140.143 157.195H137.229L139.92 159.873L137.589 164.288H140.28L141.52 161.374L142.76 162.614L142.908 164.337H145.103L144.558 157.195Z" fill="#407BFF"/>
<path d="M133.013 157.195H129.368C129.056 157.166 128.741 157.201 128.443 157.297C128.144 157.393 127.869 157.548 127.632 157.753C127.44 157.97 127.299 158.228 127.22 158.507C127.14 158.786 127.124 159.079 127.173 159.365C127.205 160.007 127.485 160.612 127.954 161.051C128.531 161.493 129.25 161.709 129.975 161.659H131.215L131.438 164.288H133.646L133.013 157.195ZM131.066 160.22H130.521C130.203 160.248 129.885 160.169 129.616 159.997C129.527 159.929 129.454 159.843 129.401 159.745C129.347 159.646 129.315 159.538 129.306 159.427C129.29 159.225 129.352 159.026 129.479 158.869C129.592 158.775 129.723 158.705 129.864 158.665C130.004 158.624 130.152 158.613 130.298 158.633H130.93L131.066 160.22Z" fill="#407BFF"/>
<path d="M122.808 163.122H125.288L125.734 164.288H127.979L124.705 157.195H122.312L120.241 164.288H122.56L122.808 163.122ZM123.143 161.584L123.713 159.03L124.693 161.584H123.143Z" fill="#407BFF"/>
<path d="M118.952 157.195H116.906L114.562 161.113L114.227 157.195H112.156L112.752 164.288H114.822L117.154 160.394L117.488 164.288H119.547L118.952 157.195Z" fill="#407BFF"/>
<path d="M110.706 157.195H104.828L104.952 158.708H108.672L108.771 159.836H105.349L105.473 161.287H108.883L109.007 162.688H105.2L105.336 164.288H111.326L110.706 157.195Z" fill="#407BFF"/>
<path d="M103.538 157.195H101.344L101.79 162.539H98.3676L98.5164 164.288H104.134L103.538 157.195Z" fill="#407BFF"/>
<path opacity="0.1" d="M64.28 167.462H82.88C83.3705 167.47 83.8571 167.374 84.3076 167.18C84.758 166.985 85.162 166.697 85.4927 166.335C85.8234 165.973 86.0733 165.544 86.2257 165.078C86.3781 164.611 86.4296 164.118 86.3768 163.63L85.8312 157.021C85.7227 155.988 85.2408 155.03 84.476 154.327C83.7111 153.623 82.7159 153.223 81.6772 153.202H63.0772C62.5884 153.196 62.1039 153.293 61.6553 153.488C61.2068 153.682 60.8043 153.969 60.4742 154.329C60.1441 154.69 59.8938 155.116 59.7398 155.58C59.5858 156.044 59.5315 156.535 59.5804 157.021L60.188 163.68C60.2984 164.698 60.7735 165.642 61.5257 166.337C62.2779 167.033 63.2562 167.432 64.28 167.462Z" fill="#407BFF"/>
<path opacity="0.1" d="M82.2972 186.198H160.591C165.278 186.198 169.407 189.732 169.767 194.06L185.887 386.384H90.5556L74.4356 194.06C74.0884 189.72 77.6224 186.198 82.2972 186.198Z" fill="#407BFF"/>
<path d="M84.7276 190.96H158.966C160.65 190.999 162.263 191.65 163.502 192.791C164.741 193.932 165.522 195.485 165.7 197.16L169.42 241.676C169.5 242.467 169.412 243.266 169.162 244.021C168.911 244.775 168.504 245.468 167.966 246.054C167.428 246.64 166.773 247.105 166.042 247.419C165.312 247.733 164.523 247.889 163.728 247.876H89.5016C87.8151 247.845 86.1985 247.197 84.9577 246.054C83.7169 244.912 82.938 243.354 82.7684 241.676L79.0484 197.16C78.9719 196.371 79.0621 195.574 79.3134 194.822C79.5647 194.07 79.9713 193.38 80.5068 192.795C81.0424 192.21 81.6949 191.745 82.4221 191.429C83.1492 191.112 83.9347 190.953 84.7276 190.96Z" fill="white"/>
<path d="M90.072 254.609H164.311C165.996 254.645 167.609 255.295 168.849 256.437C170.089 257.578 170.869 259.133 171.044 260.809L174.764 305.325C174.845 306.116 174.757 306.915 174.506 307.67C174.256 308.425 173.848 309.118 173.311 309.703C172.773 310.289 172.117 310.754 171.387 311.068C170.656 311.382 169.867 311.538 169.072 311.525H94.846C93.1596 311.494 91.543 310.846 90.3021 309.704C89.0613 308.561 88.2824 307.003 88.1128 305.325L84.3928 260.809C84.3163 260.02 84.4066 259.224 84.6578 258.472C84.9091 257.719 85.3157 257.029 85.8512 256.444C86.3868 255.859 87.0394 255.394 87.7665 255.078C88.4937 254.762 89.2792 254.602 90.072 254.609Z" fill="white"/>
<path d="M95.4164 318.271H169.68C171.366 318.304 172.981 318.953 174.221 320.095C175.461 321.237 176.241 322.794 176.413 324.471L180.133 368.987C180.214 369.778 180.126 370.577 179.876 371.332C179.625 372.086 179.217 372.779 178.68 373.365C178.142 373.951 177.486 374.416 176.756 374.73C176.025 375.044 175.237 375.2 174.442 375.187H100.24C98.5544 375.153 96.9392 374.504 95.699 373.362C94.4587 372.22 93.679 370.664 93.5068 368.987L89.7868 324.471C89.7068 323.685 89.793 322.891 90.0398 322.141C90.2867 321.391 90.6886 320.701 91.2196 320.116C91.7505 319.531 92.3986 319.065 93.1216 318.747C93.8447 318.429 94.6266 318.267 95.4164 318.271Z" fill="white"/>
<path opacity="0.5" d="M145.103 215.958H158.235C158.599 215.964 158.96 215.892 159.294 215.748C159.628 215.604 159.928 215.391 160.174 215.123C160.42 214.854 160.606 214.537 160.721 214.192C160.835 213.847 160.876 213.481 160.839 213.119L159.735 199.987C159.654 199.219 159.296 198.507 158.727 197.985C158.159 197.462 157.42 197.164 156.648 197.148H143.528C143.165 197.142 142.804 197.214 142.469 197.358C142.135 197.502 141.835 197.715 141.589 197.983C141.344 198.252 141.157 198.569 141.042 198.914C140.928 199.259 140.888 199.625 140.924 199.987L142.028 213.119C142.106 213.886 142.462 214.597 143.028 215.12C143.595 215.643 144.333 215.941 145.103 215.958Z" fill="#407BFF"/>
<path opacity="0.5" d="M89.018 226.188H160.591C160.762 226.189 160.932 226.154 161.089 226.085C161.247 226.017 161.388 225.917 161.505 225.791C161.621 225.665 161.71 225.516 161.766 225.354C161.823 225.192 161.845 225.02 161.831 224.849C161.795 224.486 161.628 224.148 161.36 223.9C161.093 223.651 160.745 223.508 160.38 223.498H88.8072C88.6345 223.497 88.4636 223.532 88.3054 223.601C88.1472 223.671 88.0052 223.772 87.8884 223.899C87.7717 224.027 87.6828 224.177 87.6275 224.34C87.5722 224.504 87.5517 224.677 87.5672 224.849C87.6061 225.21 87.7745 225.545 88.0413 225.791C88.3081 226.037 88.6551 226.178 89.018 226.188Z" fill="#407BFF"/>
<path opacity="0.2" d="M98.4916 205.146H131.414C131.688 205.149 131.96 205.094 132.211 204.985C132.463 204.876 132.689 204.714 132.874 204.512C133.059 204.309 133.199 204.07 133.285 203.809C133.371 203.549 133.401 203.273 133.373 203C133.312 202.423 133.044 201.888 132.617 201.496C132.19 201.103 131.634 200.88 131.054 200.868H98.132C97.8589 200.865 97.5881 200.919 97.3375 201.028C97.0868 201.136 96.8617 201.296 96.677 201.497C96.4922 201.698 96.3518 201.936 96.2649 202.195C96.1781 202.454 96.1467 202.729 96.1728 203C96.2303 203.58 96.4979 204.118 96.9252 204.513C97.3524 204.908 97.9097 205.133 98.4916 205.146Z" fill="#263238"/>
<path opacity="0.2" d="M112.107 212.238H132.009C132.282 212.241 132.553 212.187 132.803 212.078C133.054 211.97 133.279 211.81 133.464 211.609C133.649 211.408 133.789 211.17 133.876 210.911C133.963 210.652 133.994 210.377 133.968 210.106C133.911 209.528 133.645 208.992 133.22 208.597C132.796 208.202 132.241 207.976 131.662 207.96H111.747C111.473 207.957 111.201 208.012 110.949 208.121C110.698 208.23 110.472 208.392 110.287 208.594C110.102 208.797 109.962 209.036 109.876 209.297C109.79 209.557 109.76 209.833 109.788 210.106C109.848 210.683 110.117 211.218 110.544 211.61C110.971 212.003 111.527 212.226 112.107 212.238Z" fill="#263238"/>
<path opacity="0.5" d="M150.448 279.62H163.579C163.943 279.625 164.304 279.554 164.638 279.41C164.972 279.266 165.272 279.052 165.518 278.784C165.764 278.516 165.95 278.199 166.065 277.853C166.18 277.508 166.22 277.142 166.183 276.78L165.08 263.649C165.001 262.88 164.643 262.166 164.074 261.643C163.506 261.12 162.765 260.823 161.992 260.809H148.873C148.509 260.804 148.148 260.876 147.814 261.02C147.48 261.164 147.18 261.377 146.934 261.645C146.688 261.913 146.502 262.23 146.387 262.576C146.272 262.921 146.232 263.287 146.269 263.649L147.36 276.78C147.439 277.549 147.796 278.263 148.365 278.786C148.934 279.309 149.675 279.606 150.448 279.62Z" fill="#407BFF"/>
<path opacity="0.5" d="M94.3624 289.85H165.96C166.133 289.851 166.304 289.815 166.462 289.746C166.62 289.677 166.762 289.576 166.879 289.448C166.995 289.321 167.084 289.171 167.14 289.007C167.195 288.844 167.216 288.67 167.2 288.498C167.161 288.137 166.993 287.803 166.726 287.557C166.459 287.31 166.112 287.169 165.749 287.159H94.1764C94.0049 287.159 93.8351 287.194 93.6778 287.262C93.5205 287.331 93.3791 287.431 93.2626 287.557C93.146 287.683 93.0569 287.831 93.0007 287.993C92.9446 288.155 92.9227 288.327 92.9364 288.498C92.9718 288.858 93.1355 289.192 93.3974 289.44C93.6593 289.688 94.0019 289.834 94.3624 289.85Z" fill="#407BFF"/>
<path opacity="0.2" d="M103.836 268.807H136.77C137.044 268.809 137.314 268.752 137.564 268.642C137.814 268.532 138.039 268.371 138.222 268.169C138.406 267.966 138.545 267.728 138.63 267.468C138.715 267.208 138.745 266.934 138.717 266.662C138.657 266.087 138.39 265.554 137.966 265.161C137.541 264.769 136.989 264.544 136.411 264.529H103.476C103.203 264.526 102.933 264.581 102.682 264.689C102.431 264.798 102.206 264.958 102.021 265.159C101.837 265.36 101.696 265.598 101.609 265.857C101.522 266.116 101.491 266.39 101.517 266.662C101.575 267.241 101.842 267.779 102.27 268.175C102.697 268.57 103.254 268.795 103.836 268.807Z" fill="#263238"/>
<path opacity="0.2" d="M117.451 275.9H137.366C137.638 275.903 137.909 275.849 138.159 275.74C138.409 275.631 138.633 275.471 138.817 275.27C139.001 275.068 139.14 274.83 139.225 274.571C139.311 274.313 139.34 274.038 139.312 273.767C139.255 273.19 138.989 272.654 138.565 272.259C138.14 271.864 137.586 271.637 137.006 271.622H117.092C116.817 271.619 116.545 271.674 116.294 271.783C116.042 271.892 115.817 272.053 115.632 272.256C115.447 272.458 115.306 272.698 115.22 272.958C115.134 273.219 115.104 273.494 115.132 273.767C115.193 274.344 115.462 274.879 115.889 275.272C116.316 275.665 116.871 275.888 117.451 275.9Z" fill="#263238"/>
<path d="M122.56 296.05H96.6688C96.2631 296.043 95.8605 296.121 95.4876 296.281C95.1146 296.441 94.7799 296.678 94.5056 296.977C94.2312 297.276 94.0235 297.63 93.8963 298.015C93.769 298.401 93.725 298.808 93.7672 299.212L94.1516 303.837C94.2364 304.695 94.6329 305.492 95.2659 306.077C95.899 306.662 96.7246 306.995 97.5864 307.012H123.527C123.933 307.017 124.336 306.937 124.709 306.776C125.082 306.614 125.417 306.376 125.691 306.076C125.965 305.776 126.172 305.422 126.3 305.036C126.427 304.65 126.471 304.241 126.429 303.837L126.044 299.212C125.956 298.348 125.551 297.547 124.908 296.964C124.265 296.38 123.428 296.055 122.56 296.05Z" fill="#407BFF"/>
<path d="M120.588 302.969H122.101L122.374 303.676H123.726L121.742 299.373H120.291L119.051 303.676H120.44L120.588 302.969ZM120.787 302.039L121.122 300.489L121.729 302.039H120.787Z" fill="white"/>
<path d="M115.703 301.915L114.562 302.275C114.66 302.572 114.811 302.85 115.008 303.093C115.192 303.306 115.421 303.476 115.678 303.589C115.986 303.707 116.315 303.762 116.645 303.75C117.031 303.768 117.417 303.7 117.774 303.552C118.081 303.395 118.329 303.143 118.48 302.833C118.679 302.425 118.752 301.968 118.691 301.518C118.67 300.9 118.418 300.311 117.984 299.869C117.526 299.47 116.93 299.265 116.323 299.299C115.886 299.274 115.452 299.387 115.083 299.621C114.766 299.877 114.55 300.238 114.475 300.638L115.715 300.898C115.733 300.799 115.766 300.702 115.814 300.613C115.879 300.513 115.969 300.432 116.075 300.378C116.18 300.317 116.3 300.287 116.422 300.291C116.565 300.288 116.707 300.32 116.835 300.385C116.962 300.45 117.072 300.545 117.154 300.663C117.316 300.914 117.402 301.207 117.402 301.506C117.471 301.837 117.427 302.182 117.278 302.486C117.209 302.577 117.119 302.65 117.015 302.698C116.911 302.746 116.797 302.766 116.682 302.758C116.573 302.763 116.464 302.746 116.362 302.708C116.26 302.67 116.166 302.611 116.087 302.535C115.911 302.363 115.779 302.15 115.703 301.915Z" fill="white"/>
<path d="M111.016 301.915L109.875 302.275C109.973 302.572 110.124 302.85 110.321 303.093C110.505 303.306 110.733 303.476 110.991 303.589C111.299 303.707 111.628 303.762 111.958 303.75C112.344 303.768 112.729 303.7 113.086 303.552C113.394 303.395 113.642 303.143 113.793 302.833C113.992 302.425 114.065 301.968 114.004 301.518C113.983 300.9 113.73 300.311 113.297 299.869C112.839 299.47 112.243 299.265 111.636 299.299C111.199 299.276 110.766 299.388 110.396 299.621C110.083 299.88 109.868 300.239 109.788 300.638L111.028 300.898C111.046 300.799 111.079 300.702 111.127 300.613C111.195 300.516 111.284 300.435 111.388 300.378C111.497 300.315 111.622 300.285 111.747 300.291C111.888 300.289 112.028 300.321 112.154 300.386C112.279 300.451 112.387 300.546 112.466 300.663C112.628 300.915 112.718 301.206 112.727 301.506C112.788 301.839 112.74 302.182 112.59 302.486C112.523 302.578 112.433 302.652 112.328 302.7C112.224 302.747 112.109 302.768 111.995 302.758C111.888 302.767 111.78 302.754 111.677 302.719C111.575 302.685 111.481 302.631 111.4 302.56C111.22 302.38 111.088 302.159 111.016 301.915Z" fill="white"/>
<path d="M108.92 299.373H105.349L105.436 300.291H107.68L107.742 300.973H105.671L105.746 301.853H107.816L107.891 302.709H105.584L105.671 303.676H109.304L108.92 299.373Z" fill="white"/>
<path d="M104.642 299.373H102.422C102.232 299.355 102.041 299.377 101.859 299.437C101.678 299.497 101.511 299.593 101.368 299.72C101.256 299.855 101.174 300.012 101.127 300.181C101.08 300.35 101.069 300.527 101.096 300.7C101.104 300.893 101.152 301.083 101.235 301.257C101.318 301.432 101.435 301.588 101.579 301.717C101.934 301.985 102.376 302.113 102.819 302.076H103.551L103.687 303.676H105.026L104.642 299.373ZM103.402 301.208H103.067C102.875 301.222 102.684 301.174 102.522 301.072C102.471 301.033 102.428 300.985 102.396 300.929C102.365 300.874 102.344 300.813 102.336 300.749C102.328 300.686 102.332 300.621 102.349 300.56C102.366 300.498 102.395 300.44 102.435 300.39C102.503 300.332 102.582 300.289 102.667 300.264C102.753 300.238 102.842 300.23 102.931 300.241H103.315L103.402 301.208Z" fill="white"/>
<path d="M100.587 299.373H96.52L96.6068 300.44H97.9584L98.2436 303.676H99.5828L99.2976 300.44H100.649L100.587 299.373Z" fill="white"/>
<path opacity="0.5" d="M155.804 343.282H168.924C169.288 343.285 169.649 343.212 169.983 343.066C170.318 342.921 170.617 342.707 170.863 342.438C171.109 342.168 171.295 341.85 171.409 341.504C171.524 341.158 171.564 340.792 171.528 340.43L170.424 327.36C170.346 326.593 169.99 325.881 169.424 325.358C168.857 324.836 168.119 324.538 167.349 324.52H154.217C153.853 324.515 153.492 324.587 153.158 324.731C152.824 324.875 152.524 325.088 152.278 325.356C152.032 325.624 151.846 325.941 151.731 326.287C151.617 326.632 151.576 326.998 151.613 327.36L152.717 340.479C152.809 341.239 153.172 341.941 153.739 342.455C154.306 342.97 155.039 343.263 155.804 343.282Z" fill="#407BFF"/>
<path opacity="0.25" d="M99.7192 353.512H171.28C171.452 353.512 171.623 353.477 171.781 353.408C171.94 353.339 172.082 353.237 172.198 353.11C172.315 352.983 172.404 352.832 172.459 352.669C172.515 352.505 172.535 352.332 172.52 352.16C172.481 351.799 172.312 351.464 172.046 351.218C171.779 350.972 171.432 350.831 171.069 350.821H99.496C99.3245 350.82 99.1547 350.855 98.9974 350.924C98.8401 350.992 98.6987 351.092 98.5822 351.218C98.4656 351.344 98.3765 351.493 98.3203 351.655C98.2642 351.817 98.2423 351.989 98.256 352.16C98.2923 352.525 98.4613 352.865 98.7309 353.114C99.0006 353.363 99.3522 353.504 99.7192 353.512Z" fill="#407BFF"/>
<path opacity="0.25" d="M113.57 353.512H171.28C171.452 353.512 171.623 353.477 171.781 353.408C171.94 353.339 172.082 353.237 172.198 353.11C172.315 352.983 172.404 352.832 172.459 352.669C172.515 352.505 172.535 352.332 172.52 352.16C172.481 351.799 172.312 351.464 172.046 351.218C171.779 350.972 171.432 350.831 171.069 350.821H113.359C113.188 350.82 113.018 350.855 112.861 350.924C112.703 350.992 112.562 351.092 112.445 351.218C112.329 351.344 112.24 351.493 112.184 351.655C112.127 351.817 112.105 351.989 112.119 352.16C112.155 352.523 112.322 352.861 112.59 353.11C112.857 353.358 113.205 353.501 113.57 353.512Z" fill="#407BFF"/>
<path opacity="0.2" d="M109.18 332.456H142.115C142.387 332.46 142.658 332.405 142.908 332.296C143.158 332.188 143.382 332.028 143.566 331.826C143.75 331.625 143.889 331.387 143.975 331.128C144.06 330.869 144.09 330.595 144.062 330.324C144.004 329.748 143.738 329.213 143.313 328.82C142.888 328.427 142.334 328.203 141.755 328.191H108.821C108.547 328.186 108.275 328.239 108.024 328.347C107.772 328.455 107.546 328.615 107.361 328.816C107.176 329.018 107.036 329.256 106.95 329.516C106.863 329.776 106.833 330.051 106.862 330.324C106.919 330.902 107.187 331.438 107.615 331.831C108.042 332.225 108.6 332.447 109.18 332.456Z" fill="#263238"/>
<path opacity="0.2" d="M122.796 339.562H142.71C142.983 339.563 143.254 339.507 143.504 339.397C143.754 339.287 143.978 339.125 144.162 338.923C144.345 338.721 144.484 338.482 144.57 338.222C144.655 337.963 144.685 337.688 144.657 337.416C144.602 336.839 144.336 336.303 143.911 335.909C143.485 335.516 142.93 335.293 142.35 335.284H122.436C122.163 335.283 121.894 335.338 121.644 335.447C121.394 335.557 121.17 335.717 120.985 335.917C120.801 336.118 120.661 336.355 120.573 336.613C120.485 336.871 120.453 337.145 120.477 337.416C120.534 337.996 120.802 338.534 121.229 338.929C121.656 339.324 122.214 339.549 122.796 339.562Z" fill="#263238"/>
<path opacity="0.1" d="M-20.04 186.198H58.3156C62.9904 186.198 67.1196 189.732 67.4792 194.06L83.5992 386.384H-11.7196L-27.8396 194.06C-28.1992 189.72 -24.6652 186.198 -20.04 186.198Z" fill="#407BFF"/>
<path d="M-17.56 190.96H56.6788C58.3636 190.996 59.9773 191.646 61.217 192.788C62.4567 193.929 63.2372 195.484 63.412 197.16L67.132 241.676C67.2125 242.466 67.125 243.264 66.8752 244.018C66.6255 244.772 66.219 245.464 65.6827 246.049C65.1463 246.635 64.4922 247.1 63.7632 247.415C63.0341 247.73 62.2468 247.887 61.4528 247.876H-12.786C-14.4716 247.842 -16.0868 247.193 -17.327 246.051C-18.5673 244.909 -19.347 243.353 -19.5192 241.676L-23.2392 197.16C-23.3177 196.37 -23.2288 195.573 -22.9783 194.82C-22.7278 194.067 -22.3213 193.376 -21.7853 192.791C-21.2493 192.206 -20.596 191.74 -19.8679 191.425C-19.1399 191.109 -18.3534 190.951 -17.56 190.96Z" fill="white"/>
<path d="M-12.2032 254.609H62.0232C63.7088 254.643 65.324 255.292 66.5642 256.434C67.8045 257.576 68.5842 259.132 68.7564 260.809L72.4764 305.325C72.5551 306.116 72.4658 306.914 72.2146 307.668C71.9633 308.422 71.5557 309.114 71.0184 309.699C70.4811 310.284 69.8262 310.75 69.0966 311.064C68.3671 311.379 67.5793 311.536 66.7848 311.525H-7.454C-9.13883 311.489 -10.7525 310.839 -11.9922 309.698C-13.2319 308.556 -14.0124 307.001 -14.1872 305.325L-17.9072 260.809C-17.986 260.017 -17.8964 259.218 -17.6445 258.463C-17.3925 257.709 -16.9837 257.016 -16.4451 256.43C-15.9064 255.845 -15.25 255.38 -14.5189 255.066C-13.7879 254.752 -12.9987 254.597 -12.2032 254.609Z" fill="white"/>
<path d="M-6.85879 318.271H67.3676C69.054 318.302 70.6706 318.95 71.9115 320.092C73.1523 321.235 73.9312 322.793 74.1008 324.471L77.8208 368.987C77.8995 369.777 77.8102 370.576 77.559 371.329C77.3077 372.083 76.9001 372.775 76.3628 373.361C75.8255 373.946 75.1706 374.411 74.441 374.726C73.7115 375.041 72.9237 375.198 72.1292 375.187H-2.10961C-3.79444 375.151 -5.40812 374.501 -6.64782 373.359C-7.88753 372.218 -8.66802 370.663 -8.8428 368.987L-12.5628 324.471C-12.6436 323.679 -12.5555 322.878 -12.3042 322.123C-12.053 321.367 -11.6443 320.674 -11.1052 320.088C-10.5662 319.502 -9.90897 319.037 -9.17698 318.724C-8.44498 318.411 -7.65485 318.256 -6.85879 318.271Z" fill="white"/>
<path opacity="0.5" d="M42.828 215.958H55.9472C56.311 215.964 56.6719 215.892 57.0061 215.748C57.3403 215.604 57.6402 215.391 57.8861 215.123C58.1321 214.854 58.3185 214.537 58.4331 214.192C58.5477 213.847 58.588 213.481 58.5512 213.119L57.4476 199.987C57.3687 199.219 57.0106 198.508 56.4415 197.986C55.8723 197.465 55.1316 197.171 54.36 197.16H41.2284C40.8645 197.155 40.5037 197.226 40.1695 197.37C39.8353 197.514 39.5354 197.727 39.2895 197.996C39.0435 198.264 38.8571 198.581 38.7425 198.926C38.6279 199.272 38.5876 199.638 38.6244 200L39.728 213.131C39.8124 213.899 40.1737 214.61 40.7443 215.13C41.315 215.65 42.0558 215.945 42.828 215.958Z" fill="#407BFF"/>
<path opacity="0.25" d="M-13.2572 226.188H58.3032C58.4747 226.189 58.6445 226.154 58.8018 226.085C58.9591 226.017 59.1005 225.917 59.217 225.791C59.3336 225.665 59.4228 225.516 59.4789 225.354C59.535 225.192 59.5569 225.02 59.5432 224.849C59.5097 224.485 59.3433 224.146 59.0757 223.896C58.8081 223.647 58.4581 223.505 58.0924 223.498H-13.4804C-13.6531 223.497 -13.824 223.532 -13.9822 223.601C-14.1404 223.671 -14.2824 223.772 -14.3992 223.899C-14.5159 224.027 -14.6048 224.177 -14.6601 224.34C-14.7154 224.504 -14.7359 224.677 -14.7204 224.849C-14.6812 225.212 -14.511 225.549 -14.2417 225.795C-13.9723 226.042 -13.6223 226.181 -13.2572 226.188Z" fill="#407BFF"/>
<path opacity="0.25" d="M27.6008 226.188H58.3032C58.4747 226.189 58.6445 226.154 58.8018 226.085C58.9591 226.017 59.1005 225.917 59.217 225.791C59.3336 225.665 59.4228 225.516 59.4789 225.354C59.535 225.192 59.5569 225.02 59.5432 224.849C59.5097 224.485 59.3433 224.146 59.0757 223.896C58.8081 223.647 58.4581 223.505 58.0924 223.498H27.3776C27.2049 223.497 27.034 223.532 26.8758 223.601C26.7176 223.671 26.5756 223.772 26.4588 223.899C26.3421 224.027 26.2532 224.177 26.1979 224.34C26.1426 224.504 26.122 224.677 26.1376 224.849C26.1768 225.212 26.347 225.549 26.6163 225.795C26.8857 226.042 27.2357 226.181 27.6008 226.188Z" fill="#407BFF"/>
<path opacity="0.2" d="M-3.796 205.146H29.1384C29.4127 205.149 29.6845 205.094 29.9361 204.985C30.1878 204.875 30.4135 204.714 30.5984 204.512C30.7834 204.309 30.9235 204.07 31.0095 203.809C31.0955 203.549 31.1256 203.273 31.0976 203C31.0373 202.423 30.7684 201.888 30.3414 201.496C29.9145 201.103 29.3588 200.88 28.7788 200.868H-4.15561C-4.42827 200.864 -4.69854 200.919 -4.94866 201.027C-5.19878 201.136 -5.42309 201.296 -5.60692 201.498C-5.79075 201.699 -5.92996 201.937 -6.01535 202.196C-6.10074 202.455 -6.13041 202.729 -6.10242 203C-6.04523 203.578 -5.77933 204.114 -5.35467 204.509C-4.93 204.904 -4.37576 205.13 -3.796 205.146Z" fill="#263238"/>
<path opacity="0.2" d="M9.8192 212.238H29.7336C30.0068 212.241 30.2774 212.187 30.5281 212.078C30.7788 211.97 31.0039 211.81 31.1887 211.609C31.3734 211.408 31.5138 211.17 31.6007 210.911C31.6875 210.652 31.7189 210.378 31.6928 210.106C31.6354 209.526 31.3677 208.988 30.9404 208.593C30.5132 208.198 29.9559 207.973 29.374 207.96H9.45963C9.18639 207.959 8.91587 208.015 8.66575 208.125C8.41562 208.235 8.19146 208.397 8.00783 208.599C7.8242 208.801 7.68522 209.04 7.59993 209.3C7.51464 209.559 7.48497 209.834 7.51282 210.106C7.57284 210.681 7.83997 211.214 8.26436 211.606C8.68874 211.999 9.24137 212.223 9.8192 212.238Z" fill="#263238"/>
<path opacity="0.5" d="M48.16 279.62H61.2916C61.6555 279.625 62.0163 279.554 62.3505 279.41C62.6847 279.266 62.9846 279.052 63.2305 278.784C63.4765 278.516 63.6629 278.199 63.7775 277.853C63.8921 277.508 63.9324 277.142 63.8956 276.78L62.792 263.649C62.7162 262.881 62.3612 262.168 61.7943 261.644C61.2275 261.121 60.4882 260.824 59.7168 260.809H46.5976C46.2332 260.802 45.8714 260.872 45.5362 261.016C45.2011 261.159 44.9004 261.372 44.654 261.641C44.4077 261.909 44.2214 262.227 44.1075 262.574C43.9936 262.92 43.9548 263.286 43.9936 263.649L45.0848 276.78C45.1658 277.546 45.5223 278.256 46.0881 278.779C46.6538 279.301 47.3902 279.6 48.16 279.62Z" fill="#407BFF"/>
<path opacity="0.25" d="M-7.9128 289.85H63.6476C63.8203 289.851 63.9912 289.815 64.1494 289.746C64.3076 289.677 64.4496 289.576 64.5663 289.448C64.6831 289.321 64.772 289.171 64.8273 289.007C64.8826 288.844 64.9031 288.67 64.8876 288.498C64.8484 288.135 64.6782 287.799 64.4089 287.553C64.1395 287.306 63.7895 287.166 63.4244 287.159H-8.13599C-8.30753 287.159 -8.4773 287.194 -8.6346 287.262C-8.79189 287.331 -8.9333 287.431 -9.04984 287.557C-9.16637 287.683 -9.25556 287.831 -9.3117 287.993C-9.36784 288.155 -9.38972 288.327 -9.37599 288.498C-9.33966 288.864 -9.17068 289.203 -8.90104 289.452C-8.6314 289.701 -8.27981 289.843 -7.9128 289.85Z" fill="#407BFF"/>
<path opacity="0.25" d="M59.8284 289.85H63.6476C63.8203 289.851 63.9912 289.815 64.1494 289.746C64.3076 289.677 64.4496 289.576 64.5663 289.448C64.6831 289.321 64.772 289.171 64.8273 289.007C64.8826 288.844 64.9031 288.67 64.8876 288.498C64.8484 288.135 64.6782 287.799 64.4089 287.553C64.1395 287.306 63.7895 287.166 63.4244 287.159H59.6052C59.4337 287.159 59.2639 287.194 59.1066 287.262C58.9493 287.331 58.8079 287.431 58.6914 287.557C58.5748 287.683 58.4856 287.831 58.4295 287.993C58.3734 288.155 58.3515 288.327 58.3652 288.498C58.4015 288.864 58.5705 289.203 58.8402 289.452C59.1098 289.701 59.4614 289.843 59.8284 289.85Z" fill="#407BFF"/>
<path opacity="0.2" d="M1.54839 268.807H34.52C34.7943 268.81 35.0661 268.756 35.3177 268.646C35.5693 268.537 35.795 268.376 35.98 268.173C36.165 267.971 36.3051 267.731 36.3911 267.471C36.4772 267.211 36.5071 266.935 36.4792 266.662C36.4189 266.085 36.15 265.55 35.723 265.157C35.296 264.764 34.7404 264.541 34.1604 264.529H1.22598C0.953312 264.526 0.683083 264.58 0.432961 264.689C0.182842 264.798 -0.0415039 264.958 -0.225334 265.159C-0.409164 265.361 -0.548332 265.599 -0.633724 265.858C-0.719112 266.117 -0.748821 266.391 -0.720837 266.662C-0.664566 267.233 -0.40398 267.764 0.0129547 268.159C0.42989 268.553 0.975143 268.783 1.54839 268.807Z" fill="#263238"/>
<path opacity="0.2" d="M15.1636 275.9H35.078C35.3512 275.903 35.6218 275.848 35.8725 275.74C36.1232 275.631 36.3483 275.471 36.533 275.27C36.7178 275.069 36.8582 274.831 36.9451 274.572C37.0319 274.313 37.0633 274.039 37.0372 273.767C36.9797 273.188 36.7121 272.65 36.2848 272.255C35.8576 271.859 35.3003 271.634 34.7184 271.622H14.8164C14.5421 271.619 14.2703 271.674 14.0187 271.783C13.767 271.892 13.5413 272.053 13.3563 272.256C13.1714 272.458 13.0313 272.698 12.9453 272.958C12.8592 273.219 12.8292 273.494 12.8572 273.767C12.9172 274.342 13.1844 274.876 13.6087 275.268C14.0331 275.66 14.5858 275.885 15.1636 275.9Z" fill="#263238"/>
<path opacity="0.5" d="M53.5168 343.282H66.636C67.0004 343.285 67.3615 343.212 67.6957 343.066C68.0299 342.921 68.3296 342.707 68.5754 342.438C68.8211 342.168 69.0073 341.85 69.1219 341.504C69.2364 341.158 69.2766 340.792 69.24 340.43L68.1364 327.31C68.0606 326.543 67.7056 325.829 67.1387 325.306C66.5719 324.782 65.8326 324.485 65.0612 324.471H51.88C51.5161 324.465 51.1553 324.537 50.8211 324.681C50.4869 324.825 50.187 325.038 49.9411 325.306C49.6951 325.575 49.5087 325.892 49.3941 326.237C49.2795 326.583 49.2392 326.948 49.276 327.31L50.3796 340.43C50.4564 341.209 50.8198 341.932 51.3994 342.459C51.979 342.986 52.7335 343.279 53.5168 343.282Z" fill="#407BFF"/>
<path opacity="0.5" d="M-2.56841 353.512H68.992C69.1647 353.512 69.3356 353.477 69.4938 353.408C69.652 353.339 69.794 353.237 69.9108 353.11C70.0275 352.983 70.1164 352.832 70.1717 352.669C70.227 352.505 70.2475 352.332 70.232 352.16C70.1928 351.797 70.0226 351.461 69.7533 351.214C69.4839 350.968 69.1339 350.828 68.7688 350.821H-2.7916C-2.96313 350.82 -3.13291 350.855 -3.29021 350.924C-3.4475 350.992 -3.58891 351.092 -3.70544 351.218C-3.82198 351.344 -3.91113 351.493 -3.96727 351.655C-4.02341 351.817 -4.04533 351.989 -4.0316 352.16C-3.99527 352.525 -3.82629 352.865 -3.55665 353.114C-3.28701 353.363 -2.93542 353.504 -2.56841 353.512Z" fill="#407BFF"/>
<path opacity="0.2" d="M6.89278 332.456H39.8272C40.1009 332.461 40.3725 332.408 40.6241 332.3C40.8757 332.193 41.1016 332.033 41.2868 331.831C41.472 331.629 41.6123 331.391 41.6984 331.131C41.7845 330.871 41.8145 330.596 41.7864 330.324C41.7287 329.746 41.4606 329.209 41.033 328.816C40.6055 328.422 40.0484 328.2 39.4676 328.191H6.54559C6.27189 328.186 6.00025 328.239 5.74864 328.347C5.49702 328.455 5.27118 328.615 5.08599 328.816C4.9008 329.018 4.76051 329.256 4.67439 329.516C4.58826 329.776 4.55824 330.051 4.58636 330.324C4.64381 330.9 4.91017 331.434 5.3351 331.827C5.76003 332.22 6.31414 332.444 6.89278 332.456Z" fill="#263238"/>
<path opacity="0.2" d="M20.5204 339.562H40.4224C40.6967 339.565 40.9685 339.51 41.2201 339.401C41.4718 339.291 41.6975 339.13 41.8825 338.928C42.0674 338.725 42.2075 338.486 42.2935 338.225C42.3796 337.965 42.4096 337.689 42.3816 337.416C42.3213 336.839 42.0524 336.304 41.6254 335.912C41.1985 335.519 40.6428 335.296 40.0628 335.284H20.1608C19.8877 335.281 19.617 335.335 19.3663 335.444C19.1156 335.552 18.8905 335.712 18.7058 335.913C18.521 336.114 18.3806 336.352 18.2937 336.611C18.2069 336.87 18.1755 337.144 18.2016 337.416C18.2591 337.996 18.5267 338.534 18.954 338.929C19.3812 339.324 19.9385 339.549 20.5204 339.562Z" fill="#263238"/>
<path d="M25.6788 359.712H-0.200006C-0.605116 359.706 -1.00683 359.786 -1.37882 359.947C-1.75081 360.107 -2.08469 360.345 -2.35862 360.643C-2.63254 360.942 -2.84032 361.295 -2.96836 361.679C-3.0964 362.063 -3.1418 362.47 -3.1016 362.874L-2.71721 367.499C-2.62697 368.353 -2.22849 369.146 -1.59629 369.728C-0.964092 370.31 -0.141497 370.641 0.717583 370.661H26.5964C27.0015 370.666 27.4032 370.586 27.7752 370.426C28.1472 370.265 28.4811 370.028 28.755 369.729C29.0289 369.431 29.2367 369.078 29.3648 368.693C29.4928 368.309 29.5382 367.902 29.498 367.499L29.1136 362.874C29.0234 362.019 28.6249 361.227 27.9927 360.645C27.3605 360.063 26.5379 359.731 25.6788 359.712Z" fill="#407BFF"/>
<path d="M23.6452 366.631H25.158L25.4308 367.338H26.7948L24.7984 363.035H23.36L22.12 367.338H23.5088L23.6452 366.631ZM23.8436 365.701L24.1908 364.151L24.7984 365.701H23.8436Z" fill="white"/>
<path d="M18.7596 365.577L17.6312 365.924C17.7172 366.228 17.8649 366.511 18.0652 366.755C18.2486 366.968 18.4774 367.138 18.7348 367.251C19.0471 367.37 19.3804 367.425 19.7144 367.412C20.1005 367.428 20.4855 367.361 20.8428 367.214C21.1477 367.054 21.3949 366.802 21.5496 366.494C21.7567 366.003 21.8189 365.463 21.7288 364.938C21.6387 364.413 21.4001 363.925 21.0412 363.531C20.5829 363.131 19.9867 362.927 19.3796 362.96C18.9431 362.939 18.5105 363.052 18.1396 363.283C17.8304 363.543 17.6202 363.902 17.5444 364.3L18.7844 364.56C18.8085 364.46 18.846 364.364 18.896 364.275C18.956 364.175 19.0417 364.094 19.144 364.039C19.2534 363.977 19.378 363.947 19.5036 363.952C19.6438 363.949 19.7827 363.98 19.9081 364.042C20.0335 364.105 20.1416 364.198 20.2228 364.312C20.3823 364.57 20.4721 364.865 20.4832 365.168C20.5488 365.5 20.5008 365.845 20.3468 366.147C20.2796 366.237 20.1913 366.309 20.0896 366.357C19.9879 366.404 19.8761 366.426 19.764 366.42C19.6546 366.427 19.5449 366.411 19.4423 366.373C19.3396 366.334 19.2464 366.274 19.1688 366.197C18.9791 366.031 18.8378 365.817 18.7596 365.577Z" fill="white"/>
<path d="M14.0848 365.577L12.944 365.924C13.0343 366.229 13.1863 366.511 13.3904 366.755C13.5738 366.968 13.8026 367.137 14.06 367.251C14.3685 367.368 14.6973 367.423 15.0272 367.412C15.4134 367.43 15.7986 367.362 16.1556 367.214C16.4605 367.054 16.7077 366.802 16.8624 366.494C17.0611 366.087 17.1344 365.629 17.0732 365.18C17.0517 364.561 16.7996 363.973 16.3664 363.531C15.9068 363.134 15.3115 362.929 14.7048 362.96C14.2679 362.936 13.8343 363.048 13.4648 363.283C13.1477 363.539 12.9322 363.899 12.8572 364.3L14.0972 364.56C14.1126 364.46 14.1462 364.363 14.1964 364.275C14.2563 364.175 14.342 364.094 14.4444 364.039C14.5544 363.979 14.6786 363.949 14.804 363.952C14.9458 363.95 15.086 363.981 15.2132 364.044C15.3405 364.106 15.451 364.198 15.5356 364.312C15.6908 364.571 15.7762 364.866 15.7836 365.168C15.8492 365.5 15.8012 365.845 15.6472 366.147C15.58 366.237 15.4917 366.309 15.39 366.357C15.2883 366.404 15.1765 366.426 15.0644 366.42C14.955 366.427 14.8453 366.411 14.7427 366.373C14.64 366.334 14.5468 366.274 14.4692 366.197C14.2818 366.033 14.1479 365.817 14.0848 365.577Z" fill="white"/>
<path d="M12.0512 363.035H8.48L8.5544 363.952H10.7988V364.634H8.72801L8.80241 365.515H10.96L11.0344 366.37H8.74039L8.8272 367.338H12.4604L12.0512 363.035Z" fill="white"/>
<path d="M7.69879 363.035H5.49159C5.30251 363.018 5.11202 363.039 4.93112 363.097C4.75022 363.154 4.58249 363.247 4.43759 363.37C4.32546 363.504 4.24318 363.661 4.19616 363.83C4.14913 363.999 4.13844 364.176 4.16479 364.349C4.18275 364.74 4.35166 365.109 4.63599 365.378C4.99457 365.64 5.43333 365.767 5.87599 365.738H6.59521L6.73159 367.338H8.07082L7.69879 363.035ZM6.52082 364.87H6.1984C6.0026 364.885 5.807 364.838 5.64039 364.734C5.58555 364.693 5.54042 364.641 5.50825 364.581C5.47607 364.521 5.45768 364.454 5.4544 364.386C5.44684 364.326 5.45295 364.264 5.47226 364.206C5.49157 364.148 5.52359 364.095 5.56599 364.052C5.63389 363.994 5.71305 363.951 5.79842 363.925C5.88379 363.9 5.97351 363.892 6.06198 363.903H6.44638L6.52082 364.87Z" fill="white"/>
<path d="M3.65638 363.035H-0.398401L-0.311592 364.101H1.04L1.32522 367.338H2.65199L2.36681 364.101H3.73082L3.65638 363.035Z" fill="white"/>
<path d="M234.234 179.329C234.11 186.769 233.714 199.838 237.632 204.426C228.629 207.37 220.553 212.62 214.208 219.654C208.839 210.874 215.833 206.162 215.833 206.162C223.57 203.682 222.033 198.822 220.433 193.465L234.234 179.329Z" fill="#B55B52"/>
<path d="M240.98 217.781L245.543 226.56L250.044 235.352C251.508 238.291 252.946 241.217 254.273 244.106C254.93 245.557 255.513 246.996 256.083 248.384C256.577 249.562 256.992 250.772 257.323 252.005V250.034C257.167 251.822 256.839 253.591 256.344 255.316C255.8 257.229 255.145 259.108 254.384 260.946C253.616 262.843 252.735 264.74 251.793 266.637C250.85 268.534 249.796 270.481 248.854 272.254L248.718 272.49C248.312 273.237 248.18 274.102 248.344 274.936C248.509 275.77 248.959 276.52 249.618 277.057C250.277 277.594 251.103 277.883 251.953 277.876C252.803 277.869 253.623 277.564 254.273 277.016C256.134 275.459 257.875 273.764 259.481 271.944C261.081 270.135 262.563 268.226 263.92 266.228C265.336 264.151 266.58 261.961 267.64 259.681C268.796 257.24 269.662 254.673 270.219 252.03C270.312 251.497 270.312 250.951 270.219 250.418V250.058C269.945 247.991 269.497 245.95 268.88 243.958C268.334 242.16 267.714 240.473 267.082 238.799C265.842 235.476 264.466 232.289 263.04 229.152C261.614 226.015 260.126 222.952 258.588 219.864C257.05 216.777 255.463 213.813 253.727 210.788C252.769 209.163 251.218 207.974 249.4 207.47C247.583 206.967 245.641 207.189 243.983 208.089C242.326 208.989 241.083 210.498 240.516 212.296C239.949 214.095 240.102 216.044 240.943 217.732L240.98 217.781Z" fill="#B55B52"/>
<path d="M244.427 274.858L246.114 273.792L250.9 270.717L254.31 275.801C253.07 280.761 248.11 283.129 248.11 283.129L246.213 283.563C245.556 283.732 244.859 283.644 244.264 283.317C243.67 282.989 243.223 282.448 243.014 281.802L242.468 280.339C242.157 279.337 242.18 278.26 242.534 277.272C242.887 276.284 243.551 275.437 244.427 274.858Z" fill="#B55B52"/>
<path d="M149.183 253.072L126.726 240.163C126.377 239.957 125.987 239.827 125.584 239.782C125.18 239.737 124.772 239.778 124.386 239.902C123.999 240.027 123.643 240.231 123.341 240.503C123.04 240.774 122.799 241.106 122.634 241.478L120.688 245.681C120.334 246.468 120.281 247.357 120.54 248.18C120.798 249.002 121.349 249.702 122.089 250.145L144.545 263.041C144.89 263.25 145.275 263.383 145.675 263.433C146.075 263.484 146.481 263.449 146.867 263.332C147.253 263.215 147.61 263.019 147.915 262.755C148.22 262.491 148.466 262.166 148.637 261.801L150.584 257.598C150.955 256.804 151.017 255.901 150.758 255.064C150.499 254.227 149.937 253.517 149.183 253.072Z" fill="#407BFF"/>
<path d="M143.975 258.056L145.289 258.813L145.178 259.569L146.356 260.251L146.777 255.514L145.537 254.795L142.313 257.908L143.553 258.602L143.975 258.056ZM144.62 257.35L145.686 256.184L145.438 257.821L144.62 257.35Z" fill="white"/>
<path d="M140.267 254.721L139.102 254.46C139.046 254.768 139.046 255.083 139.102 255.39C139.159 255.663 139.273 255.921 139.436 256.147C139.644 256.406 139.901 256.621 140.193 256.779C140.523 256.987 140.896 257.118 141.284 257.164C141.628 257.182 141.968 257.086 142.251 256.891C142.626 256.64 142.915 256.281 143.082 255.862C143.373 255.314 143.448 254.677 143.293 254.076C143.083 253.508 142.673 253.036 142.14 252.749C141.774 252.505 141.338 252.387 140.9 252.414C140.502 252.482 140.139 252.683 139.87 252.985L140.776 253.816C140.846 253.74 140.925 253.674 141.011 253.617C141.112 253.558 141.229 253.532 141.346 253.543C141.468 253.545 141.588 253.579 141.693 253.642C141.821 253.707 141.931 253.804 142.011 253.923C142.092 254.043 142.14 254.181 142.152 254.324C142.158 254.623 142.085 254.918 141.941 255.18C141.835 255.502 141.626 255.781 141.346 255.973C141.241 256.015 141.128 256.031 141.016 256.02C140.904 256.01 140.796 255.972 140.701 255.911C140.507 255.809 140.36 255.636 140.292 255.428C140.222 255.198 140.214 254.955 140.267 254.721Z" fill="white"/>
<path d="M136.2 252.377L135.034 252.117C134.967 252.423 134.967 252.74 135.034 253.047C135.081 253.327 135.196 253.591 135.369 253.816C135.576 254.075 135.834 254.29 136.126 254.448C136.452 254.655 136.821 254.786 137.204 254.832C137.548 254.85 137.888 254.755 138.172 254.56C138.553 254.308 138.848 253.944 139.015 253.518C139.306 252.974 139.377 252.339 139.213 251.745C139.018 251.168 138.604 250.692 138.06 250.418C137.695 250.173 137.259 250.055 136.82 250.083C136.421 250.148 136.057 250.349 135.791 250.654L136.708 251.484C136.77 251.4 136.851 251.332 136.944 251.286C137.044 251.224 137.162 251.198 137.279 251.212C137.401 251.216 137.52 251.25 137.626 251.311C137.751 251.378 137.858 251.476 137.936 251.595C138.014 251.714 138.061 251.851 138.072 251.993C138.063 252.309 137.987 252.62 137.848 252.905C137.709 253.189 137.511 253.44 137.266 253.642C137.162 253.683 137.049 253.698 136.937 253.688C136.825 253.677 136.717 253.64 136.622 253.58C136.428 253.478 136.281 253.305 136.212 253.096C136.147 252.862 136.143 252.614 136.2 252.377Z" fill="white"/>
<path d="M135.716 249.166L132.616 247.38L132.232 248.223L134.166 249.339L133.881 249.959L132.083 248.93L131.711 249.724L133.509 250.753L133.15 251.534L131.153 250.381L130.744 251.274L133.894 253.084L135.716 249.166Z" fill="white"/>
<path d="M131.947 246.996L130.025 245.892C129.869 245.785 129.693 245.71 129.508 245.672C129.323 245.634 129.132 245.633 128.946 245.669C128.779 245.724 128.626 245.816 128.499 245.938C128.372 246.061 128.275 246.21 128.214 246.376C128.125 246.548 128.071 246.737 128.056 246.931C128.041 247.125 128.066 247.32 128.128 247.504C128.296 247.912 128.61 248.244 129.008 248.434L129.64 248.794L128.958 250.257L130.124 250.926L131.947 246.996ZM130 248L129.715 247.839C129.54 247.759 129.396 247.624 129.306 247.454C129.278 247.392 129.264 247.324 129.264 247.256C129.264 247.188 129.278 247.12 129.306 247.058C129.359 246.946 129.452 246.858 129.566 246.81C129.655 246.796 129.745 246.8 129.833 246.821C129.92 246.842 130.002 246.88 130.074 246.934L130.397 247.132L130 248Z" fill="white"/>
<path d="M128.438 244.974L124.916 242.966L124.47 243.933L125.71 244.602L124.333 247.566L125.486 248.223L126.863 245.272L128.103 245.942L128.438 244.974Z" fill="white"/>
<path d="M156.4 255.105L160.12 256.792C160.849 257.115 161.421 257.713 161.711 258.457C162.002 259.2 161.987 260.027 161.67 260.76L160.343 263.872C160.176 264.245 159.925 264.574 159.608 264.832C159.292 265.091 158.919 265.272 158.52 265.36C155.346 266.017 150.77 264.194 147.484 262.545C146.946 262.282 146.471 261.908 146.089 261.447C145.707 260.987 145.428 260.45 145.269 259.873C145.111 259.296 145.077 258.692 145.17 258.1C145.264 257.509 145.482 256.945 145.81 256.444L147.248 254.237C147.859 253.32 148.803 252.678 149.879 252.446C150.956 252.214 152.081 252.412 153.014 252.997L156.4 255.105Z" fill="#B55B52"/>
<path d="M247.366 205.022C253.888 207.911 259.853 214.793 264.726 227.515C263.151 232.76 247.031 241.366 247.031 241.366C247.031 241.366 226.918 198.698 247.366 205.022Z" fill="#263238"/>
<path d="M193.525 221.315C193.587 226.052 185.763 237.001 194.765 243.35C195.546 252.91 196.613 262.322 198.659 278.008H246.82C242.245 260.648 246.2 248.98 253.541 218.488C253.958 216.848 254.016 215.137 253.711 213.473C253.407 211.808 252.746 210.229 251.775 208.844C250.803 207.458 249.544 206.298 248.084 205.444C246.623 204.589 244.995 204.061 243.311 203.893C241.402 203.695 239.368 203.534 237.285 203.434C230.007 202.919 222.702 202.919 215.424 203.434C213.055 203.658 210.612 203.955 208.269 204.278C204.171 204.866 200.424 206.913 197.716 210.043C195.007 213.173 193.519 217.176 193.525 221.315Z" fill="#263238"/>
<path d="M215.238 201.934C226.336 199.107 250.106 199.454 254.434 202.79C258.762 206.125 249.66 211.829 249.139 212.288C252.276 214.036 249.139 223.088 236.107 225.581C223.074 228.073 220.198 211.941 216.428 208.556C214.506 206.832 213.452 204.166 215.238 201.934Z" fill="#407BFF"/>
<path opacity="0.2" d="M247.366 211.904C240.844 212.796 226.906 209.696 222.157 208.246C228.233 211.494 243.77 217.409 247.366 211.904Z" fill="black"/>
<path d="M195.013 215.574C194.344 218.885 193.686 222.357 192.942 225.73C192.198 229.102 191.479 232.512 190.698 235.848C189.917 239.184 189.049 242.494 188.106 245.669C187.635 247.256 187.102 248.806 186.581 250.257C186.113 251.573 185.549 252.854 184.895 254.088L187.375 251.844C187.375 251.844 187.288 251.844 187.251 251.918C187.214 251.993 186.904 252.055 186.73 252.142L185.155 252.613C184.002 252.935 182.675 253.208 181.435 253.468C178.831 253.964 176.116 254.448 173.388 254.87L165.117 256.172C162.364 256.643 159.562 257.052 156.809 257.548C155.952 257.704 155.178 258.161 154.629 258.837C154.08 259.514 153.792 260.364 153.816 261.235C153.84 262.106 154.175 262.94 154.76 263.585C155.346 264.23 156.143 264.644 157.007 264.752C159.896 265.112 162.736 265.298 165.613 265.509C168.49 265.72 171.354 265.769 174.293 265.794C177.232 265.819 180.096 265.794 183.084 265.558C184.585 265.447 186.098 265.323 187.71 265.087C188.528 264.976 189.359 264.827 190.276 264.616C190.76 264.48 191.182 264.393 191.764 264.194C192.054 264.11 192.34 264.01 192.62 263.897L193.637 263.438C194.518 263.025 195.271 262.382 195.819 261.578L196.067 261.194C197.25 259.384 198.291 257.485 199.18 255.514C200.023 253.692 200.705 251.894 201.374 250.12C202.689 246.549 203.78 243.015 204.76 239.469C205.739 235.922 206.607 232.388 207.401 228.842C208.194 225.296 208.889 221.774 209.459 218.079C209.76 216.198 209.312 214.274 208.21 212.72C207.109 211.166 205.442 210.105 203.568 209.766C201.694 209.427 199.761 209.836 198.185 210.906C196.609 211.975 195.514 213.62 195.137 215.487L195.013 215.574Z" fill="#B55B52"/>
<path d="M204.164 205.369C198.225 208.32 192.335 214.049 189.892 227.168C191.43 232.364 212.658 242.37 212.658 242.37C212.658 242.37 224.476 197.78 204.164 205.369Z" fill="#263238"/>
<path d="M205.008 173.6C205.119 174.542 204.71 175.386 204.09 175.472C203.47 175.559 202.85 174.89 202.751 173.947C202.652 173.005 203.048 172.162 203.668 172.062C204.288 171.963 204.884 172.658 205.008 173.6Z" fill="#263238"/>
<path d="M203.941 172.075L201.585 171.777C201.585 171.777 202.974 173.364 203.941 172.075Z" fill="#263238"/>
<path d="M204.735 174.629C204.156 176.92 203.272 179.122 202.106 181.176C202.641 181.444 203.227 181.591 203.825 181.609C204.422 181.626 205.016 181.512 205.566 181.276L204.735 174.629Z" fill="#A02724"/>
<path d="M202.8 167.102C202.66 167.1 202.526 167.042 202.428 166.941C202.325 166.835 202.268 166.693 202.268 166.544C202.268 166.396 202.325 166.254 202.428 166.148C203.066 165.5 203.848 165.014 204.711 164.73C205.573 164.445 206.491 164.37 207.388 164.511C207.46 164.527 207.527 164.557 207.587 164.6C207.646 164.642 207.697 164.696 207.735 164.759C207.773 164.821 207.798 164.891 207.809 164.963C207.82 165.036 207.816 165.11 207.798 165.18C207.762 165.326 207.671 165.452 207.543 165.531C207.415 165.61 207.262 165.636 207.116 165.602C206.409 165.508 205.691 165.581 205.017 165.813C204.343 166.046 203.733 166.432 203.234 166.941C203.178 166.998 203.11 167.042 203.035 167.07C202.96 167.098 202.88 167.109 202.8 167.102Z" fill="#263238"/>
<path d="M236.032 165.627C236.789 177.32 237.347 182.243 232.312 189.1C224.736 199.392 210.389 198.152 206.272 187.004C202.552 176.973 201.92 159.538 212.547 153.177C214.833 151.764 217.449 150.973 220.135 150.884C222.821 150.795 225.484 151.411 227.858 152.67C230.233 153.928 232.237 155.787 233.671 158.06C235.105 160.333 235.919 162.942 236.032 165.627Z" fill="#B55B52"/>
<path d="M213.08 176.179C205.119 173.079 206.173 164.201 210.302 160.679C202.23 163.99 196.662 161.411 202.763 152.619C208.864 143.828 242.245 141.98 237.632 155.62C252.512 150.834 248.147 170.636 247.366 183.619C258.129 194.469 231.345 203.881 214.407 198.4C197.468 192.919 213.08 176.179 213.08 176.179Z" fill="#263238"/>
<path d="M216.13 174.542C215.2 177.518 214.89 178.796 213.08 180.222C210.377 182.367 207.215 181.214 207.302 178.176C207.376 175.435 208.876 171.033 211.914 170.054C214.952 169.074 217.06 171.566 216.13 174.542Z" fill="#B55B52"/>
<path d="M198.671 278.008C198.671 278.008 196.972 340.169 194.703 381.077C192.298 418.599 189.21 506.379 189.21 506.379L198.684 506.875C198.684 506.875 219.677 433.02 218.784 388.393C243.423 325.971 234.569 279.88 234.569 279.88L198.671 278.008Z" fill="#B55B52"/>
<path d="M189.917 502.46C189.706 502.308 189.452 502.226 189.191 502.226C188.931 502.226 188.677 502.308 188.466 502.46C183.915 505.852 178.394 507.691 172.718 507.706C166.419 507.978 167.981 511.426 176.996 512.566C187.586 513.893 189.867 516.063 193.29 516.931C196.712 517.799 199.49 515.183 199.366 507.991C199.359 507.744 199.279 507.504 199.135 507.303C198.991 507.102 198.791 506.949 198.56 506.862C195.519 505.732 192.619 504.255 189.917 502.46Z" fill="#263238"/>
<path d="M211.257 278.008C211.257 278.008 228.617 351.577 238.674 385.814C249.251 421.774 257.621 503.837 257.571 506.565H265.768C265.768 506.565 276.37 440.051 263.288 385.789C262.048 297.749 246.87 278.008 246.87 278.008H211.257Z" fill="#B55B52"/>
<path d="M257.348 503.589C257.134 503.498 256.895 503.482 256.67 503.542C256.445 503.603 256.248 503.737 256.108 503.924C253.988 506.664 252.388 509.714 246.188 512.393C241.017 514.612 243.869 517.638 251.991 516.522C261.527 515.22 261.651 516.77 264.875 516.77C268.099 516.77 269.599 513.571 267.256 506.614C267.179 506.384 267.042 506.178 266.859 506.019C266.676 505.86 266.453 505.753 266.214 505.709C263.183 505.367 260.206 504.655 257.348 503.589Z" fill="#263238"/>
<path d="M266.264 368.974C267.231 378.064 269.016 397.767 269.016 397.767C269.016 397.767 240.496 403.62 190.5 400.681C190.76 394.68 190.81 386 190.81 386L266.264 368.974Z" fill="#263238"/>
<path d="M198.671 277.76C191.741 317.821 188.573 358.443 189.21 399.094C216.262 398.856 243.238 396.179 269.81 391.096C269.81 391.096 268.347 305.958 246.82 277.772C234.383 274.834 198.956 276.805 198.671 277.76Z" fill="#407BFF"/>
<path opacity="0.2" d="M248.842 311.649C234.371 322.611 223.397 324.682 223.397 324.682C223.397 324.682 235.239 328.873 248.842 311.649Z" fill="black"/>
</svg>
