<svg width="620" height="620" viewBox="0 0 620 620" fill="none" xmlns="http://www.w3.org/2000/svg">
<path d="M0 474.176H620V474.486H0V474.176Z" fill="#EBEBEB"/>
<path d="M62.124 494.128H103.193V494.438H62.124V494.128Z" fill="#EBEBEB"/>
<path d="M209.287 497.5H220.063V497.81H209.287V497.5Z" fill="#EBEBEB"/>
<path d="M104.433 482.62H128.228V482.93H104.433V482.62Z" fill="#EBEBEB"/>
<path d="M501.394 484.704H554.95V485.014H501.394V484.704Z" fill="#EBEBEB"/>
<path d="M482.496 484.704H490.346V485.014H482.496V484.704Z" fill="#EBEBEB"/>
<path d="M340.814 489.936H456.977V490.246H340.814V489.936Z" fill="#EBEBEB"/>
<path d="M326.12 418.872H565.552C567.427 418.869 569.225 418.121 570.55 416.794C571.875 415.466 572.62 413.667 572.62 411.792V75.2184C572.603 73.3535 571.852 71.5703 570.528 70.2562C569.205 68.9421 567.417 68.2032 565.552 68.2H326.12C324.242 68.2 322.441 68.946 321.113 70.2738C319.786 71.6016 319.04 73.4026 319.04 75.2804V411.792C319.04 413.669 319.786 415.47 321.113 416.798C322.441 418.126 324.242 418.872 326.12 418.872ZM565.552 68.448C567.345 68.4513 569.064 69.1661 570.331 70.4354C571.598 71.7047 572.31 73.4249 572.31 75.2184V411.792C572.31 413.585 571.598 415.305 570.331 416.575C569.064 417.844 567.345 418.559 565.552 418.562H326.12C324.325 418.559 322.605 417.844 321.336 416.575C320.067 415.306 319.353 413.586 319.35 411.792V75.2184C319.353 73.4238 320.067 71.7036 321.336 70.4346C322.605 69.1657 324.325 68.4513 326.12 68.448H565.552Z" fill="#EBEBEB"/>
<path d="M57.8956 418.872H297.34C299.216 418.869 301.015 418.122 302.343 416.795C303.67 415.467 304.417 413.668 304.42 411.792V75.2184C304.4 73.3524 303.646 71.5692 302.321 70.2554C300.995 68.9417 299.206 68.2032 297.34 68.2H57.8956C56.0328 68.2065 54.2475 68.9468 52.9268 70.2606C51.6061 71.5743 50.8563 73.3556 50.84 75.2184V411.792C50.84 413.665 51.5826 415.462 52.905 416.789C54.2275 418.117 56.0221 418.865 57.8956 418.872ZM297.34 68.448C299.134 68.4513 300.854 69.1657 302.123 70.4346C303.392 71.7036 304.107 73.4238 304.11 75.2184V411.792C304.107 413.586 303.392 415.306 302.123 416.575C300.854 417.844 299.134 418.559 297.34 418.562H57.8956C56.101 418.559 54.3808 417.844 53.1118 416.575C51.8429 415.306 51.1285 413.586 51.1252 411.792V75.2184C51.1285 73.4238 51.8429 71.7036 53.1118 70.4346C54.3808 69.1657 56.101 68.4513 57.8956 68.448H297.34Z" fill="#EBEBEB"/>
<path d="M285.845 474.176H74.3876L59.3836 103.143H270.841L285.845 474.176Z" fill="#E6E6E6"/>
<path d="M291.016 474.176H79.5584L64.5544 103.143H276.012L291.016 474.176Z" fill="#F0F0F0"/>
<path d="M89.6892 463.624L75.5284 113.696H265.881L280.029 463.624H89.6892Z" fill="#FAFAFA"/>
<path d="M491.796 175.162L480.736 202.442C481.058 281.319 477.487 285.87 477.462 299.435H505.387C506.391 233.405 496.608 248.248 491.796 175.162Z" fill="#EBEBEB"/>
<path d="M476.16 255.713C498.691 193.812 550.448 212.982 548.08 235.6C545.712 258.218 463.276 291.313 476.16 255.713Z" fill="#EBEBEB"/>
<path d="M484.704 291.4C496.98 251.509 529.592 258.019 529.592 276.346C529.592 294.674 477.648 314.352 484.704 291.4Z" fill="#EBEBEB"/>
<path d="M485.584 219.406C504.841 166.086 552.804 173.414 548.936 195.92C545.067 218.426 474.511 250.071 485.584 219.406Z" fill="#EBEBEB"/>
<path d="M485.448 195.486C483.662 159.154 519.647 144.2 517.154 165.912C514.662 187.624 486.477 216.38 485.448 195.486Z" fill="#EBEBEB"/>
<path d="M488.138 232.686C480.537 187.922 434.434 170.884 439.58 196.23C444.726 221.576 492.503 258.428 488.138 232.686Z" fill="#EBEBEB"/>
<path d="M492.02 207.378C500.972 160.431 459.556 139.574 458.366 162.204C457.176 184.834 486.874 234.36 492.02 207.378Z" fill="#EBEBEB"/>
<path d="M495.616 260.4C477.313 215.165 438.129 226.387 442.085 246.971C446.04 267.555 506.143 286.44 495.616 260.4Z" fill="#EBEBEB"/>
<path d="M486.576 291.995C486.985 262.806 460.536 255.266 460.189 272.155C459.842 289.044 486.353 308.76 486.576 291.995Z" fill="#EBEBEB"/>
<path d="M494.673 327.36C501.626 327.381 508.377 325.023 513.806 320.679C519.235 316.335 523.015 310.266 524.52 303.478C525.243 299.839 526.285 296.27 527.632 292.814L527.868 292.256H461.503L461.739 292.814C463.087 296.27 464.128 299.839 464.851 303.478C466.353 310.263 470.129 316.33 475.553 320.674C480.978 325.018 487.724 327.377 494.673 327.36Z" fill="#E0E0E0"/>
<path d="M558.744 474.164H529.294V327.31H558.744V474.164Z" fill="#E6E6E6"/>
<path d="M549.903 474.176H558.732V456.481H540.652L549.903 474.176Z" fill="#F0F0F0"/>
<path d="M356.872 474.164H327.422V327.31H356.872V474.164Z" fill="#E6E6E6"/>
<path d="M558.744 468.274H349.184V327.31H558.744V468.274Z" fill="#F0F0F0"/>
<path d="M358 474.176H349.172V456.481H367.263L358 474.176Z" fill="#F0F0F0"/>
<path d="M551.887 393.638H356.029V337.23H551.887V393.638Z" fill="#E6E6E6"/>
<path d="M498.988 354.764H414.867C406.249 354.764 398.015 347.808 392.088 335.519H521.755C515.84 347.808 507.594 354.764 498.988 354.764Z" fill="#F0F0F0"/>
<path d="M551.887 459.172H356.029V402.764H551.887V459.172Z" fill="#E6E6E6"/>
<path d="M498.988 420.286H414.867C406.249 420.286 398.015 413.329 392.088 401.041H521.755C515.84 413.329 507.594 420.286 498.988 420.286Z" fill="#F0F0F0"/>
<path d="M310 530.174C177.218 530.174 69.5764 523.89 69.5764 516.138C69.5764 508.385 177.218 502.101 310 502.101C442.782 502.101 550.424 508.385 550.424 516.138C550.424 523.89 442.782 530.174 310 530.174Z" fill="#F5F5F5"/>
<path d="M117.961 391.344H438.824C440.469 391.368 442.101 391.044 443.612 390.392C445.124 389.74 446.48 388.776 447.591 387.563C448.703 386.349 449.545 384.914 450.062 383.351C450.579 381.789 450.759 380.135 450.591 378.498L431.322 149.098C430.973 145.624 429.364 142.398 426.798 140.031C424.232 137.663 420.887 136.319 417.396 136.251H96.534C94.8885 136.229 93.257 136.555 91.7462 137.207C90.2354 137.859 88.8794 138.824 87.7672 140.036C86.655 141.249 85.8116 142.683 85.2924 144.245C84.7731 145.807 84.5896 147.46 84.754 149.098L104.024 378.498C104.377 381.971 105.99 385.196 108.558 387.562C111.125 389.929 114.47 391.274 117.961 391.344Z" fill="#407BFF"/>
<path opacity="0.7" d="M117.961 391.344H438.824C440.469 391.368 442.101 391.044 443.612 390.392C445.124 389.74 446.48 388.776 447.591 387.563C448.703 386.349 449.545 384.914 450.062 383.351C450.579 381.789 450.759 380.135 450.591 378.498L431.322 149.098C430.973 145.624 429.364 142.398 426.798 140.031C424.232 137.663 420.887 136.319 417.396 136.251H96.534C94.8885 136.229 93.257 136.555 91.7462 137.207C90.2354 137.859 88.8794 138.824 87.7672 140.036C86.655 141.249 85.8116 142.683 85.2924 144.245C84.7731 145.807 84.5896 147.46 84.754 149.098L104.024 378.498C104.377 381.971 105.99 385.196 108.558 387.562C111.125 389.929 114.47 391.274 117.961 391.344Z" fill="white"/>
<path d="M438.402 386.384C439.413 386.402 440.417 386.205 441.346 385.806C442.275 385.406 443.109 384.815 443.793 384.069C444.476 383.323 444.994 382.441 445.31 381.481C445.627 380.52 445.737 379.503 445.631 378.498L426.362 149.098C426.149 146.963 425.161 144.981 423.583 143.527C422.006 142.073 419.95 141.249 417.806 141.211H96.9556C95.9439 141.194 94.94 141.391 94.0101 141.79C93.0802 142.189 92.2455 142.78 91.5612 143.526C90.8768 144.271 90.3582 145.153 90.0398 146.114C89.7214 147.074 89.6104 148.091 89.714 149.098L108.984 378.498C109.196 380.632 110.185 382.614 111.762 384.068C113.339 385.522 115.395 386.346 117.54 386.384H438.402Z" fill="white"/>
<path d="M408.444 157.195H401.76L401.909 158.943H404.141L404.6 164.288H406.794L406.336 158.943H408.58L408.444 157.195Z" fill="#407BFF"/>
<path d="M397.581 163.122H400.061L400.508 164.288H402.752L399.478 157.195H397.085L395.014 164.288H397.321L397.581 163.122ZM397.916 161.584L398.486 159.03L399.466 161.584H397.916Z" fill="#407BFF"/>
<path d="M394.518 161.944L392.423 161.808C392.421 162.082 392.349 162.351 392.212 162.589C392.105 162.733 391.964 162.848 391.802 162.923C391.64 162.999 391.461 163.033 391.282 163.023C391.015 163.04 390.751 162.961 390.538 162.8C390.455 162.741 390.386 162.665 390.335 162.577C390.283 162.49 390.251 162.392 390.24 162.291C390.229 162.199 390.242 162.105 390.276 162.018C390.311 161.931 390.367 161.855 390.439 161.795C390.765 161.574 391.139 161.434 391.53 161.386C392.253 161.265 392.934 160.967 393.514 160.518C393.7 160.344 393.843 160.129 393.931 159.89C394.019 159.651 394.051 159.395 394.022 159.142C393.981 158.768 393.839 158.413 393.613 158.112C393.35 157.769 392.998 157.504 392.596 157.344C392.029 157.139 391.426 157.046 390.823 157.071C390.108 157.015 389.394 157.193 388.79 157.579C388.555 157.775 388.369 158.022 388.246 158.302C388.124 158.582 388.068 158.886 388.083 159.191L390.154 159.303C390.158 159.044 390.26 158.796 390.439 158.608C390.645 158.452 390.901 158.377 391.158 158.398C391.365 158.383 391.571 158.44 391.741 158.559C391.806 158.602 391.861 158.658 391.901 158.725C391.942 158.791 391.968 158.866 391.976 158.943C391.979 159.002 391.968 159.06 391.944 159.114C391.921 159.168 391.885 159.215 391.84 159.253C391.626 159.399 391.379 159.489 391.121 159.514C390.428 159.643 389.754 159.855 389.112 160.146C388.76 160.318 388.467 160.59 388.269 160.927C388.106 161.253 388.041 161.619 388.083 161.981C388.128 162.431 388.295 162.86 388.566 163.221C388.856 163.608 389.246 163.909 389.695 164.089C390.248 164.303 390.838 164.404 391.431 164.387C391.87 164.443 392.315 164.411 392.741 164.292C393.167 164.172 393.565 163.969 393.911 163.692C394.331 163.21 394.549 162.583 394.518 161.944Z" fill="#407BFF"/>
<path d="M386.558 157.195H384.4L384.623 159.873L382.143 157.195H379.229L381.92 159.873L379.589 164.288H382.28L383.52 161.374L384.76 162.614L384.908 164.337H387.103L386.558 157.195Z" fill="#407BFF"/>
<path d="M375.013 157.195H371.368C371.056 157.166 370.741 157.201 370.443 157.297C370.144 157.393 369.869 157.548 369.632 157.753C369.44 157.97 369.299 158.228 369.22 158.507C369.14 158.786 369.124 159.079 369.173 159.365C369.205 160.007 369.485 160.612 369.954 161.051C370.531 161.493 371.25 161.709 371.975 161.659H373.215L373.438 164.288H375.646L375.013 157.195ZM373.066 160.22H372.521C372.203 160.248 371.885 160.169 371.616 159.997C371.527 159.929 371.454 159.843 371.401 159.745C371.347 159.646 371.315 159.538 371.306 159.427C371.29 159.225 371.352 159.026 371.479 158.869C371.592 158.775 371.723 158.705 371.864 158.665C372.004 158.624 372.152 158.613 372.298 158.633H372.93L373.066 160.22Z" fill="#407BFF"/>
<path d="M364.808 163.122H367.288L367.734 164.288H369.979L366.705 157.195H364.312L362.241 164.288H364.56L364.808 163.122ZM365.143 161.584L365.713 159.03L366.693 161.584H365.143Z" fill="#407BFF"/>
<path d="M360.952 157.195H358.906L356.562 161.113L356.227 157.195H354.156L354.752 164.288H356.822L359.154 160.394L359.488 164.288H361.547L360.952 157.195Z" fill="#407BFF"/>
<path d="M352.706 157.195H346.828L346.952 158.708H350.672L350.771 159.836H347.349L347.473 161.287H350.883L351.007 162.688H347.2L347.336 164.288H353.326L352.706 157.195Z" fill="#407BFF"/>
<path d="M345.538 157.195H343.344L343.79 162.539H340.368L340.516 164.288H346.134L345.538 157.195Z" fill="#407BFF"/>
<path opacity="0.1" d="M306.28 167.462H324.88C325.37 167.47 325.857 167.374 326.308 167.18C326.758 166.985 327.162 166.697 327.493 166.335C327.823 165.973 328.073 165.544 328.226 165.078C328.378 164.611 328.43 164.118 328.377 163.63L327.831 157.021C327.723 155.988 327.241 155.03 326.476 154.327C325.711 153.623 324.716 153.223 323.677 153.202H305.077C304.588 153.196 304.104 153.293 303.655 153.488C303.207 153.682 302.804 153.969 302.474 154.329C302.144 154.69 301.894 155.116 301.74 155.58C301.586 156.044 301.531 156.535 301.58 157.021L302.188 163.68C302.298 164.698 302.774 165.642 303.526 166.337C304.278 167.033 305.256 167.432 306.28 167.462Z" fill="#407BFF"/>
<path opacity="0.1" d="M111.142 164.594C108.567 162.124 108.32 158.203 110.59 155.835C112.861 153.468 116.789 153.55 119.364 156.02C121.94 158.49 122.187 162.411 119.916 164.778C117.646 167.146 113.717 167.063 111.142 164.594Z" fill="#407BFF"/>
<path opacity="0.1" d="M135.936 164.597C133.361 162.128 133.114 158.207 135.384 155.839C137.655 153.471 141.583 153.554 144.158 156.024C146.734 158.493 146.981 162.414 144.71 164.782C142.44 167.15 138.511 167.067 135.936 164.597Z" fill="#407BFF"/>
<path opacity="0.1" d="M160.743 164.601C158.167 162.131 157.92 158.21 160.191 155.843C162.461 153.475 166.39 153.558 168.965 156.027C171.54 158.497 171.787 162.418 169.517 164.786C167.246 167.153 163.318 167.071 160.743 164.601Z" fill="#407BFF"/>
<path opacity="0.1" d="M324.297 186.198H402.591C407.278 186.198 411.407 189.732 411.767 194.06L427.887 386.384H332.556L316.436 194.06C316.088 189.72 319.622 186.198 324.297 186.198Z" fill="#407BFF"/>
<path d="M326.728 190.96H400.966C402.65 190.999 404.263 191.65 405.502 192.791C406.741 193.932 407.522 195.485 407.7 197.16L411.42 241.676C411.5 242.467 411.412 243.266 411.162 244.021C410.911 244.775 410.504 245.468 409.966 246.054C409.428 246.64 408.773 247.105 408.042 247.419C407.312 247.733 406.523 247.889 405.728 247.876H331.502C329.815 247.845 328.199 247.197 326.958 246.054C325.717 244.912 324.938 243.354 324.768 241.676L321.048 197.16C320.972 196.371 321.062 195.574 321.313 194.822C321.565 194.07 321.971 193.38 322.507 192.795C323.042 192.21 323.695 191.745 324.422 191.429C325.149 191.112 325.935 190.953 326.728 190.96Z" fill="white"/>
<path d="M332.072 254.609H406.311C407.996 254.645 409.609 255.295 410.849 256.437C412.089 257.578 412.869 259.133 413.044 260.809L416.764 305.325C416.845 306.116 416.757 306.915 416.506 307.67C416.256 308.425 415.848 309.118 415.311 309.703C414.773 310.289 414.117 310.754 413.387 311.068C412.656 311.382 411.867 311.538 411.072 311.525H336.846C335.16 311.494 333.543 310.846 332.302 309.704C331.061 308.561 330.282 307.003 330.113 305.325L326.393 260.809C326.316 260.02 326.407 259.224 326.658 258.472C326.909 257.719 327.316 257.029 327.851 256.444C328.387 255.859 329.039 255.394 329.767 255.078C330.494 254.762 331.279 254.602 332.072 254.609Z" fill="white"/>
<path d="M337.416 318.271H411.68C413.366 318.304 414.981 318.953 416.221 320.095C417.461 321.237 418.241 322.794 418.413 324.471L422.133 368.987C422.214 369.778 422.126 370.577 421.876 371.332C421.625 372.086 421.217 372.779 420.68 373.365C420.142 373.951 419.486 374.416 418.756 374.73C418.025 375.044 417.237 375.2 416.442 375.187H342.24C340.554 375.153 338.939 374.504 337.699 373.362C336.459 372.22 335.679 370.664 335.507 368.987L331.787 324.471C331.707 323.685 331.793 322.891 332.04 322.141C332.287 321.391 332.689 320.701 333.22 320.116C333.751 319.531 334.399 319.065 335.122 318.747C335.845 318.429 336.627 318.267 337.416 318.271Z" fill="white"/>
<path opacity="0.5" d="M387.103 215.958H400.235C400.599 215.964 400.96 215.892 401.294 215.748C401.628 215.604 401.928 215.391 402.174 215.123C402.42 214.854 402.606 214.537 402.721 214.192C402.835 213.847 402.876 213.481 402.839 213.119L401.735 199.987C401.654 199.219 401.296 198.507 400.727 197.985C400.159 197.462 399.42 197.164 398.648 197.148H385.528C385.165 197.142 384.804 197.214 384.469 197.358C384.135 197.502 383.835 197.715 383.589 197.983C383.344 198.252 383.157 198.569 383.042 198.914C382.928 199.259 382.888 199.625 382.924 199.987L384.028 213.119C384.106 213.886 384.462 214.597 385.028 215.12C385.595 215.643 386.333 215.941 387.103 215.958Z" fill="#407BFF"/>
<path opacity="0.5" d="M331.018 226.188H402.591C402.762 226.189 402.932 226.154 403.089 226.085C403.247 226.017 403.388 225.917 403.505 225.791C403.621 225.665 403.71 225.516 403.766 225.354C403.823 225.192 403.845 225.02 403.831 224.849C403.795 224.486 403.628 224.148 403.36 223.9C403.093 223.651 402.745 223.508 402.38 223.498H330.807C330.635 223.497 330.464 223.532 330.305 223.601C330.147 223.671 330.005 223.772 329.888 223.899C329.772 224.027 329.683 224.177 329.628 224.34C329.572 224.504 329.552 224.677 329.567 224.849C329.606 225.21 329.775 225.545 330.041 225.791C330.308 226.037 330.655 226.178 331.018 226.188Z" fill="#407BFF"/>
<path opacity="0.2" d="M340.492 205.146H373.414C373.688 205.149 373.96 205.094 374.211 204.985C374.463 204.876 374.689 204.714 374.874 204.512C375.059 204.309 375.199 204.07 375.285 203.809C375.371 203.549 375.401 203.273 375.373 203C375.312 202.423 375.044 201.888 374.617 201.496C374.19 201.103 373.634 200.88 373.054 200.868H340.132C339.859 200.865 339.588 200.919 339.337 201.028C339.087 201.136 338.862 201.296 338.677 201.497C338.492 201.698 338.352 201.936 338.265 202.195C338.178 202.454 338.147 202.729 338.173 203C338.23 203.58 338.498 204.118 338.925 204.513C339.352 204.908 339.91 205.133 340.492 205.146Z" fill="#263238"/>
<path opacity="0.2" d="M354.107 212.238H374.009C374.282 212.241 374.553 212.187 374.803 212.078C375.054 211.97 375.279 211.81 375.464 211.609C375.649 211.408 375.789 211.17 375.876 210.911C375.963 210.652 375.994 210.377 375.968 210.106C375.911 209.528 375.645 208.992 375.22 208.597C374.796 208.202 374.241 207.976 373.662 207.96H353.747C353.473 207.957 353.201 208.012 352.949 208.121C352.698 208.23 352.472 208.392 352.287 208.594C352.102 208.797 351.962 209.036 351.876 209.297C351.79 209.557 351.76 209.833 351.788 210.106C351.848 210.683 352.117 211.218 352.544 211.61C352.971 212.003 353.527 212.226 354.107 212.238Z" fill="#263238"/>
<path opacity="0.5" d="M392.448 279.62H405.579C405.943 279.625 406.304 279.554 406.638 279.41C406.972 279.266 407.272 279.052 407.518 278.784C407.764 278.516 407.95 278.199 408.065 277.853C408.18 277.508 408.22 277.142 408.183 276.78L407.08 263.649C407.001 262.88 406.643 262.166 406.074 261.643C405.506 261.12 404.765 260.823 403.992 260.809H390.873C390.509 260.804 390.148 260.876 389.814 261.02C389.48 261.164 389.18 261.377 388.934 261.645C388.688 261.913 388.502 262.23 388.387 262.576C388.272 262.921 388.232 263.287 388.269 263.649L389.36 276.78C389.439 277.549 389.796 278.263 390.365 278.786C390.934 279.309 391.675 279.606 392.448 279.62Z" fill="#407BFF"/>
<path opacity="0.5" d="M336.362 289.85H407.96C408.133 289.851 408.304 289.815 408.462 289.746C408.62 289.677 408.762 289.576 408.879 289.448C408.995 289.321 409.084 289.171 409.14 289.007C409.195 288.844 409.216 288.67 409.2 288.498C409.161 288.137 408.993 287.803 408.726 287.557C408.459 287.31 408.112 287.169 407.749 287.159H336.176C336.005 287.159 335.835 287.194 335.678 287.262C335.52 287.331 335.379 287.431 335.263 287.557C335.146 287.683 335.057 287.831 335.001 287.993C334.945 288.155 334.923 288.327 334.936 288.498C334.972 288.858 335.135 289.192 335.397 289.44C335.659 289.688 336.002 289.834 336.362 289.85Z" fill="#407BFF"/>
<path opacity="0.2" d="M345.836 268.807H378.77C379.044 268.809 379.314 268.752 379.564 268.642C379.814 268.532 380.039 268.371 380.222 268.169C380.406 267.966 380.545 267.728 380.63 267.468C380.715 267.208 380.745 266.934 380.717 266.662C380.657 266.087 380.39 265.554 379.966 265.161C379.541 264.769 378.989 264.544 378.411 264.529H345.476C345.203 264.526 344.933 264.581 344.682 264.689C344.431 264.798 344.206 264.958 344.021 265.159C343.837 265.36 343.696 265.598 343.609 265.857C343.522 266.116 343.491 266.39 343.517 266.662C343.575 267.241 343.842 267.779 344.27 268.175C344.697 268.57 345.254 268.795 345.836 268.807Z" fill="#263238"/>
<path opacity="0.2" d="M359.451 275.9H379.366C379.638 275.903 379.909 275.849 380.159 275.74C380.409 275.631 380.633 275.471 380.817 275.27C381.001 275.068 381.14 274.83 381.225 274.571C381.311 274.313 381.34 274.038 381.312 273.767C381.255 273.19 380.989 272.654 380.565 272.259C380.14 271.864 379.586 271.637 379.006 271.622H359.092C358.817 271.619 358.545 271.674 358.294 271.783C358.042 271.892 357.817 272.053 357.632 272.256C357.447 272.458 357.306 272.698 357.22 272.958C357.134 273.219 357.104 273.494 357.132 273.767C357.193 274.344 357.462 274.879 357.889 275.272C358.316 275.665 358.871 275.888 359.451 275.9Z" fill="#263238"/>
<path d="M364.56 296.05H338.669C338.263 296.043 337.86 296.121 337.488 296.281C337.115 296.441 336.78 296.678 336.506 296.977C336.231 297.276 336.024 297.63 335.896 298.015C335.769 298.401 335.725 298.808 335.767 299.212L336.152 303.837C336.236 304.695 336.633 305.492 337.266 306.077C337.899 306.662 338.725 306.995 339.586 307.012H365.527C365.933 307.017 366.336 306.937 366.709 306.776C367.082 306.614 367.417 306.376 367.691 306.076C367.965 305.776 368.172 305.422 368.3 305.036C368.427 304.65 368.471 304.241 368.429 303.837L368.044 299.212C367.956 298.348 367.551 297.547 366.908 296.964C366.265 296.38 365.428 296.055 364.56 296.05Z" fill="#407BFF"/>
<path d="M362.588 302.969H364.101L364.374 303.676H365.726L363.742 299.373H362.291L361.051 303.676H362.44L362.588 302.969ZM362.787 302.039L363.122 300.489L363.729 302.039H362.787Z" fill="white"/>
<path d="M357.703 301.915L356.562 302.275C356.66 302.572 356.811 302.85 357.008 303.093C357.192 303.306 357.421 303.476 357.678 303.589C357.986 303.707 358.315 303.762 358.645 303.75C359.031 303.768 359.417 303.7 359.774 303.552C360.081 303.395 360.329 303.143 360.48 302.833C360.679 302.425 360.752 301.968 360.691 301.518C360.67 300.9 360.418 300.311 359.984 299.869C359.526 299.47 358.93 299.265 358.323 299.299C357.886 299.274 357.452 299.387 357.083 299.621C356.766 299.877 356.55 300.238 356.475 300.638L357.715 300.898C357.733 300.799 357.766 300.702 357.814 300.613C357.879 300.513 357.969 300.432 358.075 300.378C358.18 300.317 358.3 300.287 358.422 300.291C358.565 300.288 358.707 300.32 358.835 300.385C358.962 300.45 359.072 300.545 359.154 300.663C359.316 300.914 359.402 301.207 359.402 301.506C359.471 301.837 359.427 302.182 359.278 302.486C359.209 302.577 359.119 302.65 359.015 302.698C358.911 302.746 358.797 302.766 358.682 302.758C358.573 302.763 358.464 302.746 358.362 302.708C358.26 302.67 358.166 302.611 358.087 302.535C357.911 302.363 357.779 302.15 357.703 301.915Z" fill="white"/>
<path d="M353.016 301.915L351.875 302.275C351.973 302.572 352.124 302.85 352.321 303.093C352.505 303.306 352.733 303.476 352.991 303.589C353.299 303.707 353.628 303.762 353.958 303.75C354.344 303.768 354.729 303.7 355.086 303.552C355.394 303.395 355.642 303.143 355.793 302.833C355.992 302.425 356.065 301.968 356.004 301.518C355.983 300.9 355.73 300.311 355.297 299.869C354.839 299.47 354.243 299.265 353.636 299.299C353.199 299.276 352.766 299.388 352.396 299.621C352.083 299.88 351.868 300.239 351.788 300.638L353.028 300.898C353.046 300.799 353.079 300.702 353.127 300.613C353.195 300.516 353.284 300.435 353.388 300.378C353.497 300.315 353.622 300.285 353.747 300.291C353.888 300.289 354.028 300.321 354.154 300.386C354.279 300.451 354.387 300.546 354.466 300.663C354.628 300.915 354.718 301.206 354.727 301.506C354.788 301.839 354.74 302.182 354.59 302.486C354.523 302.578 354.433 302.652 354.328 302.7C354.224 302.747 354.109 302.768 353.995 302.758C353.888 302.767 353.78 302.754 353.677 302.719C353.575 302.685 353.481 302.631 353.4 302.56C353.22 302.38 353.088 302.159 353.016 301.915Z" fill="white"/>
<path d="M350.92 299.373H347.349L347.436 300.291H349.68L349.742 300.973H347.671L347.746 301.853H349.816L349.891 302.709H347.584L347.671 303.676H351.304L350.92 299.373Z" fill="white"/>
<path d="M346.642 299.373H344.422C344.232 299.355 344.041 299.377 343.859 299.437C343.678 299.497 343.511 299.593 343.368 299.72C343.256 299.855 343.174 300.012 343.127 300.181C343.08 300.35 343.069 300.527 343.096 300.7C343.104 300.893 343.152 301.083 343.235 301.257C343.318 301.432 343.435 301.588 343.579 301.717C343.934 301.985 344.376 302.113 344.819 302.076H345.551L345.687 303.676H347.026L346.642 299.373ZM345.402 301.208H345.067C344.875 301.222 344.684 301.174 344.522 301.072C344.471 301.033 344.428 300.985 344.396 300.929C344.365 300.874 344.344 300.813 344.336 300.749C344.328 300.686 344.332 300.621 344.349 300.56C344.366 300.498 344.395 300.44 344.435 300.39C344.503 300.332 344.582 300.289 344.667 300.264C344.753 300.238 344.842 300.23 344.931 300.241H345.315L345.402 301.208Z" fill="white"/>
<path d="M342.587 299.373H338.52L338.607 300.44H339.958L340.244 303.676H341.583L341.298 300.44H342.649L342.587 299.373Z" fill="white"/>
<path opacity="0.5" d="M397.804 343.282H410.924C411.288 343.285 411.649 343.212 411.983 343.066C412.318 342.921 412.617 342.707 412.863 342.438C413.109 342.168 413.295 341.85 413.409 341.504C413.524 341.158 413.564 340.792 413.528 340.43L412.424 327.36C412.346 326.593 411.99 325.881 411.424 325.358C410.857 324.836 410.119 324.538 409.349 324.52H396.217C395.853 324.515 395.492 324.587 395.158 324.731C394.824 324.875 394.524 325.088 394.278 325.356C394.032 325.624 393.846 325.941 393.731 326.287C393.617 326.632 393.576 326.998 393.613 327.36L394.717 340.479C394.809 341.239 395.172 341.941 395.739 342.455C396.306 342.97 397.039 343.263 397.804 343.282Z" fill="#407BFF"/>
<path opacity="0.25" d="M341.719 353.512H413.28C413.452 353.512 413.623 353.477 413.781 353.408C413.94 353.339 414.082 353.237 414.198 353.11C414.315 352.983 414.404 352.832 414.459 352.669C414.515 352.505 414.535 352.332 414.52 352.16C414.481 351.799 414.312 351.464 414.046 351.218C413.779 350.972 413.432 350.831 413.069 350.821H341.496C341.324 350.82 341.155 350.855 340.997 350.924C340.84 350.992 340.699 351.092 340.582 351.218C340.466 351.344 340.376 351.493 340.32 351.655C340.264 351.817 340.242 351.989 340.256 352.16C340.292 352.525 340.461 352.865 340.731 353.114C341.001 353.363 341.352 353.504 341.719 353.512Z" fill="#407BFF"/>
<path opacity="0.25" d="M355.57 353.512H413.28C413.452 353.512 413.623 353.477 413.781 353.408C413.94 353.339 414.082 353.237 414.198 353.11C414.315 352.983 414.404 352.832 414.459 352.669C414.515 352.505 414.535 352.332 414.52 352.16C414.481 351.799 414.312 351.464 414.046 351.218C413.779 350.972 413.432 350.831 413.069 350.821H355.359C355.188 350.82 355.018 350.855 354.861 350.924C354.703 350.992 354.562 351.092 354.445 351.218C354.329 351.344 354.24 351.493 354.184 351.655C354.127 351.817 354.105 351.989 354.119 352.16C354.155 352.523 354.322 352.861 354.59 353.11C354.857 353.358 355.205 353.501 355.57 353.512Z" fill="#407BFF"/>
<path opacity="0.2" d="M351.18 332.456H384.115C384.387 332.46 384.658 332.405 384.908 332.296C385.158 332.188 385.382 332.028 385.566 331.826C385.75 331.625 385.889 331.387 385.975 331.128C386.06 330.869 386.09 330.595 386.062 330.324C386.004 329.748 385.738 329.213 385.313 328.82C384.888 328.427 384.334 328.203 383.755 328.191H350.821C350.547 328.186 350.275 328.239 350.024 328.347C349.772 328.455 349.546 328.615 349.361 328.816C349.176 329.018 349.036 329.256 348.95 329.516C348.863 329.776 348.833 330.051 348.862 330.324C348.919 330.902 349.187 331.438 349.615 331.831C350.042 332.225 350.6 332.447 351.18 332.456Z" fill="#263238"/>
<path opacity="0.2" d="M364.796 339.562H384.71C384.983 339.563 385.254 339.507 385.504 339.397C385.754 339.287 385.978 339.125 386.162 338.923C386.345 338.721 386.484 338.482 386.57 338.222C386.655 337.963 386.685 337.688 386.657 337.416C386.602 336.839 386.336 336.303 385.911 335.909C385.485 335.516 384.93 335.293 384.35 335.284H364.436C364.163 335.283 363.894 335.338 363.644 335.447C363.394 335.557 363.17 335.717 362.985 335.917C362.801 336.118 362.661 336.355 362.573 336.613C362.485 336.871 362.453 337.145 362.477 337.416C362.534 337.996 362.802 338.534 363.229 338.929C363.656 339.324 364.214 339.549 364.796 339.562Z" fill="#263238"/>
<path opacity="0.1" d="M221.96 186.198H300.316C304.99 186.198 309.12 189.732 309.479 194.06L325.599 386.384H230.28L214.16 194.06C213.801 189.72 217.335 186.198 221.96 186.198Z" fill="#407BFF"/>
<path d="M224.44 190.96H298.679C300.364 190.996 301.977 191.646 303.217 192.788C304.457 193.929 305.237 195.484 305.412 197.16L309.132 241.676C309.213 242.466 309.125 243.264 308.875 244.018C308.625 244.772 308.219 245.464 307.683 246.049C307.146 246.635 306.492 247.1 305.763 247.415C305.034 247.73 304.247 247.887 303.453 247.876H229.214C227.528 247.842 225.913 247.193 224.673 246.051C223.433 244.909 222.653 243.353 222.481 241.676L218.761 197.16C218.682 196.37 218.771 195.573 219.022 194.82C219.272 194.067 219.679 193.376 220.215 192.791C220.751 192.206 221.404 191.74 222.132 191.425C222.86 191.109 223.647 190.951 224.44 190.96Z" fill="white"/>
<path d="M229.797 254.609H304.023C305.709 254.643 307.324 255.292 308.564 256.434C309.805 257.576 310.584 259.132 310.756 260.809L314.476 305.325C314.555 306.116 314.466 306.914 314.215 307.668C313.963 308.422 313.556 309.114 313.018 309.699C312.481 310.284 311.826 310.75 311.097 311.064C310.367 311.379 309.579 311.536 308.785 311.525H234.546C232.861 311.489 231.247 310.839 230.008 309.698C228.768 308.556 227.988 307.001 227.813 305.325L224.093 260.809C224.014 260.017 224.104 259.218 224.356 258.463C224.608 257.709 225.016 257.016 225.555 256.43C226.094 255.845 226.75 255.38 227.481 255.066C228.212 254.752 229.001 254.597 229.797 254.609Z" fill="white"/>
<path d="M235.141 318.271H309.368C311.054 318.302 312.671 318.95 313.911 320.092C315.152 321.235 315.931 322.793 316.101 324.471L319.821 368.987C319.899 369.777 319.81 370.576 319.559 371.329C319.308 372.083 318.9 372.775 318.363 373.361C317.825 373.946 317.171 374.411 316.441 374.726C315.711 375.041 314.924 375.198 314.129 375.187H239.89C238.206 375.151 236.592 374.501 235.352 373.359C234.112 372.218 233.332 370.663 233.157 368.987L229.437 324.471C229.356 323.679 229.445 322.878 229.696 322.123C229.947 321.367 230.356 320.674 230.895 320.088C231.434 319.502 232.091 319.037 232.823 318.724C233.555 318.411 234.345 318.256 235.141 318.271Z" fill="white"/>
<path opacity="0.5" d="M284.828 215.958H297.947C298.311 215.964 298.672 215.892 299.006 215.748C299.34 215.604 299.64 215.391 299.886 215.123C300.132 214.854 300.318 214.537 300.433 214.192C300.548 213.847 300.588 213.481 300.551 213.119L299.448 199.987C299.369 199.219 299.011 198.508 298.441 197.986C297.872 197.465 297.132 197.171 296.36 197.16H283.228C282.865 197.155 282.504 197.226 282.169 197.37C281.835 197.514 281.535 197.727 281.289 197.996C281.044 198.264 280.857 198.581 280.742 198.926C280.628 199.272 280.588 199.638 280.624 200L281.728 213.131C281.812 213.899 282.174 214.61 282.744 215.13C283.315 215.65 284.056 215.945 284.828 215.958Z" fill="#407BFF"/>
<path opacity="0.25" d="M228.743 226.188H300.303C300.475 226.189 300.645 226.154 300.802 226.085C300.959 226.017 301.101 225.917 301.217 225.791C301.334 225.665 301.423 225.516 301.479 225.354C301.535 225.192 301.557 225.02 301.543 224.849C301.51 224.485 301.343 224.146 301.076 223.896C300.808 223.647 300.458 223.505 300.092 223.498H228.52C228.347 223.497 228.176 223.532 228.018 223.601C227.86 223.671 227.718 223.772 227.601 223.899C227.484 224.027 227.395 224.177 227.34 224.34C227.285 224.504 227.264 224.677 227.28 224.849C227.319 225.212 227.489 225.549 227.758 225.795C228.028 226.042 228.378 226.181 228.743 226.188Z" fill="#407BFF"/>
<path opacity="0.25" d="M269.601 226.188H300.303C300.475 226.189 300.645 226.154 300.802 226.085C300.959 226.017 301.101 225.917 301.217 225.791C301.334 225.665 301.423 225.516 301.479 225.354C301.535 225.192 301.557 225.02 301.543 224.849C301.51 224.485 301.343 224.146 301.076 223.896C300.808 223.647 300.458 223.505 300.092 223.498H269.378C269.205 223.497 269.034 223.532 268.876 223.601C268.718 223.671 268.576 223.772 268.459 223.899C268.342 224.027 268.253 224.177 268.198 224.34C268.143 224.504 268.122 224.677 268.138 224.849C268.177 225.212 268.347 225.549 268.616 225.795C268.886 226.042 269.236 226.181 269.601 226.188Z" fill="#407BFF"/>
<path opacity="0.2" d="M238.204 205.146H271.138C271.413 205.149 271.685 205.094 271.936 204.985C272.188 204.875 272.413 204.714 272.598 204.512C272.783 204.309 272.924 204.07 273.01 203.809C273.096 203.549 273.126 203.273 273.098 203C273.037 202.423 272.768 201.888 272.341 201.496C271.914 201.103 271.359 200.88 270.779 200.868H237.844C237.572 200.864 237.301 200.919 237.051 201.027C236.801 201.136 236.577 201.296 236.393 201.498C236.209 201.699 236.07 201.937 235.985 202.196C235.899 202.455 235.87 202.729 235.898 203C235.955 203.578 236.221 204.114 236.645 204.509C237.07 204.904 237.624 205.13 238.204 205.146Z" fill="#263238"/>
<path opacity="0.2" d="M251.819 212.238H271.734C272.007 212.241 272.277 212.187 272.528 212.078C272.779 211.97 273.004 211.81 273.189 211.609C273.373 211.408 273.514 211.17 273.601 210.911C273.688 210.652 273.719 210.378 273.693 210.106C273.635 209.526 273.368 208.988 272.94 208.593C272.513 208.198 271.956 207.973 271.374 207.96H251.46C251.186 207.959 250.916 208.015 250.666 208.125C250.416 208.235 250.191 208.397 250.008 208.599C249.824 208.801 249.685 209.04 249.6 209.3C249.515 209.559 249.485 209.834 249.513 210.106C249.573 210.681 249.84 211.214 250.264 211.606C250.689 211.999 251.241 212.223 251.819 212.238Z" fill="#263238"/>
<path opacity="0.5" d="M290.16 279.62H303.292C303.655 279.625 304.016 279.554 304.351 279.41C304.685 279.266 304.985 279.052 305.231 278.784C305.476 278.516 305.663 278.199 305.778 277.853C305.892 277.508 305.932 277.142 305.896 276.78L304.792 263.649C304.716 262.881 304.361 262.168 303.794 261.644C303.227 261.121 302.488 260.824 301.717 260.809H288.598C288.233 260.802 287.871 260.872 287.536 261.016C287.201 261.159 286.9 261.372 286.654 261.641C286.408 261.909 286.221 262.227 286.107 262.574C285.994 262.92 285.955 263.286 285.994 263.649L287.085 276.78C287.166 277.546 287.522 278.256 288.088 278.779C288.654 279.301 289.39 279.6 290.16 279.62Z" fill="#407BFF"/>
<path opacity="0.25" d="M234.087 289.85H305.648C305.82 289.851 305.991 289.815 306.149 289.746C306.308 289.677 306.45 289.576 306.566 289.448C306.683 289.321 306.772 289.171 306.827 289.007C306.883 288.844 306.903 288.67 306.888 288.498C306.848 288.135 306.678 287.799 306.409 287.553C306.14 287.306 305.789 287.166 305.424 287.159H233.864C233.692 287.159 233.523 287.194 233.365 287.262C233.208 287.331 233.067 287.431 232.95 287.557C232.834 287.683 232.744 287.831 232.688 287.993C232.632 288.155 232.61 288.327 232.624 288.498C232.66 288.864 232.829 289.203 233.099 289.452C233.369 289.701 233.72 289.843 234.087 289.85Z" fill="#407BFF"/>
<path opacity="0.25" d="M301.828 289.85H305.648C305.82 289.851 305.991 289.815 306.149 289.746C306.308 289.677 306.45 289.576 306.566 289.448C306.683 289.321 306.772 289.171 306.827 289.007C306.883 288.844 306.903 288.67 306.888 288.498C306.848 288.135 306.678 287.799 306.409 287.553C306.14 287.306 305.789 287.166 305.424 287.159H301.605C301.434 287.159 301.264 287.194 301.107 287.262C300.949 287.331 300.808 287.431 300.691 287.557C300.575 287.683 300.486 287.831 300.43 287.993C300.373 288.155 300.351 288.327 300.365 288.498C300.402 288.864 300.571 289.203 300.84 289.452C301.11 289.701 301.461 289.843 301.828 289.85Z" fill="#407BFF"/>
<path opacity="0.2" d="M243.548 268.807H276.52C276.794 268.81 277.066 268.756 277.318 268.646C277.569 268.537 277.795 268.376 277.98 268.173C278.165 267.971 278.305 267.731 278.391 267.471C278.477 267.211 278.507 266.935 278.479 266.662C278.419 266.085 278.15 265.55 277.723 265.157C277.296 264.764 276.74 264.541 276.16 264.529H243.226C242.953 264.526 242.683 264.58 242.433 264.689C242.183 264.798 241.958 264.958 241.775 265.159C241.591 265.361 241.452 265.599 241.366 265.858C241.281 266.117 241.251 266.391 241.279 266.662C241.335 267.233 241.596 267.764 242.013 268.159C242.43 268.553 242.975 268.783 243.548 268.807Z" fill="#263238"/>
<path opacity="0.2" d="M257.164 275.9H277.078C277.351 275.903 277.622 275.848 277.873 275.74C278.123 275.631 278.348 275.471 278.533 275.27C278.718 275.069 278.858 274.831 278.945 274.572C279.032 274.313 279.063 274.039 279.037 273.767C278.98 273.188 278.712 272.65 278.285 272.255C277.858 271.859 277.3 271.634 276.718 271.622H256.816C256.542 271.619 256.27 271.674 256.019 271.783C255.767 271.892 255.541 272.053 255.356 272.256C255.171 272.458 255.031 272.698 254.945 272.958C254.859 273.219 254.829 273.494 254.857 273.767C254.917 274.342 255.184 274.876 255.609 275.268C256.033 275.66 256.586 275.885 257.164 275.9Z" fill="#263238"/>
<path opacity="0.5" d="M295.517 343.282H308.636C309 343.285 309.362 343.212 309.696 343.066C310.03 342.921 310.33 342.707 310.575 342.438C310.821 342.168 311.007 341.85 311.122 341.504C311.236 341.158 311.277 340.792 311.24 340.43L310.136 327.31C310.061 326.543 309.706 325.829 309.139 325.306C308.572 324.782 307.833 324.485 307.061 324.471H293.88C293.516 324.465 293.155 324.537 292.821 324.681C292.487 324.825 292.187 325.038 291.941 325.306C291.695 325.575 291.509 325.892 291.394 326.237C291.279 326.583 291.239 326.948 291.276 327.31L292.38 340.43C292.456 341.209 292.82 341.932 293.399 342.459C293.979 342.986 294.733 343.279 295.517 343.282Z" fill="#407BFF"/>
<path opacity="0.5" d="M239.432 353.512H310.992C311.165 353.512 311.336 353.477 311.494 353.408C311.652 353.339 311.794 353.237 311.911 353.11C312.027 352.983 312.116 352.832 312.172 352.669C312.227 352.505 312.248 352.332 312.232 352.16C312.193 351.797 312.023 351.461 311.753 351.214C311.484 350.968 311.134 350.828 310.769 350.821H239.208C239.037 350.82 238.867 350.855 238.71 350.924C238.552 350.992 238.411 351.092 238.295 351.218C238.178 351.344 238.089 351.493 238.033 351.655C237.977 351.817 237.955 351.989 237.968 352.16C238.005 352.525 238.174 352.865 238.443 353.114C238.713 353.363 239.065 353.504 239.432 353.512Z" fill="#407BFF"/>
<path opacity="0.2" d="M248.893 332.456H281.827C282.101 332.461 282.373 332.408 282.624 332.3C282.876 332.193 283.102 332.033 283.287 331.831C283.472 331.629 283.612 331.391 283.698 331.131C283.785 330.871 283.814 330.596 283.786 330.324C283.729 329.746 283.461 329.209 283.033 328.816C282.606 328.422 282.048 328.2 281.468 328.191H248.546C248.272 328.186 248 328.239 247.749 328.347C247.497 328.455 247.271 328.615 247.086 328.816C246.901 329.018 246.761 329.256 246.674 329.516C246.588 329.776 246.558 330.051 246.586 330.324C246.644 330.9 246.91 331.434 247.335 331.827C247.76 332.22 248.314 332.444 248.893 332.456Z" fill="#263238"/>
<path opacity="0.2" d="M262.52 339.562H282.422C282.697 339.565 282.969 339.51 283.22 339.401C283.472 339.291 283.697 339.13 283.882 338.928C284.067 338.725 284.207 338.486 284.294 338.225C284.38 337.965 284.41 337.689 284.382 337.416C284.321 336.839 284.052 336.304 283.625 335.912C283.198 335.519 282.643 335.296 282.063 335.284H262.161C261.888 335.281 261.617 335.335 261.366 335.444C261.116 335.552 260.891 335.712 260.706 335.913C260.521 336.114 260.381 336.352 260.294 336.611C260.207 336.87 260.175 337.144 260.202 337.416C260.259 337.996 260.527 338.534 260.954 338.929C261.381 339.324 261.938 339.549 262.52 339.562Z" fill="#263238"/>
<path d="M267.679 359.712H241.8C241.395 359.706 240.993 359.786 240.621 359.947C240.249 360.107 239.915 360.345 239.641 360.643C239.367 360.942 239.16 361.295 239.032 361.679C238.904 362.063 238.858 362.47 238.898 362.874L239.283 367.499C239.373 368.353 239.772 369.146 240.404 369.728C241.036 370.31 241.859 370.641 242.718 370.661H268.596C269.001 370.666 269.403 370.586 269.775 370.426C270.147 370.265 270.481 370.028 270.755 369.729C271.029 369.431 271.237 369.078 271.365 368.693C271.493 368.309 271.538 367.902 271.498 367.499L271.114 362.874C271.023 362.019 270.625 361.227 269.993 360.645C269.36 360.063 268.538 359.731 267.679 359.712Z" fill="#407BFF"/>
<path d="M265.645 366.631H267.158L267.431 367.338H268.795L266.798 363.035H265.36L264.12 367.338H265.509L265.645 366.631ZM265.844 365.701L266.191 364.151L266.798 365.701H265.844Z" fill="white"/>
<path d="M260.76 365.577L259.631 365.924C259.717 366.228 259.865 366.511 260.065 366.755C260.249 366.968 260.477 367.138 260.735 367.251C261.047 367.37 261.38 367.425 261.714 367.412C262.1 367.428 262.486 367.361 262.843 367.214C263.148 367.054 263.395 366.802 263.55 366.494C263.757 366.003 263.819 365.463 263.729 364.938C263.639 364.413 263.4 363.925 263.041 363.531C262.583 363.131 261.987 362.927 261.38 362.96C260.943 362.939 260.51 363.052 260.14 363.283C259.83 363.543 259.62 363.902 259.544 364.3L260.784 364.56C260.808 364.46 260.846 364.364 260.896 364.275C260.956 364.175 261.042 364.094 261.144 364.039C261.253 363.977 261.378 363.947 261.504 363.952C261.644 363.949 261.783 363.98 261.908 364.042C262.033 364.105 262.142 364.198 262.223 364.312C262.382 364.57 262.472 364.865 262.483 365.168C262.549 365.5 262.501 365.845 262.347 366.147C262.28 366.237 262.191 366.309 262.09 366.357C261.988 366.404 261.876 366.426 261.764 366.42C261.655 366.427 261.545 366.411 261.442 366.373C261.34 366.334 261.246 366.274 261.169 366.197C260.979 366.031 260.838 365.817 260.76 365.577Z" fill="white"/>
<path d="M256.085 365.577L254.944 365.924C255.034 366.229 255.186 366.511 255.39 366.755C255.574 366.968 255.803 367.137 256.06 367.251C256.368 367.368 256.697 367.423 257.027 367.412C257.413 367.43 257.799 367.362 258.156 367.214C258.461 367.054 258.708 366.802 258.862 366.494C259.061 366.087 259.134 365.629 259.073 365.18C259.052 364.561 258.8 363.973 258.366 363.531C257.907 363.134 257.311 362.929 256.705 362.96C256.268 362.936 255.834 363.048 255.465 363.283C255.148 363.539 254.932 363.899 254.857 364.3L256.097 364.56C256.113 364.46 256.146 364.363 256.196 364.275C256.256 364.175 256.342 364.094 256.444 364.039C256.554 363.979 256.679 363.949 256.804 363.952C256.946 363.95 257.086 363.981 257.213 364.044C257.34 364.106 257.451 364.198 257.536 364.312C257.691 364.571 257.776 364.866 257.784 365.168C257.849 365.5 257.801 365.845 257.647 366.147C257.58 366.237 257.492 366.309 257.39 366.357C257.288 366.404 257.176 366.426 257.064 366.42C256.955 366.427 256.845 366.411 256.743 366.373C256.64 366.334 256.547 366.274 256.469 366.197C256.282 366.033 256.148 365.817 256.085 365.577Z" fill="white"/>
<path d="M254.051 363.035H250.48L250.554 363.952H252.799V364.634H250.728L250.802 365.515H252.96L253.034 366.37H250.74L250.827 367.338H254.46L254.051 363.035Z" fill="white"/>
<path d="M249.699 363.035H247.492C247.302 363.018 247.112 363.039 246.931 363.097C246.75 363.154 246.582 363.247 246.438 363.37C246.325 363.504 246.243 363.661 246.196 363.83C246.149 363.999 246.138 364.176 246.165 364.349C246.183 364.74 246.352 365.109 246.636 365.378C246.995 365.64 247.433 365.767 247.876 365.738H248.595L248.732 367.338H250.071L249.699 363.035ZM248.521 364.87H248.198C248.003 364.885 247.807 364.838 247.64 364.734C247.586 364.693 247.54 364.641 247.508 364.581C247.476 364.521 247.458 364.454 247.454 364.386C247.447 364.326 247.453 364.264 247.472 364.206C247.492 364.148 247.524 364.095 247.566 364.052C247.634 363.994 247.713 363.951 247.798 363.925C247.884 363.9 247.973 363.892 248.062 363.903H248.446L248.521 364.87Z" fill="white"/>
<path d="M245.656 363.035H241.602L241.688 364.101H243.04L243.325 367.338H244.652L244.367 364.101H245.731L245.656 363.035Z" fill="white"/>
<path opacity="0.1" d="M119.734 186.198H198.028C200.253 186.165 202.414 186.945 204.103 188.393C205.793 189.841 206.896 191.856 207.204 194.06L223.324 386.384H128.005L111.885 194.06C111.513 189.72 115.047 186.198 119.734 186.198Z" fill="#407BFF"/>
<path d="M122.165 190.96H196.391C198.077 190.994 199.692 191.642 200.932 192.785C202.173 193.927 202.952 195.483 203.124 197.16L206.844 241.676C206.925 242.467 206.837 243.266 206.587 244.021C206.336 244.775 205.929 245.468 205.391 246.054C204.853 246.64 204.198 247.105 203.467 247.419C202.737 247.733 201.948 247.889 201.153 247.876H126.926C125.24 247.845 123.623 247.197 122.383 246.054C121.142 244.912 120.363 243.354 120.193 241.676L116.473 197.16C116.395 196.369 116.484 195.571 116.735 194.817C116.986 194.063 117.394 193.371 117.931 192.786C118.469 192.201 119.123 191.735 119.853 191.421C120.583 191.106 121.37 190.949 122.165 190.96Z" fill="white"/>
<path d="M127.509 254.609H201.736C203.421 254.643 205.036 255.292 206.277 256.434C207.517 257.576 208.297 259.132 208.469 260.809L212.189 305.325C212.269 306.116 212.182 306.915 211.931 307.67C211.681 308.425 211.273 309.118 210.735 309.703C210.198 310.289 209.542 310.754 208.811 311.068C208.081 311.382 207.292 311.538 206.497 311.525H132.271C130.584 311.494 128.968 310.846 127.727 309.704C126.486 308.561 125.707 307.003 125.538 305.325L121.818 260.809C121.741 260.019 121.832 259.221 122.084 258.469C122.336 257.716 122.743 257.024 123.28 256.439C123.817 255.855 124.471 255.389 125.2 255.074C125.928 254.759 126.715 254.6 127.509 254.609Z" fill="white"/>
<path d="M132.854 318.271H207.08C208.765 318.307 210.379 318.957 211.618 320.098C212.858 321.24 213.638 322.795 213.813 324.471L217.533 368.987C217.614 369.778 217.526 370.577 217.276 371.332C217.025 372.086 216.617 372.779 216.08 373.365C215.542 373.951 214.886 374.416 214.156 374.73C213.425 375.044 212.637 375.2 211.842 375.187H137.64C135.954 375.156 134.337 374.508 133.096 373.365C131.855 372.223 131.076 370.665 130.907 368.987L127.187 324.471C127.108 323.682 127.197 322.886 127.447 322.134C127.697 321.382 128.102 320.691 128.637 320.106C129.171 319.521 129.823 319.056 130.55 318.739C131.276 318.423 132.061 318.263 132.854 318.271Z" fill="white"/>
<path opacity="0.5" d="M182.54 215.958H195.66C196.024 215.966 196.386 215.895 196.721 215.752C197.056 215.609 197.357 215.396 197.603 215.127C197.85 214.858 198.036 214.54 198.15 214.194C198.264 213.848 198.302 213.481 198.264 213.119L197.172 199.987C197.091 199.219 196.733 198.507 196.164 197.985C195.596 197.462 194.857 197.164 194.085 197.148H180.966C180.602 197.142 180.241 197.214 179.907 197.358C179.573 197.502 179.273 197.715 179.027 197.983C178.781 198.252 178.594 198.569 178.48 198.914C178.365 199.259 178.325 199.625 178.362 199.987L179.465 213.119C179.541 213.887 179.896 214.6 180.463 215.123C181.03 215.647 181.769 215.944 182.54 215.958Z" fill="#407BFF"/>
<path opacity="0.5" d="M126.48 226.188H198.028C198.2 226.189 198.369 226.154 198.527 226.085C198.684 226.017 198.825 225.917 198.942 225.791C199.058 225.665 199.148 225.516 199.204 225.354C199.26 225.192 199.282 225.02 199.268 224.849C199.232 224.484 199.063 224.145 198.793 223.896C198.523 223.646 198.172 223.505 197.805 223.498H126.232C126.059 223.497 125.888 223.532 125.73 223.601C125.572 223.671 125.43 223.772 125.313 223.899C125.197 224.027 125.108 224.177 125.052 224.34C124.997 224.504 124.976 224.677 124.992 224.849C125.029 225.217 125.202 225.559 125.477 225.806C125.752 226.054 126.11 226.19 126.48 226.188Z" fill="#407BFF"/>
<path opacity="0.2" d="M135.929 205.146H168.851C169.125 205.149 169.397 205.094 169.649 204.985C169.9 204.876 170.126 204.714 170.311 204.512C170.496 204.309 170.636 204.07 170.722 203.809C170.808 203.549 170.838 203.273 170.81 203C170.75 202.423 170.481 201.888 170.054 201.496C169.627 201.103 169.071 200.88 168.491 200.868H135.569C135.296 200.865 135.025 200.919 134.775 201.028C134.524 201.136 134.299 201.296 134.114 201.497C133.929 201.698 133.789 201.936 133.702 202.195C133.615 202.454 133.584 202.729 133.61 203C133.667 203.58 133.935 204.118 134.362 204.513C134.79 204.908 135.347 205.133 135.929 205.146Z" fill="#263238"/>
<path opacity="0.2" d="M149.544 212.238H169.384C169.657 212.241 169.928 212.187 170.178 212.078C170.429 211.97 170.654 211.81 170.839 211.609C171.024 211.408 171.164 211.17 171.251 210.911C171.338 210.652 171.369 210.377 171.343 210.106C171.286 209.526 171.018 208.988 170.591 208.593C170.164 208.198 169.606 207.973 169.024 207.96H149.122C148.848 207.957 148.576 208.012 148.325 208.121C148.073 208.23 147.847 208.392 147.662 208.594C147.477 208.797 147.337 209.036 147.251 209.297C147.165 209.557 147.135 209.833 147.163 210.106C147.225 210.693 147.502 211.237 147.942 211.631C148.382 212.025 148.953 212.242 149.544 212.238Z" fill="#263238"/>
<path opacity="0.5" d="M187.885 279.62H201.016C201.38 279.625 201.741 279.554 202.075 279.41C202.409 279.266 202.709 279.052 202.955 278.784C203.201 278.516 203.388 278.199 203.502 277.853C203.617 277.508 203.657 277.142 203.62 276.78L202.517 263.649C202.436 262.881 202.077 262.169 201.509 261.646C200.941 261.124 200.201 260.826 199.429 260.809H186.31C185.946 260.804 185.585 260.876 185.251 261.02C184.917 261.164 184.617 261.377 184.371 261.645C184.125 261.913 183.939 262.23 183.824 262.576C183.709 262.921 183.669 263.287 183.706 263.649L184.76 276.78C184.837 277.557 185.199 278.277 185.776 278.801C186.353 279.326 187.105 279.618 187.885 279.62Z" fill="#407BFF"/>
<path opacity="0.5" d="M131.8 289.85H203.36C203.533 289.851 203.704 289.815 203.862 289.746C204.02 289.677 204.162 289.576 204.279 289.448C204.395 289.321 204.484 289.171 204.54 289.007C204.595 288.844 204.616 288.67 204.6 288.498C204.561 288.137 204.393 287.803 204.126 287.557C203.859 287.31 203.512 287.169 203.149 287.159H131.576C131.405 287.159 131.235 287.194 131.078 287.262C130.92 287.331 130.779 287.431 130.663 287.557C130.546 287.683 130.457 287.831 130.401 287.993C130.345 288.155 130.323 288.327 130.336 288.498C130.373 288.864 130.542 289.203 130.811 289.452C131.081 289.701 131.433 289.843 131.8 289.85Z" fill="#407BFF"/>
<path opacity="0.2" d="M141.273 268.807H174.195C174.47 268.81 174.741 268.756 174.993 268.646C175.245 268.537 175.47 268.376 175.655 268.173C175.84 267.971 175.98 267.731 176.066 267.471C176.152 267.211 176.182 266.935 176.154 266.662C176.094 266.085 175.825 265.55 175.398 265.157C174.971 264.764 174.416 264.541 173.836 264.529H140.914C140.64 264.526 140.37 264.581 140.119 264.689C139.868 264.798 139.643 264.958 139.459 265.159C139.274 265.36 139.133 265.598 139.047 265.857C138.96 266.116 138.928 266.39 138.954 266.662C139.012 267.241 139.28 267.779 139.707 268.175C140.134 268.57 140.691 268.795 141.273 268.807Z" fill="#263238"/>
<path opacity="0.2" d="M154.888 275.9H174.84C175.113 275.903 175.384 275.848 175.635 275.74C175.885 275.631 176.11 275.471 176.295 275.27C176.48 275.069 176.62 274.831 176.707 274.572C176.794 274.313 176.825 274.039 176.799 273.767C176.742 273.188 176.474 272.65 176.047 272.255C175.62 271.859 175.062 271.634 174.48 271.622H154.578C154.304 271.619 154.032 271.674 153.781 271.783C153.529 271.892 153.303 272.053 153.118 272.256C152.933 272.458 152.793 272.698 152.707 272.958C152.621 273.219 152.591 273.494 152.619 273.767C152.678 274.336 152.94 274.864 153.357 275.256C153.773 275.648 154.317 275.876 154.888 275.9Z" fill="#263238"/>
<path d="M160.047 296.05H134.143C133.738 296.044 133.336 296.125 132.964 296.285C132.592 296.446 132.259 296.683 131.985 296.981C131.711 297.28 131.503 297.633 131.375 298.017C131.247 298.402 131.201 298.809 131.242 299.212L131.638 303.837C131.721 304.696 132.116 305.494 132.75 306.08C133.383 306.666 134.211 306.997 135.073 307.012H160.964C161.371 307.017 161.774 306.937 162.146 306.776C162.519 306.614 162.854 306.376 163.128 306.076C163.402 305.776 163.61 305.421 163.737 305.036C163.864 304.65 163.908 304.241 163.866 303.837L163.482 299.212C163.391 298.357 162.993 297.565 162.361 296.983C161.728 296.401 160.906 296.069 160.047 296.05Z" fill="#407BFF"/>
<path d="M158.026 302.969H159.538L159.811 303.676H161.2L159.216 299.373H157.753L156.513 303.676H157.902L158.026 302.969ZM158.224 302.039L158.559 300.489L159.166 302.039H158.224Z" fill="white"/>
<path d="M153.14 301.915L151.999 302.275C152.092 302.575 152.244 302.853 152.446 303.093C152.629 303.306 152.858 303.476 153.115 303.589C153.424 303.707 153.752 303.762 154.082 303.75C154.469 303.768 154.854 303.7 155.211 303.552C155.518 303.395 155.766 303.143 155.918 302.833C156.116 302.425 156.19 301.968 156.128 301.518C156.107 300.9 155.855 300.311 155.422 299.869C154.962 299.472 154.367 299.268 153.76 299.299C153.323 299.274 152.89 299.387 152.52 299.621C152.203 299.877 151.987 300.237 151.912 300.638L153.152 300.898C153.17 300.799 153.203 300.702 153.252 300.613C153.312 300.514 153.397 300.432 153.5 300.378C153.61 300.317 153.734 300.287 153.859 300.291C154.002 300.289 154.144 300.321 154.271 300.386C154.398 300.451 154.508 300.546 154.591 300.663C154.748 300.916 154.833 301.208 154.839 301.506C154.906 301.838 154.858 302.184 154.702 302.486C154.638 302.578 154.55 302.652 154.447 302.7C154.345 302.748 154.232 302.768 154.12 302.758C154.01 302.766 153.9 302.75 153.798 302.711C153.695 302.673 153.602 302.613 153.524 302.535C153.337 302.372 153.203 302.156 153.14 301.915Z" fill="white"/>
<path d="M148.453 301.915L147.312 302.275C147.41 302.572 147.561 302.85 147.758 303.093C147.942 303.306 148.171 303.476 148.428 303.589C148.736 303.707 149.065 303.762 149.395 303.75C149.781 303.768 150.167 303.7 150.524 303.552C150.831 303.395 151.079 303.143 151.23 302.833C151.429 302.425 151.502 301.968 151.441 301.518C151.42 300.9 151.168 300.311 150.734 299.869C150.276 299.47 149.68 299.265 149.073 299.299C148.636 299.274 148.202 299.387 147.833 299.621C147.516 299.877 147.3 300.238 147.225 300.638L148.465 300.898C148.483 300.799 148.516 300.702 148.564 300.613C148.629 300.513 148.719 300.432 148.825 300.378C148.93 300.317 149.05 300.287 149.172 300.291C149.315 300.288 149.457 300.32 149.585 300.385C149.712 300.45 149.822 300.545 149.904 300.663C150.066 300.914 150.152 301.207 150.152 301.506C150.221 301.837 150.177 302.182 150.028 302.486C149.959 302.577 149.869 302.65 149.765 302.698C149.661 302.746 149.547 302.766 149.432 302.758C149.319 302.772 149.204 302.761 149.095 302.727C148.986 302.693 148.885 302.636 148.8 302.56C148.634 302.376 148.514 302.155 148.453 301.915Z" fill="white"/>
<path d="M146.419 299.373H142.848L142.935 300.291H145.167L145.229 300.973H143.146L143.232 301.853H145.303L145.378 302.709H143.071L143.158 303.676H146.791L146.419 299.373Z" fill="white"/>
<path d="M142.079 299.373H139.86C139.67 299.355 139.478 299.377 139.296 299.437C139.115 299.497 138.948 299.593 138.806 299.72C138.689 299.852 138.604 300.009 138.557 300.179C138.51 300.349 138.501 300.527 138.533 300.7C138.542 300.893 138.589 301.083 138.672 301.257C138.755 301.432 138.872 301.588 139.016 301.717C139.37 301.988 139.813 302.117 140.256 302.076H140.988L141.124 303.676H142.464L142.079 299.373ZM140.839 301.208H140.517C140.325 301.224 140.133 301.176 139.971 301.072C139.92 301.033 139.878 300.985 139.846 300.929C139.814 300.874 139.794 300.813 139.786 300.749C139.777 300.686 139.782 300.621 139.799 300.56C139.816 300.498 139.845 300.44 139.884 300.39C139.952 300.332 140.031 300.289 140.117 300.264C140.202 300.238 140.292 300.23 140.38 300.241H140.765L140.839 301.208Z" fill="white"/>
<path d="M138.024 299.373H133.92L134.019 300.44H135.371L135.656 303.676H136.983L136.71 300.44H138.062L138.024 299.373Z" fill="white"/>
<path opacity="0.5" d="M193.229 343.282H206.361C206.725 343.285 207.086 343.212 207.421 343.066C207.755 342.921 208.054 342.707 208.3 342.438C208.546 342.168 208.732 341.85 208.847 341.504C208.961 341.158 209.001 340.792 208.965 340.43L207.861 327.31C207.78 326.543 207.422 325.831 206.853 325.308C206.285 324.785 205.546 324.488 204.774 324.471H191.654C191.291 324.465 190.93 324.537 190.596 324.681C190.261 324.825 189.961 325.038 189.715 325.306C189.47 325.575 189.283 325.892 189.169 326.237C189.054 326.583 189.014 326.948 189.05 327.31L190.154 340.43C190.232 341.198 190.587 341.911 191.154 342.436C191.72 342.961 192.457 343.261 193.229 343.282Z" fill="#407BFF"/>
<path opacity="0.25" d="M137.144 353.512H208.717C208.889 353.512 209.06 353.477 209.219 353.408C209.377 353.339 209.519 353.237 209.636 353.11C209.752 352.983 209.841 352.832 209.896 352.669C209.952 352.505 209.972 352.332 209.957 352.16C209.918 351.799 209.749 351.464 209.483 351.218C209.216 350.972 208.869 350.831 208.506 350.821H136.933C136.762 350.82 136.592 350.855 136.435 350.924C136.277 350.992 136.136 351.092 136.019 351.218C135.903 351.344 135.814 351.493 135.758 351.655C135.701 351.817 135.679 351.989 135.693 352.16C135.729 352.523 135.896 352.861 136.164 353.11C136.431 353.358 136.779 353.501 137.144 353.512Z" fill="#407BFF"/>
<path opacity="0.2" d="M146.618 332.456H179.54C179.813 332.461 180.085 332.408 180.337 332.3C180.588 332.193 180.814 332.033 180.999 331.831C181.184 331.629 181.325 331.391 181.411 331.131C181.497 330.871 181.527 330.596 181.499 330.324C181.441 329.748 181.175 329.213 180.75 328.82C180.325 328.427 179.771 328.203 179.192 328.191H146.258C145.984 328.186 145.713 328.239 145.461 328.347C145.209 328.455 144.984 328.615 144.798 328.816C144.613 329.018 144.473 329.256 144.387 329.516C144.301 329.776 144.271 330.051 144.299 330.324C144.356 330.902 144.625 331.438 145.052 331.831C145.48 332.225 146.037 332.447 146.618 332.456Z" fill="#263238"/>
<path opacity="0.2" d="M160.233 339.562H180.073C180.347 339.565 180.619 339.51 180.871 339.401C181.122 339.291 181.348 339.13 181.533 338.928C181.718 338.725 181.858 338.486 181.944 338.225C182.03 337.965 182.06 337.689 182.032 337.416C181.972 336.841 181.705 336.308 181.28 335.916C180.856 335.523 180.303 335.299 179.726 335.284H159.811C159.538 335.281 159.267 335.335 159.017 335.444C158.766 335.552 158.541 335.712 158.356 335.913C158.171 336.114 158.031 336.352 157.944 336.611C157.857 336.87 157.826 337.144 157.852 337.416C157.911 338.006 158.187 338.553 158.627 338.949C159.068 339.346 159.64 339.564 160.233 339.562Z" fill="#263238"/>
<path d="M476.234 179.329C476.11 186.769 475.714 199.838 479.632 204.426C470.629 207.37 462.553 212.62 456.208 219.654C450.839 210.874 457.833 206.162 457.833 206.162C465.57 203.682 464.033 198.822 462.433 193.465L476.234 179.329Z" fill="#B55B52"/>
<path d="M482.98 217.781L487.543 226.56L492.044 235.352C493.508 238.291 494.946 241.217 496.273 244.106C496.93 245.557 497.513 246.996 498.083 248.384C498.577 249.562 498.992 250.772 499.323 252.005V250.034C499.167 251.822 498.839 253.591 498.344 255.316C497.8 257.229 497.145 259.108 496.384 260.946C495.616 262.843 494.735 264.74 493.793 266.637C492.85 268.534 491.796 270.481 490.854 272.254L490.718 272.49C490.312 273.237 490.18 274.102 490.344 274.936C490.509 275.77 490.959 276.52 491.618 277.057C492.277 277.594 493.103 277.883 493.953 277.876C494.803 277.869 495.623 277.564 496.273 277.016C498.134 275.459 499.875 273.764 501.481 271.944C503.081 270.135 504.563 268.226 505.92 266.228C507.336 264.151 508.58 261.961 509.64 259.681C510.796 257.24 511.662 254.673 512.219 252.03C512.312 251.497 512.312 250.951 512.219 250.418V250.058C511.945 247.991 511.497 245.95 510.88 243.958C510.334 242.16 509.714 240.473 509.082 238.799C507.842 235.476 506.466 232.289 505.04 229.152C503.614 226.015 502.126 222.952 500.588 219.864C499.05 216.777 497.463 213.813 495.727 210.788C494.769 209.163 493.218 207.974 491.4 207.47C489.583 206.967 487.641 207.189 485.983 208.089C484.326 208.989 483.083 210.498 482.516 212.296C481.949 214.095 482.102 216.044 482.943 217.732L482.98 217.781Z" fill="#B55B52"/>
<path d="M486.427 274.858L488.114 273.792L492.9 270.717L496.31 275.801C495.07 280.761 490.11 283.129 490.11 283.129L488.213 283.563C487.556 283.732 486.859 283.644 486.264 283.317C485.67 282.989 485.223 282.448 485.014 281.802L484.468 280.339C484.157 279.337 484.18 278.26 484.534 277.272C484.887 276.284 485.551 275.437 486.427 274.858Z" fill="#B55B52"/>
<path d="M391.183 253.072L368.726 240.163C368.377 239.957 367.987 239.827 367.584 239.782C367.18 239.737 366.772 239.778 366.385 239.902C365.999 240.027 365.643 240.231 365.341 240.503C365.04 240.774 364.799 241.106 364.634 241.478L362.688 245.681C362.334 246.468 362.281 247.357 362.54 248.18C362.798 249.002 363.349 249.702 364.089 250.145L386.545 263.041C386.89 263.25 387.275 263.383 387.675 263.433C388.075 263.484 388.481 263.449 388.867 263.332C389.253 263.215 389.61 263.019 389.915 262.755C390.22 262.491 390.466 262.166 390.637 261.801L392.584 257.598C392.955 256.804 393.017 255.901 392.758 255.064C392.499 254.227 391.937 253.517 391.183 253.072Z" fill="#407BFF"/>
<path d="M385.975 258.056L387.289 258.813L387.178 259.569L388.356 260.251L388.777 255.514L387.537 254.795L384.313 257.908L385.553 258.602L385.975 258.056ZM386.62 257.35L387.686 256.184L387.438 257.821L386.62 257.35Z" fill="white"/>
<path d="M382.267 254.721L381.102 254.46C381.046 254.768 381.046 255.083 381.102 255.39C381.159 255.663 381.273 255.921 381.436 256.147C381.644 256.406 381.901 256.621 382.193 256.779C382.523 256.987 382.896 257.118 383.284 257.164C383.628 257.182 383.968 257.086 384.251 256.891C384.626 256.64 384.915 256.281 385.082 255.862C385.373 255.314 385.448 254.677 385.293 254.076C385.083 253.508 384.673 253.036 384.14 252.749C383.774 252.505 383.338 252.387 382.9 252.414C382.502 252.482 382.139 252.683 381.87 252.985L382.776 253.816C382.846 253.74 382.925 253.674 383.011 253.617C383.112 253.558 383.229 253.532 383.346 253.543C383.468 253.545 383.588 253.579 383.693 253.642C383.821 253.707 383.931 253.804 384.011 253.923C384.092 254.043 384.14 254.181 384.152 254.324C384.158 254.623 384.085 254.918 383.941 255.18C383.835 255.502 383.626 255.781 383.346 255.973C383.241 256.015 383.128 256.031 383.016 256.02C382.904 256.01 382.796 255.972 382.701 255.911C382.507 255.809 382.36 255.636 382.292 255.428C382.222 255.198 382.214 254.955 382.267 254.721Z" fill="white"/>
<path d="M378.2 252.377L377.034 252.117C376.967 252.423 376.967 252.74 377.034 253.047C377.081 253.327 377.196 253.591 377.369 253.816C377.576 254.075 377.834 254.29 378.126 254.448C378.452 254.655 378.821 254.786 379.204 254.832C379.548 254.85 379.888 254.755 380.172 254.56C380.553 254.308 380.848 253.944 381.015 253.518C381.306 252.974 381.377 252.339 381.213 251.745C381.018 251.168 380.604 250.692 380.06 250.418C379.695 250.173 379.259 250.055 378.82 250.083C378.421 250.148 378.057 250.349 377.791 250.654L378.708 251.484C378.77 251.4 378.851 251.332 378.944 251.286C379.044 251.224 379.162 251.198 379.279 251.212C379.401 251.216 379.52 251.25 379.626 251.311C379.751 251.378 379.858 251.476 379.936 251.595C380.014 251.714 380.061 251.851 380.072 251.993C380.063 252.309 379.987 252.62 379.848 252.905C379.709 253.189 379.511 253.44 379.266 253.642C379.162 253.683 379.049 253.698 378.937 253.688C378.825 253.677 378.717 253.64 378.622 253.58C378.428 253.478 378.281 253.305 378.212 253.096C378.147 252.862 378.143 252.614 378.2 252.377Z" fill="white"/>
<path d="M377.716 249.166L374.616 247.38L374.232 248.223L376.166 249.339L375.881 249.959L374.083 248.93L373.711 249.724L375.509 250.753L375.15 251.534L373.153 250.381L372.744 251.274L375.894 253.084L377.716 249.166Z" fill="white"/>
<path d="M373.947 246.996L372.025 245.892C371.869 245.785 371.693 245.71 371.508 245.672C371.323 245.634 371.132 245.633 370.946 245.669C370.779 245.724 370.626 245.816 370.499 245.938C370.372 246.061 370.275 246.21 370.214 246.376C370.125 246.548 370.071 246.737 370.056 246.931C370.041 247.125 370.066 247.32 370.128 247.504C370.296 247.912 370.61 248.244 371.008 248.434L371.64 248.794L370.958 250.257L372.124 250.926L373.947 246.996ZM372 248L371.715 247.839C371.54 247.759 371.396 247.624 371.306 247.454C371.278 247.392 371.264 247.324 371.264 247.256C371.264 247.188 371.278 247.12 371.306 247.058C371.359 246.946 371.452 246.858 371.566 246.81C371.655 246.796 371.745 246.8 371.833 246.821C371.92 246.842 372.002 246.88 372.074 246.934L372.397 247.132L372 248Z" fill="white"/>
<path d="M370.438 244.974L366.916 242.966L366.47 243.933L367.71 244.602L366.333 247.566L367.486 248.223L368.863 245.272L370.103 245.942L370.438 244.974Z" fill="white"/>
<path d="M398.4 255.105L402.12 256.792C402.849 257.115 403.421 257.713 403.711 258.457C404.002 259.2 403.987 260.027 403.67 260.76L402.343 263.872C402.176 264.245 401.925 264.574 401.608 264.832C401.292 265.091 400.919 265.272 400.52 265.36C397.346 266.017 392.77 264.194 389.484 262.545C388.946 262.282 388.471 261.908 388.089 261.447C387.707 260.987 387.428 260.45 387.269 259.873C387.111 259.296 387.077 258.692 387.17 258.1C387.264 257.509 387.482 256.945 387.81 256.444L389.248 254.237C389.859 253.32 390.803 252.678 391.879 252.446C392.956 252.214 394.081 252.412 395.014 252.997L398.4 255.105Z" fill="#B55B52"/>
<path d="M489.366 205.022C495.888 207.911 501.853 214.793 506.726 227.515C505.151 232.76 489.031 241.366 489.031 241.366C489.031 241.366 468.918 198.698 489.366 205.022Z" fill="#263238"/>
<path d="M435.525 221.315C435.587 226.052 427.763 237.001 436.765 243.35C437.546 252.91 438.613 262.322 440.659 278.008H488.82C484.245 260.648 488.2 248.98 495.541 218.488C495.958 216.848 496.016 215.137 495.711 213.473C495.407 211.808 494.746 210.229 493.775 208.844C492.803 207.458 491.544 206.298 490.084 205.444C488.623 204.589 486.995 204.061 485.311 203.893C483.402 203.695 481.368 203.534 479.285 203.434C472.007 202.919 464.702 202.919 457.424 203.434C455.055 203.658 452.612 203.955 450.269 204.278C446.171 204.866 442.424 206.913 439.716 210.043C437.007 213.173 435.519 217.176 435.525 221.315Z" fill="#263238"/>
<path d="M457.238 201.934C468.336 199.107 492.106 199.454 496.434 202.79C500.762 206.125 491.66 211.829 491.139 212.288C494.276 214.036 491.139 223.088 478.107 225.581C465.074 228.073 462.198 211.941 458.428 208.556C456.506 206.832 455.452 204.166 457.238 201.934Z" fill="#407BFF"/>
<path opacity="0.2" d="M489.366 211.904C482.844 212.796 468.906 209.696 464.157 208.246C470.233 211.494 485.77 217.409 489.366 211.904Z" fill="black"/>
<path d="M437.013 215.574C436.344 218.885 435.686 222.357 434.942 225.73C434.198 229.102 433.479 232.512 432.698 235.848C431.917 239.184 431.049 242.494 430.106 245.669C429.635 247.256 429.102 248.806 428.581 250.257C428.113 251.573 427.549 252.854 426.895 254.088L429.375 251.844C429.375 251.844 429.288 251.844 429.251 251.918C429.214 251.993 428.904 252.055 428.73 252.142L427.155 252.613C426.002 252.935 424.675 253.208 423.435 253.468C420.831 253.964 418.116 254.448 415.388 254.87L407.117 256.172C404.364 256.643 401.562 257.052 398.809 257.548C397.952 257.704 397.178 258.161 396.629 258.837C396.08 259.514 395.792 260.364 395.816 261.235C395.84 262.106 396.175 262.94 396.76 263.585C397.346 264.23 398.143 264.644 399.007 264.752C401.896 265.112 404.736 265.298 407.613 265.509C410.49 265.72 413.354 265.769 416.293 265.794C419.232 265.819 422.096 265.794 425.084 265.558C426.585 265.447 428.098 265.323 429.71 265.087C430.528 264.976 431.359 264.827 432.276 264.616C432.76 264.48 433.182 264.393 433.764 264.194C434.054 264.11 434.34 264.01 434.62 263.897L435.637 263.438C436.518 263.025 437.271 262.382 437.819 261.578L438.067 261.194C439.25 259.384 440.291 257.485 441.18 255.514C442.023 253.692 442.705 251.894 443.374 250.12C444.689 246.549 445.78 243.015 446.76 239.469C447.739 235.922 448.607 232.388 449.401 228.842C450.194 225.296 450.889 221.774 451.459 218.079C451.76 216.198 451.312 214.274 450.21 212.72C449.109 211.166 447.442 210.105 445.568 209.766C443.694 209.427 441.761 209.836 440.185 210.906C438.609 211.975 437.514 213.62 437.137 215.487L437.013 215.574Z" fill="#B55B52"/>
<path d="M446.164 205.369C440.225 208.32 434.335 214.049 431.892 227.168C433.43 232.364 454.658 242.37 454.658 242.37C454.658 242.37 466.476 197.78 446.164 205.369Z" fill="#263238"/>
<path d="M447.008 173.6C447.119 174.542 446.71 175.386 446.09 175.472C445.47 175.559 444.85 174.89 444.751 173.947C444.652 173.005 445.048 172.162 445.668 172.062C446.288 171.963 446.884 172.658 447.008 173.6Z" fill="#263238"/>
<path d="M445.941 172.075L443.585 171.777C443.585 171.777 444.974 173.364 445.941 172.075Z" fill="#263238"/>
<path d="M446.735 174.629C446.156 176.92 445.272 179.122 444.106 181.176C444.641 181.444 445.227 181.591 445.825 181.609C446.422 181.626 447.016 181.512 447.566 181.276L446.735 174.629Z" fill="#A02724"/>
<path d="M444.8 167.102C444.66 167.1 444.526 167.042 444.428 166.941C444.325 166.835 444.268 166.693 444.268 166.544C444.268 166.396 444.325 166.254 444.428 166.148C445.066 165.5 445.848 165.014 446.711 164.73C447.573 164.445 448.491 164.37 449.388 164.511C449.46 164.527 449.527 164.557 449.587 164.6C449.646 164.642 449.697 164.696 449.735 164.759C449.773 164.821 449.798 164.891 449.809 164.963C449.82 165.036 449.816 165.11 449.798 165.18C449.762 165.326 449.671 165.452 449.543 165.531C449.415 165.61 449.262 165.636 449.116 165.602C448.409 165.508 447.691 165.581 447.017 165.813C446.343 166.046 445.733 166.432 445.234 166.941C445.178 166.998 445.11 167.042 445.035 167.07C444.96 167.098 444.88 167.109 444.8 167.102Z" fill="#263238"/>
<path d="M478.032 165.627C478.789 177.32 479.347 182.243 474.312 189.1C466.736 199.392 452.389 198.152 448.272 187.004C444.552 176.973 443.92 159.538 454.547 153.177C456.833 151.764 459.449 150.973 462.135 150.884C464.821 150.795 467.484 151.411 469.858 152.67C472.233 153.928 474.237 155.787 475.671 158.06C477.105 160.333 477.919 162.942 478.032 165.627Z" fill="#B55B52"/>
<path d="M455.08 176.179C447.119 173.079 448.173 164.201 452.302 160.679C444.23 163.99 438.662 161.411 444.763 152.619C450.864 143.828 484.245 141.98 479.632 155.62C494.512 150.834 490.147 170.636 489.366 183.619C500.129 194.469 473.345 203.881 456.407 198.4C439.468 192.919 455.08 176.179 455.08 176.179Z" fill="#263238"/>
<path d="M458.13 174.542C457.2 177.518 456.89 178.796 455.08 180.222C452.377 182.367 449.215 181.214 449.302 178.176C449.376 175.435 450.876 171.033 453.914 170.054C456.952 169.074 459.06 171.566 458.13 174.542Z" fill="#B55B52"/>
<path d="M440.671 278.008C440.671 278.008 438.972 340.169 436.703 381.077C434.298 418.599 431.21 506.379 431.21 506.379L440.684 506.875C440.684 506.875 461.677 433.02 460.784 388.393C485.423 325.971 476.569 279.88 476.569 279.88L440.671 278.008Z" fill="#B55B52"/>
<path d="M431.917 502.46C431.706 502.308 431.452 502.226 431.191 502.226C430.931 502.226 430.677 502.308 430.466 502.46C425.915 505.852 420.394 507.691 414.718 507.706C408.419 507.978 409.981 511.426 418.996 512.566C429.586 513.893 431.867 516.063 435.29 516.931C438.712 517.799 441.49 515.183 441.366 507.991C441.359 507.744 441.279 507.504 441.135 507.303C440.991 507.102 440.791 506.949 440.56 506.862C437.519 505.732 434.619 504.255 431.917 502.46Z" fill="#263238"/>
<path d="M453.257 278.008C453.257 278.008 470.617 351.577 480.674 385.814C491.251 421.774 499.621 503.837 499.571 506.565H507.768C507.768 506.565 518.37 440.051 505.288 385.789C504.048 297.749 488.87 278.008 488.87 278.008H453.257Z" fill="#B55B52"/>
<path d="M499.348 503.589C499.134 503.498 498.895 503.482 498.67 503.542C498.445 503.603 498.247 503.737 498.108 503.924C495.988 506.664 494.388 509.714 488.188 512.393C483.017 514.612 485.869 517.638 493.991 516.522C503.527 515.22 503.651 516.77 506.875 516.77C510.099 516.77 511.599 513.571 509.256 506.614C509.179 506.384 509.042 506.178 508.859 506.019C508.676 505.86 508.453 505.753 508.214 505.709C505.183 505.367 502.206 504.655 499.348 503.589Z" fill="#263238"/>
<path d="M508.264 368.974C509.231 378.064 511.016 397.767 511.016 397.767C511.016 397.767 482.496 403.62 432.5 400.681C432.76 394.68 432.81 386 432.81 386L508.264 368.974Z" fill="#263238"/>
<path d="M440.671 277.76C433.741 317.821 430.573 358.443 431.21 399.094C458.262 398.856 485.238 396.179 511.81 391.096C511.81 391.096 510.347 305.958 488.82 277.772C476.383 274.834 440.956 276.805 440.671 277.76Z" fill="#407BFF"/>
<path opacity="0.2" d="M490.842 311.649C476.371 322.611 465.397 324.682 465.397 324.682C465.397 324.682 477.239 328.873 490.842 311.649Z" fill="black"/>
<path d="M163.854 494.066H163.928C163.968 494.058 164.005 494.043 164.039 494.021C164.072 493.999 164.101 493.97 164.123 493.936C164.145 493.903 164.16 493.865 164.167 493.825C164.174 493.786 164.173 493.745 164.164 493.706C157.728 463.537 160.741 434.905 173.104 408.58C180.696 392.212 191.662 377.634 205.282 365.8C205.312 365.772 205.335 365.739 205.351 365.701C205.368 365.664 205.376 365.624 205.376 365.583C205.376 365.542 205.368 365.502 205.351 365.465C205.335 365.427 205.312 365.394 205.282 365.366C205.222 365.308 205.142 365.276 205.059 365.276C204.976 365.276 204.896 365.308 204.836 365.366C191.153 377.243 180.133 391.876 172.496 408.307C160.096 434.744 157.046 463.524 163.506 493.867C163.532 493.936 163.58 493.994 163.644 494.03C163.707 494.066 163.782 494.079 163.854 494.066Z" fill="#263238"/>
<path d="M152.26 437.559C154.322 442.017 157.473 445.885 161.423 448.806C162.094 443.921 161.407 438.945 159.439 434.425C157.47 429.904 154.296 426.012 150.263 423.175C149.709 428.061 150.396 433.008 152.26 437.559Z" fill="#263238"/>
<path d="M181.139 400.061C177.11 402.871 173.852 406.649 171.666 411.048C176.594 410.856 181.374 409.309 185.48 406.576C189.587 403.844 192.86 400.032 194.94 395.56C190.034 395.874 185.287 397.422 181.139 400.061Z" fill="#263238"/>
<path d="M186 369.334C185.337 374.2 185.908 379.155 187.662 383.743C190.856 379.991 192.959 375.433 193.739 370.568C194.52 365.702 193.949 360.716 192.088 356.153C188.984 359.966 186.89 364.499 186 369.334Z" fill="#407BFF"/>
<path d="M202.69 365.341C202.637 365.817 202.726 366.298 202.945 366.723C203.165 367.148 203.506 367.498 203.925 367.729C204.344 367.96 204.822 368.062 205.299 368.021C205.776 367.98 206.23 367.799 206.604 367.5C206.977 367.201 207.254 366.798 207.398 366.342C207.543 365.886 207.549 365.397 207.415 364.937C207.282 364.478 207.015 364.068 206.648 363.76C206.282 363.453 205.832 363.261 205.356 363.208C204.723 363.155 204.094 363.346 203.598 363.743C203.102 364.14 202.777 364.712 202.69 365.341Z" fill="#407BFF"/>
<path d="M156.575 487.903C156.635 487.903 156.695 487.886 156.745 487.853C156.796 487.819 156.836 487.772 156.86 487.717C167.288 462.917 169.384 437.844 163.06 413.242C159.206 397.978 152.17 383.699 142.414 371.343C142.385 371.313 142.35 371.289 142.312 371.273C142.274 371.256 142.232 371.248 142.191 371.248C142.149 371.248 142.108 371.256 142.07 371.273C142.031 371.289 141.996 371.313 141.968 371.343C141.911 371.401 141.879 371.479 141.879 371.56C141.879 371.641 141.911 371.719 141.968 371.777C151.648 384.055 158.624 398.241 162.44 413.404C168.714 437.856 166.644 462.78 156.24 487.469C156.224 487.507 156.216 487.548 156.216 487.59C156.216 487.631 156.224 487.672 156.24 487.71C156.257 487.748 156.28 487.783 156.31 487.812C156.34 487.84 156.375 487.863 156.414 487.878L156.575 487.903Z" fill="#263238"/>
<path d="M170.76 461.131C168.799 463.186 166.351 464.712 163.643 465.57C164.186 462.77 165.491 460.174 167.414 458.068C169.337 455.961 171.803 454.425 174.542 453.629C173.932 456.408 172.631 458.988 170.76 461.131Z" fill="#407BFF"/>
<path d="M161.746 414.557C163.485 417.232 164.521 420.303 164.759 423.485C161.843 422.164 159.347 420.067 157.543 417.423C155.739 414.779 154.696 411.69 154.529 408.493C157.405 409.876 159.887 411.962 161.746 414.557Z" fill="#407BFF"/>
<path d="M162.242 395.982C162.013 398.589 161.13 401.097 159.675 403.273C158.453 400.943 157.896 398.322 158.067 395.697C158.238 393.072 159.129 390.545 160.642 388.393C161.81 390.746 162.36 393.357 162.242 395.982Z" fill="#407BFF"/>
<path d="M146.692 380.234C148.879 381.674 150.667 383.645 151.888 385.962C149.263 385.926 146.698 385.167 144.476 383.769C142.254 382.371 140.459 380.389 139.289 378.039C141.903 378.132 144.45 378.887 146.692 380.234Z" fill="#407BFF"/>
<path d="M144.262 371.702C144.231 372.116 144.078 372.512 143.822 372.838C143.566 373.165 143.219 373.409 142.825 373.538C142.431 373.667 142.007 373.677 141.607 373.565C141.207 373.453 140.85 373.225 140.58 372.91C140.31 372.595 140.14 372.206 140.091 371.794C140.042 371.382 140.116 370.965 140.305 370.595C140.493 370.225 140.787 369.92 141.149 369.718C141.512 369.515 141.926 369.425 142.34 369.458C142.891 369.502 143.403 369.763 143.763 370.184C144.124 370.604 144.303 371.15 144.262 371.702Z" fill="#407BFF"/>
<path d="M136.673 508.09L137.838 507.656C137.055 505.482 136.669 503.184 136.698 500.873H135.458C135.429 503.332 135.841 505.776 136.673 508.09Z" fill="#407BFF"/>
<path d="M137.64 494.388C138.945 489.947 141.533 485.991 145.08 483.017L144.286 482.062C140.566 485.2 137.857 489.368 136.499 494.041L137.64 494.388Z" fill="#407BFF"/>
<path d="M151.28 482.596L148.8 472.291H171.393L168.913 482.596C172.36 484.248 175.27 486.84 177.308 490.073C179.346 493.307 180.429 497.051 180.432 500.873C180.432 512.033 171.343 516.138 160.134 516.138C148.924 516.138 139.835 512.083 139.835 500.873C139.831 497.059 140.903 493.321 142.928 490.088C144.952 486.855 147.847 484.258 151.28 482.596Z" fill="#407BFF"/>
</svg>
