<svg width="44" height="52" viewBox="0 0 44 52" fill="none" xmlns="http://www.w3.org/2000/svg">
<path fill-rule="evenodd" clip-rule="evenodd" d="M31.6145 23.8868L25.6753 29.826C25.2007 30.3006 24.435 30.3006 23.9604 29.826L20.4108 26.2764C19.9362 25.8018 19.9362 25.0361 20.4108 24.5615C20.8855 24.0868 21.6511 24.0868 22.1257 24.5615L24.8168 27.2526L29.8997 22.1697C30.3743 21.6951 31.14 21.6951 31.6146 22.1697C32.0892 22.6444 32.0892 23.41 31.6146 23.8846L31.6145 23.8868ZM35.1764 16.835C37.5228 19.1814 38.9715 22.4192 38.9715 26C38.9715 29.5784 37.5207 32.8183 35.1764 35.165C32.83 37.5114 29.5922 38.9601 26.0114 38.9601C22.433 38.9601 19.1931 37.5093 16.8464 35.165C14.5 32.8186 13.0513 29.5808 13.0513 26C13.0513 22.4216 14.5021 19.1817 16.8464 16.835C19.1928 14.4886 22.4306 13.0399 26.0114 13.0399C29.5898 13.0399 32.8297 14.4907 35.1764 16.835ZM7.76439 10.9022V45.347C7.76439 46.8988 8.31335 48.3269 9.2234 49.4495H6.63969C5.51293 49.4495 4.48728 48.9893 3.74227 48.2444C2.99726 47.5015 2.53711 46.4758 2.53711 45.347V10.9022C2.53711 8.60529 3.47606 6.51686 4.99286 5.00212C6.50761 3.48737 8.59604 2.54636 10.8929 2.54636H11.7514C11.4666 2.77956 11.1922 3.0272 10.9321 3.2872C8.97991 5.23943 7.76645 7.93667 7.76645 10.9021L7.76439 10.9022ZM0.110352 10.9022V45.347C0.110352 47.1423 0.845008 48.7768 2.02751 49.9593C3.21 51.1418 4.84235 51.8764 6.63985 51.8764H37.3638C39.1591 51.8764 40.7936 51.1418 41.9761 49.9593C43.1586 48.7768 43.8933 47.1444 43.8933 45.347V6.64883C43.8933 4.85345 43.1586 3.21899 41.9761 2.03649C40.7936 0.853996 39.1613 0.119339 37.3638 0.119339H10.8932C7.92769 0.119339 5.23245 1.3328 3.27826 3.28503C1.32397 5.23726 0.11257 7.93451 0.11257 10.9L0.110352 10.9022ZM15.4787 25.9979C15.4787 28.9056 16.657 31.5408 18.5638 33.448C20.4706 35.3552 23.104 36.5332 26.0139 36.5332C28.9217 36.5332 31.5569 35.3548 33.4641 33.448C35.3688 31.5412 36.5492 28.9079 36.5492 25.9979C36.5492 23.0902 35.3709 20.4549 33.4641 18.5478C31.5573 16.6406 28.9239 15.4626 26.0139 15.4626C23.1042 15.4626 20.471 16.641 18.5638 18.5478C16.6567 20.4546 15.4787 23.0879 15.4787 25.9979Z" fill="#2B7FFF"/>
</svg>
