<svg width="38" height="46" viewBox="0 0 38 46" fill="none" xmlns="http://www.w3.org/2000/svg">
<path fill-rule="evenodd" clip-rule="evenodd" d="M27.2411 21.1887L22.1504 26.2794C21.7435 26.6862 21.0873 26.6862 20.6804 26.2794L17.638 23.2369C17.2311 22.8301 17.2311 22.1738 17.638 21.767C18.0448 21.3602 18.7011 21.3602 19.1079 21.767L21.4145 24.0736L25.7712 19.7169C26.1781 19.3101 26.8344 19.3101 27.2412 19.7169C27.648 20.1237 27.648 20.78 27.2412 21.1868L27.2411 21.1887ZM30.2942 15.1443C32.3054 17.1555 33.5471 19.9307 33.5471 23C33.5471 26.0672 32.3036 28.8442 30.2942 30.8557C28.283 32.8669 25.5077 34.1087 22.4385 34.1087C19.3713 34.1087 16.5942 32.8651 14.5828 30.8557C12.5716 28.8445 11.3298 26.0693 11.3298 23C11.3298 19.9328 12.5733 17.1558 14.5828 15.1443C16.594 13.1331 19.3692 11.8914 22.4385 11.8914C25.5057 11.8914 28.2827 13.1349 30.2942 15.1443ZM6.79815 10.059V39.5831C6.79815 40.9133 7.26869 42.1373 8.04874 43.0996H5.83412C4.86833 43.0996 3.9892 42.7052 3.35062 42.0666C2.71204 41.4298 2.31762 40.5507 2.31762 39.5831V10.059C2.31762 8.09025 3.12244 6.30017 4.42256 5.00181C5.72092 3.70346 7.511 2.89687 9.47977 2.89687H10.2156C9.97152 3.09676 9.73625 3.30902 9.51337 3.53188C7.84003 5.20522 6.79992 7.51715 6.79992 10.059L6.79815 10.059ZM0.237549 10.059V39.5831C0.237549 41.122 0.867254 42.523 1.88082 43.5365C2.89439 44.5501 4.29355 45.1798 5.83426 45.1798H32.1691C33.708 45.1798 35.1089 44.5501 36.1225 43.5365C37.1361 42.523 37.7658 41.1238 37.7658 39.5831V6.41328C37.7658 4.87438 37.1361 3.47342 36.1225 2.45985C35.1089 1.44628 33.7098 0.816572 32.1691 0.816572H9.48C6.93812 0.816572 4.62792 1.85668 2.9529 3.53002C1.27779 5.20337 0.239451 7.51529 0.239451 10.0571L0.237549 10.059ZM13.4104 22.9982C13.4104 25.4905 14.4204 27.7493 16.0548 29.384C17.6892 31.0187 19.9464 32.0284 22.4406 32.0284C24.933 32.0284 27.1917 31.0184 28.8264 29.384C30.4591 27.7496 31.4709 25.4925 31.4709 22.9982C31.4709 20.5059 30.4608 18.2471 28.8264 16.6124C27.192 14.9777 24.9349 13.9679 22.4406 13.9679C19.9465 13.9679 17.6895 14.978 16.0548 16.6124C14.4201 18.2468 13.4104 20.5039 13.4104 22.9982Z" fill="#EFF6FF"/>
</svg>
