<svg width="378" height="620" viewBox="0 0 378 620" fill="none" xmlns="http://www.w3.org/2000/svg">
<path d="M620 474.176H0V474.486H620V474.176Z" fill="#EBEBEB"/>
<path d="M118.606 484.704H65.0504V485.014H118.606V484.704Z" fill="#EBEBEB"/>
<path d="M137.504 484.704H129.654V485.014H137.504V484.704Z" fill="#EBEBEB"/>
<path d="M279.186 489.936H163.023V490.246H279.186V489.936Z" fill="#EBEBEB"/>
<path d="M293.88 418.872H54.4484C52.5727 418.869 50.7749 418.121 49.4498 416.794C48.1246 415.466 47.3804 413.667 47.3804 411.792V75.2184C47.3967 73.3535 48.1482 71.5703 49.4716 70.2562C50.795 68.9421 52.5834 68.2032 54.4484 68.2H293.88C295.758 68.2 297.559 68.946 298.887 70.2738C300.214 71.6016 300.96 73.4026 300.96 75.2804V411.792C300.96 413.669 300.214 415.47 298.887 416.798C297.559 418.126 295.758 418.872 293.88 418.872ZM54.4484 68.448C52.6549 68.4513 50.936 69.1661 49.669 70.4354C48.402 71.7047 47.6904 73.4249 47.6904 75.2184V411.792C47.6904 413.585 48.402 415.305 49.669 416.575C50.936 417.844 52.6549 418.559 54.4484 418.562H293.88C295.675 418.559 297.395 417.844 298.664 416.575C299.933 415.306 300.647 413.586 300.65 411.792V75.2184C300.647 73.4238 299.933 71.7036 298.664 70.4346C297.395 69.1657 295.675 68.4513 293.88 68.448H54.4484Z" fill="#EBEBEB"/>
<path d="M562.104 418.872H322.66C320.784 418.869 318.985 418.122 317.657 416.795C316.33 415.467 315.583 413.668 315.58 411.792V75.2184C315.6 73.3524 316.354 71.5692 317.679 70.2554C319.004 68.9417 320.794 68.2032 322.66 68.2H562.104C563.967 68.2065 565.752 68.9468 567.073 70.2606C568.394 71.5743 569.144 73.3556 569.16 75.2184V411.792C569.16 413.665 568.417 415.462 567.095 416.789C565.772 418.117 563.978 418.865 562.104 418.872ZM322.66 68.448C320.866 68.4513 319.146 69.1657 317.877 70.4346C316.608 71.7036 315.893 73.4238 315.89 75.2184V411.792C315.893 413.586 316.608 415.306 317.877 416.575C319.146 417.844 320.866 418.559 322.66 418.562H562.104C563.899 418.559 565.619 417.844 566.888 416.575C568.157 415.306 568.871 413.586 568.875 411.792V75.2184C568.871 73.4238 568.157 71.7036 566.888 70.4346C565.619 69.1657 563.899 68.4513 562.104 68.448H322.66Z" fill="#EBEBEB"/>
<path d="M226.92 114.179H109.529V378.634H226.92V114.179Z" fill="#F5F5F5"/>
<path d="M222.493 373.674L222.493 119.139H113.956L113.956 373.674H222.493Z" fill="#FAFAFA"/>
<path d="M169.471 117.862H166.978V376.154H169.471V117.862Z" fill="#F5F5F5"/>
<path d="M229.623 110.732H106.814V123.182H229.623V110.732Z" fill="#F5F5F5"/>
<path d="M229.623 124.558H106.814V126.034H229.623V124.558Z" fill="#F5F5F5"/>
<path d="M229.623 127.906H106.814V129.382H229.623V127.906Z" fill="#F5F5F5"/>
<path d="M229.623 131.254H106.814V132.73H229.623V131.254Z" fill="#F5F5F5"/>
<path d="M229.623 134.602H106.814V136.078H229.623V134.602Z" fill="#F5F5F5"/>
<path d="M229.623 137.95H106.814V139.426H229.623V137.95Z" fill="#F5F5F5"/>
<path d="M229.623 141.298H106.814V142.774H229.623V141.298Z" fill="#F5F5F5"/>
<path d="M229.623 144.646H106.814V146.122H229.623V144.646Z" fill="#F5F5F5"/>
<path d="M229.623 147.994H106.814V149.47H229.623V147.994Z" fill="#F5F5F5"/>
<path d="M229.623 151.342H106.814V152.818H229.623V151.342Z" fill="#F5F5F5"/>
<path d="M229.623 154.69H106.814V156.166H229.623V154.69Z" fill="#F5F5F5"/>
<path d="M229.623 158.038H106.814V159.514H229.623V158.038Z" fill="#F5F5F5"/>
<path d="M229.623 161.386H106.814V162.862H229.623V161.386Z" fill="#F5F5F5"/>
<path d="M229.623 164.734H106.814V166.21H229.623V164.734Z" fill="#F5F5F5"/>
<path d="M229.623 168.082H106.814V169.558H229.623V168.082Z" fill="#F5F5F5"/>
<path d="M229.623 171.43H106.814V172.906H229.623V171.43Z" fill="#F5F5F5"/>
<path d="M229.623 174.778H106.814V176.254H229.623V174.778Z" fill="#F5F5F5"/>
<path d="M229.623 178.126H106.814V179.602H229.623V178.126Z" fill="#F5F5F5"/>
<path d="M229.623 181.474H106.814V182.95H229.623V181.474Z" fill="#F5F5F5"/>
<path d="M365.912 114.179H248.521V378.634H365.912V114.179Z" fill="#F5F5F5"/>
<path d="M361.485 373.662V119.127H252.948V373.662H361.485Z" fill="#FAFAFA"/>
<path d="M308.462 117.862H305.97V376.154H308.462V117.862Z" fill="#F5F5F5"/>
<path d="M368.615 110.732H245.805V123.182H368.615V110.732Z" fill="#F5F5F5"/>
<path d="M368.615 124.558H245.805V126.034H368.615V124.558Z" fill="#F5F5F5"/>
<path d="M368.615 127.906H245.805V129.382H368.615V127.906Z" fill="#F5F5F5"/>
<path d="M368.615 131.254H245.805V132.73H368.615V131.254Z" fill="#F5F5F5"/>
<path d="M368.615 134.602H245.805V136.078H368.615V134.602Z" fill="#F5F5F5"/>
<path d="M368.615 137.95H245.805V139.426H368.615V137.95Z" fill="#F5F5F5"/>
<path d="M368.615 141.298H245.805V142.774H368.615V141.298Z" fill="#F5F5F5"/>
<path d="M368.615 144.646H245.805V146.122H368.615V144.646Z" fill="#F5F5F5"/>
<path d="M368.615 147.994H245.805V149.47H368.615V147.994Z" fill="#F5F5F5"/>
<path d="M368.615 151.342H245.805V152.818H368.615V151.342Z" fill="#F5F5F5"/>
<path d="M368.615 154.69H245.805V156.166H368.615V154.69Z" fill="#F5F5F5"/>
<path d="M368.615 158.038H245.805V159.514H368.615V158.038Z" fill="#F5F5F5"/>
<path d="M368.615 161.386H245.805V162.862H368.615V161.386Z" fill="#F5F5F5"/>
<path d="M368.615 164.734H245.805V166.21H368.615V164.734Z" fill="#F5F5F5"/>
<path d="M368.615 168.082H245.805V169.558H368.615V168.082Z" fill="#F5F5F5"/>
<path d="M368.615 171.43H245.805V172.906H368.615V171.43Z" fill="#F5F5F5"/>
<path d="M368.615 174.778H245.805V176.254H368.615V174.778Z" fill="#F5F5F5"/>
<path d="M368.615 178.126H245.805V179.602H368.615V178.126Z" fill="#F5F5F5"/>
<path d="M368.615 181.474H245.805V182.95H368.615V181.474Z" fill="#F5F5F5"/>
<path d="M206.41 465.521H235.141L220.026 342.513C219.665 339.942 218.404 337.583 216.467 335.855C214.531 334.127 212.043 333.142 209.448 333.076H84.0844L102.461 465.521H206.41Z" fill="#F5F5F5"/>
<path d="M115.32 465.521H86.552L71.4488 342.513C71.2632 341.33 71.3396 340.121 71.6727 338.972C72.0058 337.822 72.5874 336.76 73.3763 335.859C74.1653 334.959 75.1424 334.243 76.2385 333.763C77.3346 333.282 78.523 333.047 79.7196 333.076H89.6396C92.2352 333.144 94.7228 334.129 96.6613 335.857C98.5998 337.584 99.8638 339.942 100.229 342.513L115.32 465.521Z" fill="#F0F0F0"/>
<path d="M125.872 465.372L120.664 405.852C120.547 404.559 119.991 403.345 119.089 402.411C118.187 401.477 116.993 400.88 115.704 400.718L113.584 400.52C111.861 400.302 110.265 399.5 109.062 398.248C107.86 396.995 107.123 395.368 106.975 393.638L106.02 382.788C105.923 381.734 106.048 380.672 106.384 379.67C106.721 378.667 107.263 377.745 107.976 376.963C108.689 376.182 109.557 375.557 110.525 375.13C111.492 374.702 112.538 374.481 113.596 374.48H65.5836C64.5291 374.481 63.4864 374.701 62.5214 375.127C61.5565 375.552 60.6905 376.173 59.9782 376.951C59.2659 377.728 58.7229 378.645 58.3836 379.644C58.0444 380.642 57.9162 381.7 58.0072 382.751L58.9496 393.601C59.0945 395.338 59.831 396.973 61.0362 398.232C62.2414 399.491 63.8422 400.299 65.5712 400.52L67.7164 400.793C69.0064 400.95 70.2033 401.546 71.1063 402.48C72.0093 403.415 72.5636 404.632 72.6764 405.926L77.8844 465.446C78.0673 467.541 79.0282 469.49 80.5775 470.911C82.1268 472.332 84.1522 473.121 86.2544 473.122H134.267C132.148 473.128 130.105 472.333 128.548 470.895C126.991 469.458 126.035 467.485 125.872 465.372Z" fill="#E6E6E6"/>
<path d="M258.007 390.984C258.404 386.479 260.473 382.286 263.808 379.231C267.143 376.176 271.501 374.481 276.024 374.48H234.224C229.698 374.479 225.337 376.174 222.001 379.232C218.665 382.29 216.597 386.488 216.206 390.997L212.077 438.117H253.878L258.007 390.984Z" fill="#E6E6E6"/>
<path d="M294.599 374.48H275.999C271.475 374.481 267.115 376.178 263.78 379.236C260.444 382.293 258.376 386.489 257.982 390.997L253.853 438.117H154.318L150.189 390.997C149.795 386.489 147.726 382.293 144.391 379.236C141.056 376.178 136.696 374.481 132.172 374.48H113.572C112.517 374.481 111.474 374.701 110.509 375.127C109.545 375.552 108.679 376.173 107.966 376.951C107.254 377.728 106.711 378.645 106.372 379.644C106.032 380.642 105.904 381.7 105.995 382.751L106.95 393.601C107.091 395.341 107.828 396.98 109.036 398.24C110.245 399.501 111.851 400.306 113.584 400.52L115.729 400.793C117.018 400.954 118.212 401.552 119.114 402.485C120.016 403.419 120.572 404.633 120.689 405.926L125.885 465.446C126.068 467.541 127.029 469.49 128.578 470.911C130.127 472.332 132.153 473.121 134.255 473.122H273.966C276.066 473.12 278.09 472.331 279.638 470.91C281.185 469.489 282.143 467.54 282.323 465.446L287.531 405.926C287.648 404.633 288.204 403.419 289.106 402.485C290.009 401.552 291.203 400.954 292.491 400.793L294.636 400.52C296.359 400.302 297.955 399.5 299.158 398.248C300.361 396.995 301.098 395.368 301.246 393.638L302.2 382.788C302.297 381.732 302.172 380.668 301.834 379.664C301.496 378.659 300.951 377.736 300.236 376.954C299.52 376.172 298.649 375.548 297.679 375.122C296.708 374.696 295.659 374.477 294.599 374.48Z" fill="#F0F0F0"/>
<path d="M310 530.174C442.782 530.174 550.424 523.89 550.424 516.138C550.424 508.385 442.782 502.101 310 502.101C177.218 502.101 69.5764 508.385 69.5764 516.138C69.5764 523.89 177.218 530.174 310 530.174Z" fill="#F5F5F5"/>
<path d="M471.262 174.642H209.523C206.537 174.642 204.116 177.062 204.116 180.048V420.62C204.116 423.606 206.537 426.027 209.523 426.027H471.262C474.248 426.027 476.668 423.606 476.668 420.62V180.048C476.668 177.062 474.248 174.642 471.262 174.642Z" fill="#407BFF"/>
<path opacity="0.4" d="M471.262 174.642H209.523C206.537 174.642 204.116 177.062 204.116 180.048V420.62C204.116 423.606 206.537 426.027 209.523 426.027H471.262C474.248 426.027 476.668 423.606 476.668 420.62V180.048C476.668 177.062 474.248 174.642 471.262 174.642Z" fill="white"/>
<path opacity="0.6" d="M207.08 225.196V419.504C207.083 420.441 207.457 421.338 208.119 422C208.781 422.662 209.678 423.035 210.614 423.038H470.134C471.07 423.035 471.967 422.662 472.629 422C473.291 421.338 473.664 420.441 473.668 419.504V225.196H207.08Z" fill="white"/>
<path d="M322.76 188.616H254.77C253.476 188.616 252.427 189.666 252.427 190.96V211.767C252.427 213.062 253.476 214.111 254.77 214.111H322.76C324.054 214.111 325.103 213.062 325.103 211.767V190.96C325.103 189.666 324.054 188.616 322.76 188.616Z" fill="#407BFF"/>
<path d="M285.721 204.265H279L277.549 207.477H276.235L281.728 195.449H282.968L288.461 207.477H287.122L285.721 204.265ZM285.262 203.236L282.373 196.776L279.484 203.236H285.262Z" fill="white"/>
<path d="M290.507 195.449H295.405C299.249 195.449 301.841 197.929 301.841 201.463C301.841 204.997 299.249 207.477 295.405 207.477H290.507V195.449ZM295.331 206.386C296.031 206.479 296.744 206.421 297.42 206.217C298.097 206.013 298.722 205.666 299.253 205.201C299.785 204.735 300.211 204.161 300.503 203.518C300.795 202.874 300.946 202.176 300.946 201.469C300.946 200.762 300.795 200.064 300.503 199.42C300.211 198.777 299.785 198.203 299.253 197.737C298.722 197.272 298.097 196.925 297.42 196.721C296.744 196.517 296.031 196.459 295.331 196.552H291.772V206.386H295.331Z" fill="white"/>
<path d="M304.693 195.449H309.591C313.447 195.449 316.039 197.929 316.039 201.463C316.039 204.997 313.447 207.477 309.591 207.477H304.693V195.449ZM309.529 206.386C310.229 206.479 310.942 206.421 311.618 206.217C312.295 206.013 312.92 205.666 313.451 205.201C313.983 204.735 314.409 204.161 314.701 203.518C314.993 202.874 315.144 202.176 315.144 201.469C315.144 200.762 314.993 200.064 314.701 199.42C314.409 198.777 313.983 198.203 313.451 197.737C312.92 197.272 312.295 196.925 311.618 196.721C310.942 196.517 310.229 196.459 309.529 196.552H305.97V206.386H309.529Z" fill="white"/>
<path d="M269.923 200.744H258.862V201.984H269.923V200.744Z" fill="white"/>
<path d="M265.013 195.833H263.773V206.894H265.013V195.833Z" fill="white"/>
<path d="M240.572 190.91H221.018V210.465H240.572V190.91Z" fill="white"/>
<path d="M240.56 211.085H221.018C220.854 211.082 220.698 211.016 220.583 210.9C220.467 210.784 220.401 210.629 220.398 210.465V190.96C220.398 190.796 220.463 190.638 220.579 190.522C220.696 190.405 220.853 190.34 221.018 190.34H240.56C240.725 190.34 240.882 190.405 240.998 190.522C241.115 190.638 241.18 190.796 241.18 190.96V210.515C241.168 210.67 241.097 210.816 240.982 210.921C240.867 211.027 240.716 211.086 240.56 211.085ZM221.625 209.845H239.94V191.53H221.638L221.625 209.845Z" fill="#407BFF"/>
<path opacity="0.6" d="M451.447 238.043H254.77C253.476 238.043 252.427 239.092 252.427 240.386V261.194C252.427 262.488 253.476 263.537 254.77 263.537H451.447C452.741 263.537 453.79 262.488 453.79 261.194V240.386C453.79 239.092 452.741 238.043 451.447 238.043Z" fill="#407BFF"/>
<g opacity="0.6">
<path d="M240.572 241.837H221.018V261.392H240.572V241.837Z" fill="white"/>
<path d="M240.56 262H221.018C220.853 262 220.696 261.934 220.579 261.818C220.463 261.702 220.398 261.544 220.398 261.38V241.8C220.398 241.636 220.463 241.478 220.579 241.362C220.696 241.245 220.853 241.18 221.018 241.18H240.56C240.725 241.18 240.882 241.245 240.998 241.362C241.115 241.478 241.18 241.636 241.18 241.8V261.342C241.185 261.427 241.173 261.512 241.144 261.591C241.115 261.671 241.07 261.743 241.012 261.805C240.954 261.867 240.884 261.916 240.806 261.949C240.729 261.983 240.645 262 240.56 262ZM221.625 260.76H239.94V242.457H221.638L221.625 260.76Z" fill="#407BFF"/>
</g>
<path d="M263.909 247.616H260.599V246.76H268.225V247.616H264.914V256.184H263.909V247.616Z" fill="white"/>
<path d="M275.28 253.667H270.035L268.906 256.147H267.84L272.155 246.723H273.135L277.438 256.147H276.396L275.28 253.667ZM274.92 252.861L272.664 247.789L270.32 252.861H274.92Z" fill="white"/>
<path d="M278.107 255.043L278.504 254.274C279.366 255.025 280.474 255.431 281.617 255.415C283.377 255.415 284.097 254.671 284.097 253.741C284.097 251.162 278.293 252.749 278.293 249.265C278.293 247.876 279.372 246.673 281.765 246.673C282.8 246.662 283.817 246.951 284.692 247.504L284.344 248.298C283.575 247.8 282.681 247.529 281.765 247.516C280.042 247.516 279.285 248.285 279.285 249.228C279.285 251.819 285.089 250.257 285.089 253.692C285.089 255.08 283.985 256.271 281.579 256.271C280.311 256.3 279.075 255.864 278.107 255.043Z" fill="white"/>
<path d="M290.222 251.72L288.3 253.667V256.147H287.296V246.76H288.3V252.452L293.88 246.76H295.033L290.941 251.026L295.306 256.184H294.066L290.222 251.72Z" fill="white"/>
<path d="M299.584 251.472C299.584 248.471 301.159 246.673 303.304 246.673C305.449 246.673 307.024 248.471 307.024 251.472C307.024 254.473 305.437 256.271 303.304 256.271C301.171 256.271 299.584 254.473 299.584 251.472ZM306.119 251.472C306.119 248.992 304.978 247.566 303.341 247.566C301.705 247.566 300.564 248.955 300.564 251.472C300.564 253.989 301.692 255.378 303.341 255.378C304.991 255.378 306.119 253.989 306.119 251.472Z" fill="white"/>
<path d="M311.091 246.76V256.184H310.124V247.616H307.892V246.76H311.091Z" fill="white"/>
<path opacity="0.6" d="M452.042 273.11H255.366C254.071 273.11 253.022 274.159 253.022 275.454V296.261C253.022 297.555 254.071 298.604 255.366 298.604H452.042C453.336 298.604 454.386 297.555 454.386 296.261V275.454C454.386 274.159 453.336 273.11 452.042 273.11Z" fill="#407BFF"/>
<g opacity="0.6">
<path d="M241.18 276.892H221.625V296.447H241.18V276.892Z" fill="white"/>
<path d="M241.18 297.067H221.625C221.461 297.067 221.303 297.001 221.187 296.885C221.071 296.769 221.005 296.611 221.005 296.447V276.892C221.005 276.728 221.071 276.57 221.187 276.454C221.303 276.337 221.461 276.272 221.625 276.272H241.18C241.343 276.275 241.499 276.342 241.615 276.457C241.731 276.573 241.797 276.729 241.8 276.892V296.447C241.8 296.611 241.735 296.769 241.618 296.885C241.502 297.001 241.344 297.067 241.18 297.067ZM222.245 295.827H240.56V277.512H222.245V295.827Z" fill="#407BFF"/>
</g>
<path d="M263.909 282.72H260.599V281.852H268.225V282.72H264.914V291.288H263.909V282.72Z" fill="white"/>
<path d="M275.28 288.722H270.035L268.906 291.202H267.84L272.155 281.765H273.135L277.438 291.202H276.396L275.28 288.722ZM274.92 287.916L272.664 282.856L270.32 287.916H274.92Z" fill="white"/>
<path d="M278.107 290.16L278.504 289.391C279.361 290.152 280.471 290.563 281.617 290.544C283.377 290.544 284.097 289.8 284.097 288.87C284.097 286.279 278.293 287.878 278.293 284.382C278.293 282.993 279.372 281.802 281.765 281.802C282.8 281.791 283.817 282.08 284.692 282.633L284.344 283.427C283.575 282.929 282.681 282.658 281.765 282.646C280.042 282.646 279.285 283.414 279.285 284.357C279.285 286.948 285.089 285.386 285.089 288.821C285.089 290.21 283.985 291.388 281.579 291.388C280.31 291.423 279.072 290.986 278.107 290.16Z" fill="white"/>
<path d="M290.222 286.812L288.3 288.771V291.251H287.296V281.815H288.3V287.519L293.83 281.815H294.984L290.892 286.093L295.256 291.251H294.016L290.222 286.812Z" fill="white"/>
<path d="M299.584 286.527C299.584 283.526 301.159 281.74 303.304 281.74C305.449 281.74 307.024 283.526 307.024 286.527C307.024 289.528 305.437 291.326 303.304 291.326C301.171 291.326 299.584 289.54 299.584 286.527ZM306.119 286.527C306.119 284.047 304.978 282.621 303.341 282.621C301.705 282.621 300.564 284.01 300.564 286.527C300.564 289.044 301.692 290.433 303.341 290.433C304.991 290.433 306.119 289.056 306.119 286.527Z" fill="white"/>
<path d="M314.96 290.383V291.251H308.351V290.557L312.269 286.725C313.336 285.671 313.509 285.039 313.509 284.394C313.509 283.303 312.74 282.621 311.302 282.621C310.822 282.591 310.342 282.67 309.897 282.853C309.453 283.035 309.055 283.316 308.735 283.675L308.041 283.08C308.467 282.625 308.988 282.27 309.566 282.039C310.145 281.807 310.767 281.706 311.389 281.74C313.298 281.74 314.514 282.708 314.514 284.22C314.491 284.797 314.34 285.36 314.072 285.871C313.804 286.381 313.425 286.826 312.964 287.172L309.752 290.321L314.96 290.383Z" fill="white"/>
<path opacity="0.6" d="M452.65 308.165H255.973C254.679 308.165 253.63 309.214 253.63 310.508V331.316C253.63 332.61 254.679 333.659 255.973 333.659H452.65C453.944 333.659 454.993 332.61 454.993 331.316V310.508C454.993 309.214 453.944 308.165 452.65 308.165Z" fill="#407BFF"/>
<g opacity="0.6">
<path d="M241.788 311.959H222.233V331.514H241.788V311.959Z" fill="white"/>
<path d="M241.8 332.134H222.233C222.068 332.134 221.911 332.069 221.794 331.952C221.678 331.836 221.613 331.678 221.613 331.514V311.959C221.613 311.795 221.678 311.637 221.794 311.521C221.911 311.405 222.068 311.339 222.233 311.339H241.8C241.965 311.339 242.122 311.405 242.239 311.521C242.355 311.637 242.42 311.795 242.42 311.959V331.514C242.417 331.677 242.351 331.833 242.235 331.949C242.119 332.065 241.964 332.131 241.8 332.134ZM222.865 330.894H241.18V312.579H222.853L222.865 330.894Z" fill="#407BFF"/>
</g>
<path d="M263.909 317.738H260.599V316.882H268.225V317.738H264.914V326.306H263.909V317.738Z" fill="white"/>
<path d="M275.28 323.789H270.035L268.894 326.269H267.84L272.143 316.845H273.135L277.438 326.269H276.396L275.28 323.789ZM274.92 322.983L272.664 317.911L270.32 322.983H274.92Z" fill="white"/>
<path d="M278.107 325.165L278.504 324.396C279.366 325.147 280.474 325.553 281.617 325.537C283.377 325.537 284.097 324.806 284.097 323.876C284.097 321.284 278.293 322.871 278.293 319.387C278.293 317.998 279.36 316.795 281.765 316.795C282.802 316.782 283.82 317.075 284.692 317.638L284.344 318.432C283.578 317.929 282.682 317.658 281.765 317.651C280.042 317.651 279.285 318.42 279.285 319.362C279.285 321.941 285.089 320.379 285.089 323.814C285.089 325.202 283.985 326.393 281.579 326.393C280.309 326.431 279.071 325.993 278.107 325.165Z" fill="white"/>
<path d="M290.222 321.879L288.3 323.826V326.306H287.296V316.882H288.3V322.574L293.83 316.882H294.984L290.892 321.148L295.256 326.306H294.016L290.222 321.879Z" fill="white"/>
<path d="M299.584 321.594C299.584 318.593 301.159 316.795 303.304 316.795C305.449 316.795 307.024 318.593 307.024 321.594C307.024 324.595 305.437 326.393 303.304 326.393C301.171 326.393 299.584 324.595 299.584 321.594ZM306.119 321.594C306.119 319.114 304.978 317.688 303.341 317.688C301.705 317.688 300.564 319.077 300.564 321.594C300.564 324.111 301.692 325.5 303.341 325.5C304.991 325.5 306.119 324.111 306.119 321.594Z" fill="white"/>
<path d="M314.6 323.64C314.6 325.215 313.46 326.43 311.178 326.43C309.933 326.465 308.721 326.021 307.793 325.19L308.264 324.421C309.056 325.151 310.102 325.543 311.178 325.512C312.74 325.512 313.658 324.781 313.658 323.615C313.658 322.45 312.864 321.743 311.178 321.743H310.496V321.024L313.112 317.75H308.289V316.894H314.352V317.576L311.686 320.937C313.596 321.024 314.6 322.09 314.6 323.64Z" fill="white"/>
<path opacity="0.6" d="M453.257 343.232H256.581C255.287 343.232 254.237 344.281 254.237 345.576V366.383C254.237 367.677 255.287 368.726 256.581 368.726H453.257C454.552 368.726 455.601 367.677 455.601 366.383V345.576C455.601 344.281 454.552 343.232 453.257 343.232Z" fill="#407BFF"/>
<g opacity="0.6">
<path d="M242.395 347.026H222.84V366.581H242.395V347.026Z" fill="white"/>
<path d="M242.383 367.189H222.84C222.676 367.189 222.518 367.123 222.402 367.007C222.286 366.891 222.22 366.733 222.22 366.569V347.026C222.22 346.862 222.286 346.704 222.402 346.588C222.518 346.472 222.676 346.406 222.84 346.406H242.383C242.547 346.406 242.705 346.472 242.821 346.588C242.938 346.704 243.003 346.862 243.003 347.026V366.569C243.003 366.733 242.938 366.891 242.821 367.007C242.705 367.123 242.547 367.189 242.383 367.189ZM223.46 365.949H241.8V347.646H223.46V365.949Z" fill="#407BFF"/>
</g>
<path d="M263.909 352.805H260.599V351.937H268.225V352.805H264.914V361.373H263.909V352.805Z" fill="white"/>
<path d="M275.28 358.856H270.035L268.894 361.336H267.84L272.143 351.9H273.135L277.438 361.336H276.396L275.28 358.856ZM274.92 358.05L272.664 352.978L270.32 358.05H274.92Z" fill="white"/>
<path d="M278.107 360.22L278.504 359.464C279.366 360.214 280.474 360.621 281.617 360.604C283.377 360.604 284.097 359.86 284.097 358.93C284.097 356.351 278.293 357.938 278.293 354.442C278.293 353.065 279.36 351.862 281.765 351.862C282.8 351.851 283.817 352.14 284.692 352.693L284.344 353.487C283.575 352.989 282.681 352.718 281.765 352.706C280.042 352.706 279.285 353.474 279.285 354.417C279.285 357.008 285.089 355.446 285.089 358.881C285.089 360.27 283.985 361.448 281.579 361.448C280.309 361.485 279.071 361.048 278.107 360.22Z" fill="white"/>
<path d="M290.222 356.934L288.3 358.893V361.373H287.296V351.937H288.3V357.641L293.83 351.937H294.984L290.892 356.215L295.256 361.373H294.016L290.222 356.934Z" fill="white"/>
<path d="M299.584 356.661C299.584 353.648 301.159 351.862 303.304 351.862C305.449 351.862 307.024 353.648 307.024 356.661C307.024 359.674 305.437 361.448 303.304 361.448C301.171 361.448 299.584 359.662 299.584 356.661ZM306.119 356.661C306.119 354.181 304.978 352.755 303.341 352.755C301.705 352.755 300.564 354.132 300.564 356.661C300.564 359.191 301.692 360.567 303.341 360.567C304.991 360.567 306.119 359.178 306.119 356.661Z" fill="white"/>
<path d="M316.522 358.893H314.638V361.373H313.72V358.893H308.401V358.199L313.361 351.937H314.439L309.616 358.025H313.72V355.88H314.662V358.062H316.547L316.522 358.893Z" fill="white"/>
<path opacity="0.6" d="M453.865 378.299H257.188C255.894 378.299 254.845 379.348 254.845 380.643V401.45C254.845 402.744 255.894 403.794 257.188 403.794H453.865C455.159 403.794 456.208 402.744 456.208 401.45V380.643C456.208 379.348 455.159 378.299 453.865 378.299Z" fill="#407BFF"/>
<g opacity="0.6">
<path d="M242.99 382.081H223.436V401.636H242.99V382.081Z" fill="white"/>
<path d="M243.04 402.256H223.436C223.271 402.256 223.114 402.191 222.997 402.074C222.881 401.958 222.816 401.8 222.816 401.636V382.081C222.819 381.918 222.885 381.762 223.001 381.646C223.116 381.531 223.272 381.464 223.436 381.461H243.04C243.205 381.461 243.362 381.527 243.478 381.643C243.595 381.759 243.66 381.917 243.66 382.081V401.636C243.66 401.8 243.595 401.958 243.478 402.074C243.362 402.191 243.205 402.256 243.04 402.256ZM224.105 401.016H242.42V382.701H224.056L224.105 401.016Z" fill="#407BFF"/>
</g>
<path d="M263.909 387.86H260.599V387.004H268.225V387.86H264.914V396.44H263.909V387.86Z" fill="white"/>
<path d="M275.28 393.911H270.035L268.894 396.391H267.84L272.143 386.954H273.135L277.438 396.391H276.396L275.28 393.911ZM274.92 393.105L272.664 388.046L270.32 393.08L274.92 393.105Z" fill="white"/>
<path d="M278.107 395.287L278.504 394.518C279.364 395.274 280.472 395.684 281.617 395.672C283.377 395.672 284.097 394.928 284.097 393.998C284.097 391.406 278.293 392.993 278.293 389.509C278.293 388.12 279.36 386.93 281.765 386.93C282.8 386.919 283.817 387.207 284.692 387.76L284.344 388.554C283.575 388.056 282.681 387.786 281.765 387.773C280.042 387.773 279.285 388.542 279.285 389.484C279.285 392.076 285.089 390.501 285.089 393.948C285.089 395.324 283.985 396.515 281.579 396.515C280.309 396.553 279.071 396.115 278.107 395.287Z" fill="white"/>
<path d="M290.222 392.001L288.3 393.96V396.44H287.296V387.004H288.3V392.708L293.83 387.004H294.984L290.892 391.27L295.256 396.44H294.016L290.222 392.001Z" fill="white"/>
<path d="M299.584 391.716C299.584 388.715 301.159 386.93 303.304 386.93C305.449 386.93 307.024 388.715 307.024 391.716C307.024 394.717 305.437 396.515 303.304 396.515C301.171 396.515 299.584 394.729 299.584 391.716ZM306.119 391.716C306.119 389.236 304.978 387.81 303.341 387.81C301.705 387.81 300.564 389.199 300.564 391.716C300.564 394.233 301.692 395.622 303.341 395.622C304.991 395.622 306.119 394.233 306.119 391.716Z" fill="white"/>
<path d="M314.96 393.663C314.96 395.262 313.844 396.515 311.538 396.515C310.296 396.55 309.088 396.106 308.165 395.275L308.636 394.506C309.418 395.235 310.456 395.627 311.525 395.597C313.137 395.597 314.005 394.816 314.005 393.675C314.005 392.534 313.249 391.704 310.856 391.704H308.76L309.244 386.979H314.402V387.835H310.087L309.765 390.848H311.005C313.819 390.873 314.96 391.989 314.96 393.663Z" fill="white"/>
<path d="M441.118 188.802H354.466C347.96 188.802 342.686 194.074 342.686 200.576C342.686 207.079 347.96 212.35 354.466 212.35H441.118C447.624 212.35 452.898 207.079 452.898 200.576C452.898 194.074 447.624 188.802 441.118 188.802Z" fill="white"/>
<path d="M123.454 486.985L129.444 490.507C132.253 486.727 135.293 483.124 138.545 479.719C140.281 477.884 142.104 475.85 144.001 473.668C147.796 469.315 151.9 464.343 156.203 458.998L160.059 454.175C175.051 435.314 191.258 413.143 197.259 398.152C199.144 393.489 200.062 389.534 199.652 386.57C198.412 377.617 194.94 364.138 190.972 351.118C184.921 331.278 178.114 312.356 178.114 312.356L161.386 340.69C161.386 340.69 166.52 352.929 171.194 365.961C175.795 378.758 179.949 392.336 178.411 395.87C178.262 396.217 178.076 396.626 177.866 397.11C175.138 402.802 167.4 415.834 158.72 430.28L156.054 434.657C151.367 442.345 146.494 450.244 141.98 457.498C140.219 460.35 138.508 463.103 136.884 465.707C129.196 478.02 123.454 486.985 123.454 486.985Z" fill="#B97964"/>
<path opacity="0.2" d="M160.394 454.162C152.483 464.082 144.882 473.134 139.227 479.706C138.421 475.664 137.603 470.878 136.958 465.657C143.493 455.167 151.491 442.221 158.757 430.23C158.603 438.24 159.151 446.248 160.394 454.162Z" fill="black"/>
<path d="M130.547 372.174C132.618 386.297 135.507 399.094 137.491 406.72C138.644 411.296 139.426 413.999 139.426 413.999C139.454 428.502 140.306 442.992 141.98 457.399C142.612 463.078 143.294 468.559 144.001 473.606C146.605 492.379 149.346 505.846 149.346 505.846L156.476 504.916L156.24 458.986L156.091 434.608L155.893 401.438L155.818 395.659L155.471 370.438L154.963 333.238L130.163 322.078C126.802 336.214 128.042 355.161 130.547 372.174Z" fill="#B97964"/>
<path opacity="0.2" d="M196.912 372.397C190.576 376.774 182.032 379.403 176.167 380.816C174.815 376.191 173.067 370.996 171.207 365.936C166.532 352.904 161.398 340.665 161.398 340.665L178.126 312.331C178.126 312.331 184.934 331.192 190.985 351.094C193.242 358.36 195.3 365.726 196.912 372.397Z" fill="black"/>
<path opacity="0.2" d="M155.645 386.037C147.938 385.879 140.245 385.333 132.593 384.4C131.874 380.519 131.167 376.414 130.547 372.186C128.067 355.173 126.827 336.226 130.126 322.09L154.926 333.25L155.434 370.45L155.645 386.037Z" fill="black"/>
<path d="M198.102 369.929C182.59 379.043 136.97 382.912 136.97 382.912L129.53 361.931L130.336 382.689H128.129C128.129 382.689 111.451 326.269 133.61 289.292L173.29 286.229L177.63 306.664C177.63 306.664 188.778 335.953 198.102 369.929Z" fill="#263238"/>
<path d="M169.012 515.046C167.843 514.338 166.552 513.855 165.205 513.62C165.205 513.62 160.828 510.359 157.344 499.15L152.136 498.554C151.247 498.471 150.353 498.664 149.579 499.108C148.804 499.552 148.185 500.225 147.808 501.034C147.697 501.257 147.622 501.495 147.585 501.741C147.498 503.009 147.498 504.281 147.585 505.548C147.895 509.779 148.467 513.986 149.296 518.146L150.201 518.022L149.445 510.062C149.197 507.358 151.702 510.21 152.694 513.025C153.686 515.84 155.384 518.729 161.287 517.985C168.169 517.154 170.984 516.472 169.012 515.046Z" fill="#2E353A"/>
<path d="M146.506 175.919C146.506 175.919 156.426 170.413 164.498 174.518C168.218 176.402 169.545 181.226 170.326 184.983C171.43 190.241 171.566 195.622 172.348 200.93C172.614 203.174 173.256 205.358 174.245 207.39C175.621 210.081 178.436 212.772 177.878 216.07C177.382 218.984 174.406 220.72 171.814 221.514C164.932 223.634 157.145 222.456 150.04 222.915C144.311 223.274 138.793 225.196 133.064 225.395C131.428 225.535 129.786 225.208 128.328 224.452C122.81 221.154 125.215 212.672 127.001 207.96C128.514 203.98 127.398 199.863 127.894 195.684C128.239 191.997 129.107 188.377 130.473 184.934C133.337 178.076 139.091 174.48 146.506 175.919Z" fill="#263238"/>
<path d="M155.905 495.169C155.905 495.169 157.765 500.241 160.245 505.821C161.384 508.714 163.068 511.362 165.205 513.62C165.205 513.62 160.902 515.022 158.571 512.38C156.24 509.739 152.272 499.98 147.808 501.047C148.053 500.254 148.39 499.492 148.812 498.778C149.47 497.612 155.905 495.169 155.905 495.169Z" fill="#B97964"/>
<path d="M125.327 510.632C125.066 509.291 124.571 508.006 123.864 506.838C123.864 506.838 123.405 501.394 129.493 491.362L126.48 487.06C125.955 486.343 125.224 485.803 124.384 485.513C123.544 485.223 122.636 485.195 121.78 485.435C121.544 485.508 121.319 485.612 121.111 485.745C120.107 486.509 119.154 487.337 118.259 488.225C115.294 491.267 112.519 494.489 109.951 497.872L110.645 498.468L116.101 492.615C117.961 490.643 117.49 494.413 116.101 497.017C114.712 499.621 113.621 502.808 118.048 506.776C123.182 511.401 125.55 513.062 125.327 510.632Z" fill="#2E353A"/>
<path d="M131.514 487.642C131.514 487.642 128.96 492.404 126.48 497.959C125.064 500.726 124.197 503.741 123.926 506.838C123.926 506.838 120.02 504.544 120.503 501.01C120.987 497.476 125.662 488.039 121.855 485.435C122.612 485.092 123.407 484.838 124.223 484.679C125.426 484.456 131.514 487.642 131.514 487.642Z" fill="#B97964"/>
<path d="M133.226 285.237L133.002 291.226L174.009 289.627L174.27 282.546L133.226 285.237Z" fill="#263238"/>
<path opacity="0.2" d="M133.226 285.237L133.002 291.226L174.009 289.627L174.27 282.546L133.226 285.237Z" fill="white"/>
<path d="M147.063 283.235L145.029 283.262L145.169 293.615L147.202 293.588L147.063 283.235Z" fill="#263238"/>
<path d="M172.123 281.453L170.089 281.48L170.226 291.833L172.26 291.806L172.123 281.453Z" fill="#263238"/>
<path d="M164.164 283.625C163.922 283.396 163.635 283.222 163.32 283.113C163.006 283.004 162.672 282.963 162.341 282.993L157.492 283.365C156.892 283.409 156.33 283.679 155.92 284.121C155.51 284.562 155.284 285.143 155.285 285.746V288.846C155.282 289.482 155.53 290.093 155.977 290.546C156.423 290.999 157.03 291.257 157.666 291.264H157.877L162.725 290.879C163.325 290.832 163.885 290.562 164.294 290.12C164.703 289.679 164.931 289.1 164.932 288.498V285.411C164.936 285.076 164.869 284.744 164.736 284.437C164.604 284.129 164.409 283.853 164.164 283.625ZM162.601 289.627L157.753 290.024C157.592 290.037 157.431 290.016 157.279 289.963C157.128 289.909 156.989 289.824 156.872 289.714C156.75 289.605 156.653 289.472 156.589 289.321C156.525 289.171 156.494 289.009 156.5 288.846V285.758C156.5 285.467 156.609 285.186 156.807 284.972C157.005 284.758 157.276 284.627 157.567 284.605L162.415 284.22H162.514C162.805 284.219 163.085 284.33 163.296 284.53C163.416 284.64 163.511 284.774 163.576 284.924C163.64 285.074 163.671 285.236 163.668 285.398V285.87C163.602 285.857 163.535 285.857 163.469 285.87L162.118 285.956C161.902 285.975 161.701 286.078 161.56 286.243C161.419 286.407 161.347 286.62 161.361 286.837C161.367 286.944 161.395 287.049 161.442 287.145C161.489 287.241 161.555 287.327 161.636 287.397C161.717 287.468 161.811 287.521 161.913 287.555C162.015 287.589 162.122 287.602 162.229 287.593L163.593 287.506H163.655V288.523C163.644 288.804 163.531 289.071 163.337 289.274C163.143 289.478 162.881 289.603 162.601 289.627Z" fill="white"/>
<path d="M122.078 232.798C122.958 235.042 122.599 235.898 123.318 237.906C124.037 239.915 124.856 242.085 125.525 243.995C127.112 248.508 128.365 252.414 129.357 255.874C132.42 266.563 132.94 287.122 132.94 287.122L174.195 284.233C177.06 245.991 170.475 227.094 170.475 227.094L167.772 226.895C164.622 226.672 159.228 226.35 154.293 226.387C148.477 226.563 142.678 227.114 136.933 228.036C133.064 228.619 126.815 229.636 122.078 232.798Z" fill="#407BFF"/>
<path opacity="0.2" d="M162.279 260.4C162.279 260.4 146.556 279 132.916 285.944C132.742 281.43 131.986 265.038 129.369 255.874C128.662 253.394 127.819 250.703 126.815 247.727L125.81 239.89C125.81 239.89 131.229 248.57 132.01 256.11C132.01 256.11 150.164 254.87 160.964 248.558L162.279 260.4Z" fill="black"/>
<path d="M153.041 234.521C143.369 232.773 140.641 228.47 140.641 228.47C147.114 222.952 142.501 212.573 142.501 212.573L154.107 215.363C153.756 216.998 153.52 218.655 153.4 220.323C152.954 227.441 156.166 227.676 156.166 227.676C158.038 231.582 153.041 234.521 153.041 234.521Z" fill="#EEC1BB"/>
<path opacity="0.2" d="M154.12 215.363C153.769 216.998 153.532 218.655 153.413 220.323C147.833 218.736 142.513 212.623 142.513 212.623L154.12 215.363Z" fill="black"/>
<path d="M153.264 182.119C163.444 183.036 166.234 188.778 166.036 199.342C165.788 212.536 162.043 221.588 149.569 217.645C132.68 212.288 136.4 180.594 153.264 182.119Z" fill="#EEC1BB"/>
<path d="M159.501 198.177C160.182 199.772 161.052 201.279 162.093 202.666C161.756 203.058 161.317 203.351 160.826 203.513C160.334 203.675 159.807 203.699 159.303 203.583L159.501 198.177Z" fill="#D4827D"/>
<path d="M153.351 196.788C153.351 197.619 152.793 198.276 152.235 198.239C151.677 198.202 151.268 197.482 151.33 196.652C151.392 195.821 151.875 195.164 152.433 195.201C152.991 195.238 153.4 195.92 153.351 196.788Z" fill="#263238"/>
<path d="M152.198 195.226L154.07 194.63C154.07 194.63 153.066 196.106 152.198 195.226Z" fill="#263238"/>
<path d="M163.779 197.296C163.779 198.14 163.221 198.784 162.663 198.747C162.105 198.71 161.696 198.003 161.758 197.172C161.82 196.342 162.316 195.684 162.874 195.722C163.432 195.759 163.841 196.466 163.779 197.296Z" fill="#263238"/>
<path d="M162.638 195.746L164.498 195.151C164.498 195.151 163.494 196.627 162.638 195.746Z" fill="#263238"/>
<path d="M149.321 191.332C149.264 191.333 149.207 191.322 149.153 191.301C149.1 191.28 149.052 191.248 149.011 191.208C148.969 191.167 148.936 191.117 148.914 191.063C148.891 191.009 148.88 190.951 148.88 190.892C148.88 190.833 148.891 190.775 148.914 190.721C148.936 190.666 148.969 190.617 149.011 190.576C149.683 189.995 150.481 189.58 151.343 189.364C152.205 189.149 153.105 189.139 153.971 189.336C154.029 189.347 154.084 189.371 154.133 189.404C154.182 189.437 154.224 189.48 154.256 189.529C154.288 189.579 154.311 189.635 154.321 189.693C154.332 189.751 154.331 189.811 154.318 189.869C154.291 189.984 154.22 190.083 154.12 190.146C154.021 190.209 153.9 190.23 153.785 190.204C153.062 190.054 152.316 190.068 151.599 190.244C150.883 190.42 150.214 190.754 149.643 191.22C149.601 191.261 149.55 191.292 149.494 191.311C149.439 191.331 149.379 191.338 149.321 191.332Z" fill="#263238"/>
<path d="M165.304 191.63C165.201 191.627 165.102 191.592 165.019 191.53C164.545 191.086 163.976 190.754 163.356 190.561C162.735 190.368 162.079 190.318 161.436 190.414C161.321 190.441 161.2 190.423 161.098 190.363C160.997 190.303 160.922 190.206 160.89 190.092C160.86 189.979 160.875 189.858 160.933 189.756C160.991 189.653 161.087 189.578 161.2 189.546C161.976 189.405 162.774 189.443 163.533 189.658C164.292 189.873 164.991 190.259 165.577 190.786C165.624 190.823 165.663 190.868 165.692 190.92C165.722 190.971 165.74 191.028 165.747 191.087C165.754 191.146 165.749 191.206 165.733 191.263C165.716 191.319 165.689 191.373 165.652 191.419C165.613 191.477 165.561 191.526 165.501 191.562C165.441 191.599 165.374 191.622 165.304 191.63Z" fill="#263238"/>
<path d="M140.591 198.276C140.591 198.276 146.109 190.34 145.96 183.818C145.96 183.818 166.892 177.382 166.036 197.954C166.036 197.954 169.644 179.949 152.173 177.965C134.701 175.981 132.482 201.599 140.839 210.044C140.839 210.044 137.181 203.248 140.591 198.276Z" fill="#263238"/>
<path d="M142.067 200.57C142.07 199.383 141.604 198.242 140.77 197.397C139.937 196.551 138.803 196.07 137.615 196.056C134.428 196.056 132.345 202.467 140.095 204.736C141.162 205.059 141.893 204.005 142.067 200.57Z" fill="#EEC1BB"/>
<path d="M158.385 208.32C157.142 208.378 155.914 208.026 154.89 207.318C153.866 206.61 153.103 205.586 152.718 204.402C152.701 204.346 152.696 204.288 152.701 204.23C152.707 204.173 152.724 204.117 152.752 204.066C152.78 204.015 152.818 203.97 152.863 203.934C152.908 203.898 152.96 203.872 153.016 203.856C153.128 203.825 153.247 203.839 153.349 203.894C153.451 203.95 153.527 204.043 153.562 204.154C153.906 205.175 154.58 206.052 155.478 206.647C156.377 207.242 157.447 207.521 158.522 207.44C158.636 207.433 158.749 207.47 158.837 207.544C158.924 207.618 158.98 207.722 158.993 207.836C159 207.954 158.961 208.07 158.885 208.16C158.809 208.25 158.701 208.307 158.584 208.32H158.385Z" fill="#263238"/>
<path d="M143.121 223.547L152.198 230.504L154.888 223.064L159.303 226.498L163.308 227.54C163.632 227.625 163.933 227.78 164.19 227.994C164.447 228.208 164.654 228.476 164.795 228.779C164.937 229.082 165.011 229.412 165.011 229.746C165.011 230.081 164.938 230.411 164.796 230.714C162.7 235.203 158.026 244.193 154.219 244.354C150.412 244.516 137.479 235.674 131.837 231.706C131.607 231.539 131.432 231.309 131.331 231.044C131.23 230.778 131.208 230.49 131.269 230.212C131.329 229.935 131.469 229.681 131.671 229.482C131.873 229.283 132.129 229.147 132.407 229.09L139.562 227.664L143.121 223.547Z" fill="#407BFF"/>
<path opacity="0.6" d="M143.121 223.547L152.198 230.504L154.888 223.064L159.303 226.498L163.308 227.54C163.632 227.625 163.933 227.78 164.19 227.994C164.447 228.208 164.654 228.476 164.795 228.779C164.937 229.082 165.011 229.412 165.011 229.746C165.011 230.081 164.938 230.411 164.796 230.714C162.7 235.203 158.026 244.193 154.219 244.354C150.412 244.516 137.479 235.674 131.837 231.706C131.607 231.539 131.432 231.309 131.331 231.044C131.23 230.778 131.208 230.49 131.269 230.212C131.329 229.935 131.469 229.681 131.671 229.482C131.873 229.283 132.129 229.147 132.407 229.09L139.562 227.664L143.121 223.547Z" fill="white"/>
<path opacity="0.3" d="M139.562 227.652L145.576 236.257L152.198 231.396L158.608 234.521L159.303 226.449L154.888 223.014L152.198 230.504L143.121 223.547L139.562 227.652Z" fill="white"/>
<path d="M152.483 254.894L155.508 258.627L135.532 265.93L135.817 259.52L152.483 254.894Z" fill="#EEC1BB"/>
<path d="M164.498 196.503C164.392 196.501 164.29 196.461 164.211 196.391C164.131 196.32 164.079 196.224 164.064 196.118C163.506 191.729 161.758 188.48 158.856 186.422C153.562 182.702 146.134 184.227 146.06 184.239C146.003 184.252 145.945 184.253 145.888 184.243C145.832 184.233 145.777 184.212 145.729 184.181C145.681 184.15 145.639 184.109 145.606 184.062C145.573 184.014 145.551 183.961 145.539 183.904C145.526 183.848 145.525 183.79 145.535 183.733C145.545 183.676 145.566 183.622 145.597 183.574C145.628 183.525 145.669 183.484 145.716 183.451C145.764 183.418 145.817 183.395 145.874 183.384C146.196 183.384 153.748 181.747 159.352 185.702C162.465 187.897 164.312 191.369 164.945 196.007C164.955 196.121 164.921 196.236 164.85 196.326C164.778 196.416 164.674 196.475 164.56 196.49L164.498 196.503Z" fill="#263238"/>
<path d="M125.686 230.987C118.246 230.739 97.8112 262.161 104.817 273.333C111.823 284.506 140.864 267.133 140.864 267.133L138.384 257.722C138.384 257.722 120.478 261.305 119.511 259.557C118.544 257.808 125.711 248.67 125.711 248.67C125.711 248.67 129.096 246.562 128.067 239.804C127.038 233.046 125.686 230.987 125.686 230.987Z" fill="#407BFF"/>
<path d="M139.736 269.44L142.067 269.353L140.74 256.11L137.59 256.134L139.736 269.44Z" fill="#407BFF"/>
<path d="M246.834 212.548L250.79 215.264L233.666 227.912L232.14 221.675L246.834 212.548Z" fill="#EEC1BB"/>
<path d="M261.206 208.481C260.226 207.378 254.423 203.372 253.183 204.067C251.943 204.761 247.454 211.978 246.066 212.747C245.904 212.834 248.657 217.831 248.657 217.831C249.898 217.927 251.145 217.89 252.377 217.719C253.431 217.434 262.198 209.56 261.206 208.481Z" fill="#EEC1BB"/>
<path d="M170.512 227.094C193.018 228.631 207.402 229.363 215.586 226.387C223.77 223.411 238.836 216.665 238.836 216.665L243.164 225.035C243.164 225.035 216.343 239.035 211.556 239.556C206.77 240.076 172.36 244.342 172.36 244.342L170.512 227.094Z" fill="#407BFF"/>
<path d="M157.17 262.111C157.133 262.252 157.128 262.4 157.155 262.543C157.182 262.687 157.24 262.823 157.325 262.941C157.41 263.06 157.521 263.158 157.648 263.229C157.776 263.299 157.917 263.341 158.063 263.351L169.322 264.591C169.636 264.621 169.95 264.538 170.207 264.356C170.464 264.173 170.647 263.905 170.723 263.599L175.683 241.639C175.722 241.489 175.729 241.333 175.705 241.18C175.681 241.027 175.626 240.88 175.544 240.749C175.462 240.618 175.353 240.505 175.226 240.417C175.099 240.329 174.955 240.268 174.803 240.238L163.531 238.998C163.2 239.004 162.881 239.12 162.625 239.33C162.369 239.539 162.19 239.828 162.118 240.151L157.17 262.111Z" fill="#263238"/>
<path opacity="0.5" d="M163.37 240.138L158.41 262.31C158.363 262.437 158.347 262.574 158.363 262.709C158.378 262.844 158.426 262.973 158.5 263.086C158.575 263.2 158.675 263.294 158.793 263.362C158.911 263.429 159.043 263.468 159.179 263.475L168.739 264.517C169.372 264.579 170.587 264.356 170.723 263.736L175.683 241.49C175.832 240.858 174.79 240.25 174.146 240.163L164.598 239.122C164.306 239.12 164.023 239.221 163.799 239.407C163.574 239.593 163.422 239.852 163.37 240.138Z" fill="white"/>
<path d="M167.4 255.056C166.768 253.704 162.328 248.236 160.952 248.558C159.576 248.88 153.227 254.535 151.677 254.87C151.934 256.759 152.285 258.633 152.731 260.487C153.889 260.925 155.09 261.236 156.314 261.417C157.48 261.454 168.057 256.407 167.4 255.056Z" fill="#EEC1BB"/>
<path opacity="0.6" d="M139.736 269.44L142.067 269.353L140.74 256.11L137.59 256.134L139.736 269.44Z" fill="white"/>
<path d="M243.809 227.652L245.818 226.449L238.316 215.45L235.563 216.988L243.809 227.652Z" fill="#407BFF"/>
<path opacity="0.6" d="M243.809 227.652L245.818 226.449L238.316 215.45L235.563 216.988L243.809 227.652Z" fill="white"/>
</svg>
